G04 #@! TF.GenerationSoftware,KiCad,Pcbnew,(6.0.5)*
G04 #@! TF.CreationDate,2023-01-05T22:18:59-05:00*
G04 #@! TF.ProjectId,V4N4LPH4G0N-rounded,56344e34-4c50-4483-9447-304e2d726f75,rev?*
G04 #@! TF.SameCoordinates,Original*
G04 #@! TF.FileFunction,Soldermask,Top*
G04 #@! TF.FilePolarity,Negative*
%FSLAX46Y46*%
G04 Gerber Fmt 4.6, Leading zero omitted, Abs format (unit mm)*
G04 Created by KiCad (PCBNEW (6.0.5)) date 2023-01-05 22:18:59*
%MOMM*%
%LPD*%
G01*
G04 APERTURE LIST*
%ADD10C,3.987800*%
%ADD11C,1.750000*%
%ADD12R,1.800000X1.100000*%
%ADD13R,1.800000X1.800000*%
%ADD14C,1.800000*%
%ADD15C,0.650000*%
%ADD16O,1.000000X2.100000*%
%ADD17O,0.800000X1.600000*%
G04 APERTURE END LIST*
D10*
X102393750Y-104457500D03*
D11*
X97313750Y-104457500D03*
X107473750Y-104457500D03*
X66992500Y-123507500D03*
D10*
X61912500Y-123507500D03*
D11*
X56832500Y-123507500D03*
D10*
X121443750Y-104457500D03*
D11*
X116363750Y-104457500D03*
X126523750Y-104457500D03*
X236061250Y-104457500D03*
D10*
X230981250Y-104457500D03*
D11*
X225901250Y-104457500D03*
X178276250Y-85407500D03*
D10*
X183356250Y-85407500D03*
D11*
X188436250Y-85407500D03*
X226536250Y-66357500D03*
X216376250Y-66357500D03*
D10*
X221456250Y-66357500D03*
D11*
X112236250Y-123507500D03*
X102076250Y-123507500D03*
D10*
X107156250Y-123507500D03*
D11*
X40798750Y-66357500D03*
X30638750Y-66357500D03*
D10*
X35718750Y-66357500D03*
D11*
X145573750Y-47307500D03*
X135413750Y-47307500D03*
D10*
X140493750Y-47307500D03*
D12*
X86443750Y-54982500D03*
X80243750Y-54982500D03*
X86443750Y-58682500D03*
X80243750Y-58682500D03*
D10*
X209550000Y-123507500D03*
D11*
X214630000Y-123507500D03*
X204470000Y-123507500D03*
X245586250Y-66357500D03*
D10*
X240506250Y-66357500D03*
D11*
X235426250Y-66357500D03*
D10*
X54768750Y-66357500D03*
D11*
X49688750Y-66357500D03*
X59848750Y-66357500D03*
D10*
X121443750Y-47307500D03*
D11*
X116363750Y-47307500D03*
X126523750Y-47307500D03*
D13*
X31529966Y-52092637D03*
D14*
X28989966Y-52092637D03*
D11*
X197326250Y-66357500D03*
X207486250Y-66357500D03*
D10*
X202406250Y-66357500D03*
X211931250Y-104457500D03*
D11*
X217011250Y-104457500D03*
X206851250Y-104457500D03*
X40163750Y-47307500D03*
X50323750Y-47307500D03*
D10*
X45243750Y-47307500D03*
D11*
X262255000Y-123507500D03*
X252095000Y-123507500D03*
D10*
X257175000Y-123507500D03*
D11*
X226536250Y-85407500D03*
D10*
X221456250Y-85407500D03*
D11*
X216376250Y-85407500D03*
X188436250Y-66357500D03*
X178276250Y-66357500D03*
D10*
X183356250Y-66357500D03*
D11*
X49688750Y-85407500D03*
X59848750Y-85407500D03*
D10*
X54768750Y-85407500D03*
X83343750Y-47307500D03*
D11*
X78263750Y-47307500D03*
X88423750Y-47307500D03*
D10*
X92868750Y-85407500D03*
D11*
X87788750Y-85407500D03*
X97948750Y-85407500D03*
X90805000Y-123507500D03*
D10*
X85725000Y-123507500D03*
D11*
X80645000Y-123507500D03*
D13*
X31529966Y-46571537D03*
D14*
X28989966Y-46571537D03*
D11*
X78898750Y-85407500D03*
D10*
X73818750Y-85407500D03*
D11*
X68738750Y-85407500D03*
X235426250Y-85407500D03*
X245586250Y-85407500D03*
D10*
X240506250Y-85407500D03*
D11*
X169386250Y-85407500D03*
X159226250Y-85407500D03*
D10*
X164306250Y-85407500D03*
D11*
X59213750Y-104457500D03*
D10*
X64293750Y-104457500D03*
D11*
X69373750Y-104457500D03*
D10*
X130968750Y-123507500D03*
D11*
X125888750Y-123507500D03*
X136048750Y-123507500D03*
X168751250Y-104457500D03*
D10*
X173831250Y-104457500D03*
D11*
X178911250Y-104457500D03*
D10*
X130968750Y-66357500D03*
D11*
X125888750Y-66357500D03*
X136048750Y-66357500D03*
X30638750Y-85407500D03*
D10*
X35718750Y-85407500D03*
D11*
X40798750Y-85407500D03*
X107473750Y-47307500D03*
X97313750Y-47307500D03*
D10*
X102393750Y-47307500D03*
D13*
X31529966Y-41050437D03*
D14*
X28989966Y-41050437D03*
D11*
X45561250Y-104457500D03*
X35401250Y-104457500D03*
D10*
X40481250Y-104457500D03*
D11*
X68738750Y-66357500D03*
X78898750Y-66357500D03*
D10*
X73818750Y-66357500D03*
D11*
X136048750Y-85407500D03*
D10*
X130968750Y-85407500D03*
D11*
X125888750Y-85407500D03*
D10*
X259556250Y-66357500D03*
D11*
X264636250Y-66357500D03*
X254476250Y-66357500D03*
X106838750Y-66357500D03*
X116998750Y-66357500D03*
D10*
X111918750Y-66357500D03*
X259556250Y-85407500D03*
D11*
X254476250Y-85407500D03*
X264636250Y-85407500D03*
X69373750Y-47307500D03*
D10*
X64293750Y-47307500D03*
D11*
X59213750Y-47307500D03*
X249713750Y-104457500D03*
D10*
X254793750Y-104457500D03*
D11*
X259873750Y-104457500D03*
X197961250Y-104457500D03*
X187801250Y-104457500D03*
D10*
X192881250Y-104457500D03*
D11*
X167005000Y-123507500D03*
D10*
X161925000Y-123507500D03*
D11*
X156845000Y-123507500D03*
X33020000Y-123507500D03*
D10*
X38100000Y-123507500D03*
D11*
X43180000Y-123507500D03*
D10*
X233362500Y-123507500D03*
D11*
X238442500Y-123507500D03*
X228282500Y-123507500D03*
X116998750Y-85407500D03*
X106838750Y-85407500D03*
D10*
X111918750Y-85407500D03*
X188118750Y-123507500D03*
D11*
X193198750Y-123507500D03*
X183038750Y-123507500D03*
X159226250Y-66357500D03*
X169386250Y-66357500D03*
D10*
X164306250Y-66357500D03*
D11*
X142557500Y-104457500D03*
X152717500Y-104457500D03*
D10*
X147637500Y-104457500D03*
D11*
X88423750Y-104457500D03*
X78263750Y-104457500D03*
D10*
X83343750Y-104457500D03*
X202406250Y-85407500D03*
D11*
X207486250Y-85407500D03*
X197326250Y-85407500D03*
X87788750Y-66357500D03*
D10*
X92868750Y-66357500D03*
D11*
X97948750Y-66357500D03*
D15*
X51878750Y-41027334D03*
X57658750Y-41027334D03*
D16*
X59088750Y-41557334D03*
D17*
X50448750Y-37377334D03*
X59088750Y-37377334D03*
D16*
X50448750Y-41557334D03*
M02*
