G04 #@! TF.GenerationSoftware,KiCad,Pcbnew,(6.0.5)*
G04 #@! TF.CreationDate,2023-01-05T22:18:59-05:00*
G04 #@! TF.ProjectId,V4N4LPH4G0N-rounded,56344e34-4c50-4483-9447-304e2d726f75,rev?*
G04 #@! TF.SameCoordinates,Original*
G04 #@! TF.FileFunction,Soldermask,Bot*
G04 #@! TF.FilePolarity,Negative*
%FSLAX46Y46*%
G04 Gerber Fmt 4.6, Leading zero omitted, Abs format (unit mm)*
G04 Created by KiCad (PCBNEW (6.0.5)) date 2023-01-05 22:18:59*
%MOMM*%
%LPD*%
G01*
G04 APERTURE LIST*
G04 Aperture macros list*
%AMRoundRect*
0 Rectangle with rounded corners*
0 $1 Rounding radius*
0 $2 $3 $4 $5 $6 $7 $8 $9 X,Y pos of 4 corners*
0 Add a 4 corners polygon primitive as box body*
4,1,4,$2,$3,$4,$5,$6,$7,$8,$9,$2,$3,0*
0 Add four circle primitives for the rounded corners*
1,1,$1+$1,$2,$3*
1,1,$1+$1,$4,$5*
1,1,$1+$1,$6,$7*
1,1,$1+$1,$8,$9*
0 Add four rect primitives between the rounded corners*
20,1,$1+$1,$2,$3,$4,$5,0*
20,1,$1+$1,$4,$5,$6,$7,0*
20,1,$1+$1,$6,$7,$8,$9,0*
20,1,$1+$1,$8,$9,$2,$3,0*%
%AMRotRect*
0 Rectangle, with rotation*
0 The origin of the aperture is its center*
0 $1 length*
0 $2 width*
0 $3 Rotation angle, in degrees counterclockwise*
0 Add horizontal line*
21,1,$1,$2,0,0,$3*%
G04 Aperture macros list end*
%ADD10C,3.987800*%
%ADD11C,1.750000*%
%ADD12C,2.250000*%
%ADD13R,1.800000X1.800000*%
%ADD14C,1.800000*%
%ADD15C,1.397000*%
%ADD16R,1.200000X0.900000*%
%ADD17RoundRect,0.250000X0.262500X0.450000X-0.262500X0.450000X-0.262500X-0.450000X0.262500X-0.450000X0*%
%ADD18RoundRect,0.250000X-0.350000X-0.450000X0.350000X-0.450000X0.350000X0.450000X-0.350000X0.450000X0*%
%ADD19RotRect,2.100000X1.800000X225.000000*%
%ADD20RoundRect,0.250000X0.475000X-0.337500X0.475000X0.337500X-0.475000X0.337500X-0.475000X-0.337500X0*%
%ADD21RoundRect,0.250000X-0.337500X-0.475000X0.337500X-0.475000X0.337500X0.475000X-0.337500X0.475000X0*%
%ADD22RoundRect,0.250000X0.350000X0.450000X-0.350000X0.450000X-0.350000X-0.450000X0.350000X-0.450000X0*%
%ADD23RoundRect,0.062500X-0.475000X-0.062500X0.475000X-0.062500X0.475000X0.062500X-0.475000X0.062500X0*%
%ADD24RoundRect,0.062500X-0.062500X-0.475000X0.062500X-0.475000X0.062500X0.475000X-0.062500X0.475000X0*%
%ADD25R,5.200000X5.200000*%
%ADD26R,1.800000X1.100000*%
%ADD27RoundRect,0.250000X0.097227X-0.574524X0.574524X-0.097227X-0.097227X0.574524X-0.574524X0.097227X0*%
%ADD28RoundRect,0.250000X0.337500X0.475000X-0.337500X0.475000X-0.337500X-0.475000X0.337500X-0.475000X0*%
%ADD29RoundRect,0.250000X-0.450000X0.350000X-0.450000X-0.350000X0.450000X-0.350000X0.450000X0.350000X0*%
%ADD30RoundRect,0.250000X-0.475000X0.337500X-0.475000X-0.337500X0.475000X-0.337500X0.475000X0.337500X0*%
%ADD31C,0.650000*%
%ADD32R,0.600000X2.450000*%
%ADD33R,0.300000X2.450000*%
%ADD34R,1.560000X0.650000*%
%ADD35RoundRect,0.250000X0.574524X0.097227X0.097227X0.574524X-0.574524X-0.097227X-0.097227X-0.574524X0*%
%ADD36RoundRect,0.210527X-0.745252X-0.194454X-0.194454X-0.745252X0.745252X0.194454X0.194454X0.745252X0*%
G04 APERTURE END LIST*
D10*
X102393750Y-104457500D03*
D11*
X97313750Y-104457500D03*
X107473750Y-104457500D03*
D12*
X98583750Y-101917500D03*
X104933750Y-99377500D03*
D11*
X66992500Y-123507500D03*
D10*
X61912500Y-123507500D03*
D11*
X56832500Y-123507500D03*
D12*
X58102500Y-120967500D03*
X64452500Y-118427500D03*
D10*
X121443750Y-104457500D03*
D11*
X116363750Y-104457500D03*
X126523750Y-104457500D03*
D12*
X117633750Y-101917500D03*
X123983750Y-99377500D03*
D11*
X236061250Y-104457500D03*
D10*
X230981250Y-104457500D03*
D11*
X225901250Y-104457500D03*
D12*
X227171250Y-101917500D03*
X233521250Y-99377500D03*
D11*
X178276250Y-85407500D03*
D10*
X183356250Y-85407500D03*
D11*
X188436250Y-85407500D03*
D12*
X179546250Y-82867500D03*
X185896250Y-80327500D03*
D11*
X226536250Y-66357500D03*
X216376250Y-66357500D03*
D10*
X221456250Y-66357500D03*
D12*
X217646250Y-63817500D03*
X223996250Y-61277500D03*
D11*
X112236250Y-123507500D03*
X102076250Y-123507500D03*
D10*
X107156250Y-123507500D03*
D12*
X103346250Y-120967500D03*
X109696250Y-118427500D03*
D11*
X40798750Y-66357500D03*
X30638750Y-66357500D03*
D10*
X35718750Y-66357500D03*
D12*
X31908750Y-63817500D03*
X38258750Y-61277500D03*
D11*
X145573750Y-47307500D03*
X135413750Y-47307500D03*
D10*
X140493750Y-47307500D03*
D12*
X136683750Y-44767500D03*
X143033750Y-42227500D03*
D10*
X209550000Y-123507500D03*
D11*
X214630000Y-123507500D03*
X204470000Y-123507500D03*
D12*
X205740000Y-120967500D03*
X212090000Y-118427500D03*
D11*
X245586250Y-66357500D03*
D10*
X240506250Y-66357500D03*
D11*
X235426250Y-66357500D03*
D12*
X236696250Y-63817500D03*
X243046250Y-61277500D03*
D10*
X54768750Y-66357500D03*
D11*
X49688750Y-66357500D03*
X59848750Y-66357500D03*
D12*
X50958750Y-63817500D03*
X57308750Y-61277500D03*
D10*
X121443750Y-47307500D03*
D11*
X116363750Y-47307500D03*
X126523750Y-47307500D03*
D12*
X117633750Y-44767500D03*
X123983750Y-42227500D03*
D13*
X31529966Y-52092637D03*
D14*
X28989966Y-52092637D03*
D11*
X197326250Y-66357500D03*
X207486250Y-66357500D03*
D10*
X202406250Y-66357500D03*
D12*
X198596250Y-63817500D03*
X204946250Y-61277500D03*
D10*
X211931250Y-104457500D03*
D11*
X217011250Y-104457500D03*
X206851250Y-104457500D03*
D12*
X208121250Y-101917500D03*
X214471250Y-99377500D03*
D11*
X40163750Y-47307500D03*
X50323750Y-47307500D03*
D10*
X45243750Y-47307500D03*
D12*
X41433750Y-44767500D03*
X47783750Y-42227500D03*
D11*
X262255000Y-123507500D03*
X252095000Y-123507500D03*
D10*
X257175000Y-123507500D03*
D12*
X253365000Y-120967500D03*
X259715000Y-118427500D03*
D11*
X226536250Y-85407500D03*
D10*
X221456250Y-85407500D03*
D11*
X216376250Y-85407500D03*
D12*
X217646250Y-82867500D03*
X223996250Y-80327500D03*
D11*
X188436250Y-66357500D03*
X178276250Y-66357500D03*
D10*
X183356250Y-66357500D03*
D12*
X179546250Y-63817500D03*
X185896250Y-61277500D03*
D11*
X49688750Y-85407500D03*
X59848750Y-85407500D03*
D10*
X54768750Y-85407500D03*
D12*
X50958750Y-82867500D03*
X57308750Y-80327500D03*
D10*
X83343750Y-47307500D03*
D11*
X78263750Y-47307500D03*
X88423750Y-47307500D03*
D12*
X79533750Y-44767500D03*
X85883750Y-42227500D03*
D10*
X92868750Y-85407500D03*
D11*
X87788750Y-85407500D03*
X97948750Y-85407500D03*
D12*
X89058750Y-82867500D03*
X95408750Y-80327500D03*
D11*
X90805000Y-123507500D03*
D10*
X85725000Y-123507500D03*
D11*
X80645000Y-123507500D03*
D12*
X81915000Y-120967500D03*
X88265000Y-118427500D03*
D13*
X31529966Y-46571537D03*
D14*
X28989966Y-46571537D03*
D11*
X78898750Y-85407500D03*
D10*
X73818750Y-85407500D03*
D11*
X68738750Y-85407500D03*
D12*
X70008750Y-82867500D03*
X76358750Y-80327500D03*
D11*
X235426250Y-85407500D03*
X245586250Y-85407500D03*
D10*
X240506250Y-85407500D03*
D12*
X236696250Y-82867500D03*
X243046250Y-80327500D03*
D11*
X169386250Y-85407500D03*
X159226250Y-85407500D03*
D10*
X164306250Y-85407500D03*
D12*
X160496250Y-82867500D03*
X166846250Y-80327500D03*
D11*
X59213750Y-104457500D03*
D10*
X64293750Y-104457500D03*
D11*
X69373750Y-104457500D03*
D12*
X60483750Y-101917500D03*
X66833750Y-99377500D03*
D10*
X130968750Y-123507500D03*
D11*
X125888750Y-123507500D03*
X136048750Y-123507500D03*
D12*
X127158750Y-120967500D03*
X133508750Y-118427500D03*
D11*
X168751250Y-104457500D03*
D10*
X173831250Y-104457500D03*
D11*
X178911250Y-104457500D03*
D12*
X170021250Y-101917500D03*
X176371250Y-99377500D03*
D10*
X130968750Y-66357500D03*
D11*
X125888750Y-66357500D03*
X136048750Y-66357500D03*
D12*
X127158750Y-63817500D03*
X133508750Y-61277500D03*
D11*
X30638750Y-85407500D03*
D10*
X35718750Y-85407500D03*
D11*
X40798750Y-85407500D03*
D12*
X31908750Y-82867500D03*
X38258750Y-80327500D03*
D11*
X107473750Y-47307500D03*
X97313750Y-47307500D03*
D10*
X102393750Y-47307500D03*
D12*
X98583750Y-44767500D03*
X104933750Y-42227500D03*
D13*
X31529966Y-41050437D03*
D14*
X28989966Y-41050437D03*
D11*
X45561250Y-104457500D03*
X35401250Y-104457500D03*
D10*
X40481250Y-104457500D03*
D12*
X36671250Y-101917500D03*
X43021250Y-99377500D03*
D11*
X68738750Y-66357500D03*
X78898750Y-66357500D03*
D10*
X73818750Y-66357500D03*
D12*
X70008750Y-63817500D03*
X76358750Y-61277500D03*
D11*
X136048750Y-85407500D03*
D10*
X130968750Y-85407500D03*
D11*
X125888750Y-85407500D03*
D12*
X127158750Y-82867500D03*
X133508750Y-80327500D03*
D10*
X259556250Y-66357500D03*
D11*
X264636250Y-66357500D03*
X254476250Y-66357500D03*
D12*
X255746250Y-63817500D03*
X262096250Y-61277500D03*
D11*
X106838750Y-66357500D03*
X116998750Y-66357500D03*
D10*
X111918750Y-66357500D03*
D12*
X108108750Y-63817500D03*
X114458750Y-61277500D03*
D10*
X259556250Y-85407500D03*
D11*
X254476250Y-85407500D03*
X264636250Y-85407500D03*
D12*
X255746250Y-82867500D03*
X262096250Y-80327500D03*
D11*
X69373750Y-47307500D03*
D10*
X64293750Y-47307500D03*
D11*
X59213750Y-47307500D03*
D12*
X60483750Y-44767500D03*
X66833750Y-42227500D03*
D11*
X249713750Y-104457500D03*
D10*
X254793750Y-104457500D03*
D11*
X259873750Y-104457500D03*
D12*
X250983750Y-101917500D03*
X257333750Y-99377500D03*
D11*
X197961250Y-104457500D03*
X187801250Y-104457500D03*
D10*
X192881250Y-104457500D03*
D12*
X189071250Y-101917500D03*
X195421250Y-99377500D03*
D11*
X167005000Y-123507500D03*
D10*
X161925000Y-123507500D03*
D11*
X156845000Y-123507500D03*
D12*
X158115000Y-120967500D03*
X164465000Y-118427500D03*
D15*
X151447500Y-58152500D03*
X148907500Y-58152500D03*
X146367500Y-58152500D03*
X143827500Y-58152500D03*
D11*
X33020000Y-123507500D03*
D10*
X38100000Y-123507500D03*
D11*
X43180000Y-123507500D03*
D12*
X34290000Y-120967500D03*
X40640000Y-118427500D03*
D10*
X233362500Y-123507500D03*
D11*
X238442500Y-123507500D03*
X228282500Y-123507500D03*
D12*
X229552500Y-120967500D03*
X235902500Y-118427500D03*
D11*
X116998750Y-85407500D03*
X106838750Y-85407500D03*
D10*
X111918750Y-85407500D03*
D12*
X108108750Y-82867500D03*
X114458750Y-80327500D03*
D10*
X188118750Y-123507500D03*
D11*
X193198750Y-123507500D03*
X183038750Y-123507500D03*
D12*
X184308750Y-120967500D03*
X190658750Y-118427500D03*
D11*
X159226250Y-66357500D03*
X169386250Y-66357500D03*
D10*
X164306250Y-66357500D03*
D12*
X160496250Y-63817500D03*
X166846250Y-61277500D03*
D11*
X142557500Y-104457500D03*
X152717500Y-104457500D03*
D10*
X147637500Y-104457500D03*
D12*
X143827500Y-101917500D03*
X150177500Y-99377500D03*
D11*
X88423750Y-104457500D03*
X78263750Y-104457500D03*
D10*
X83343750Y-104457500D03*
D12*
X79533750Y-101917500D03*
X85883750Y-99377500D03*
D10*
X202406250Y-85407500D03*
D11*
X207486250Y-85407500D03*
X197326250Y-85407500D03*
D12*
X198596250Y-82867500D03*
X204946250Y-80327500D03*
D11*
X87788750Y-66357500D03*
D10*
X92868750Y-66357500D03*
D11*
X97948750Y-66357500D03*
D12*
X89058750Y-63817500D03*
X95408750Y-61277500D03*
D16*
X86444380Y-106901250D03*
X86444380Y-103601250D03*
D17*
X35837500Y-46571537D03*
X34012500Y-46571537D03*
D16*
X124545956Y-49751250D03*
X124545956Y-46451250D03*
D18*
X139730000Y-75528753D03*
X141730000Y-75528753D03*
D19*
X149682228Y-66145368D03*
X147631618Y-68195978D03*
X146005272Y-66569632D03*
X148055882Y-64519022D03*
D20*
X61876830Y-41760050D03*
X61876830Y-39685050D03*
D16*
X105495168Y-106901250D03*
X105495168Y-103601250D03*
X165030876Y-125951250D03*
X165030876Y-122651250D03*
X262657762Y-87851250D03*
X262657762Y-84551250D03*
X186457762Y-87851250D03*
X186457762Y-84551250D03*
X76912189Y-87851250D03*
X76912189Y-84551250D03*
X262657762Y-68801250D03*
X262657762Y-65501250D03*
X134068021Y-125951250D03*
X134068021Y-122651250D03*
X191214166Y-125951250D03*
X191214166Y-122651250D03*
X48343592Y-49751250D03*
X48343592Y-46451250D03*
D21*
X143387500Y-80645000D03*
X145462500Y-80645000D03*
D16*
X260272325Y-125951250D03*
X260272325Y-122651250D03*
X67393592Y-49751250D03*
X67393592Y-46451250D03*
X41195742Y-125951250D03*
X41195742Y-122651250D03*
D22*
X154942541Y-78474835D03*
X152942541Y-78474835D03*
D16*
X243607762Y-87851250D03*
X243607762Y-84551250D03*
D23*
X144506250Y-77747322D03*
X144506250Y-77247322D03*
X144506250Y-76747322D03*
X144506250Y-76247322D03*
X144506250Y-75747322D03*
X144506250Y-75247322D03*
X144506250Y-74747322D03*
X144506250Y-74247322D03*
X144506250Y-73747322D03*
X144506250Y-73247322D03*
X144506250Y-72747322D03*
D24*
X145343750Y-71909822D03*
X145843750Y-71909822D03*
X146343750Y-71909822D03*
X146843750Y-71909822D03*
X147343750Y-71909822D03*
X147843750Y-71909822D03*
X148343750Y-71909822D03*
X148843750Y-71909822D03*
X149343750Y-71909822D03*
X149843750Y-71909822D03*
X150343750Y-71909822D03*
D23*
X151181250Y-72747322D03*
X151181250Y-73247322D03*
X151181250Y-73747322D03*
X151181250Y-74247322D03*
X151181250Y-74747322D03*
X151181250Y-75247322D03*
X151181250Y-75747322D03*
X151181250Y-76247322D03*
X151181250Y-76747322D03*
X151181250Y-77247322D03*
X151181250Y-77747322D03*
D24*
X150343750Y-78584822D03*
X149843750Y-78584822D03*
X149343750Y-78584822D03*
X148843750Y-78584822D03*
X148343750Y-78584822D03*
X147843750Y-78584822D03*
X147343750Y-78584822D03*
X146843750Y-78584822D03*
X146343750Y-78584822D03*
X145843750Y-78584822D03*
X145343750Y-78584822D03*
D25*
X147843750Y-75247322D03*
D16*
X67393592Y-106901250D03*
X67393592Y-103601250D03*
X257887642Y-106901250D03*
X257887642Y-103601250D03*
D26*
X80243750Y-54982500D03*
X86443750Y-54982500D03*
X86443750Y-58682500D03*
X80243750Y-58682500D03*
D27*
X144728877Y-64709873D03*
X146196123Y-63242627D03*
D17*
X35837500Y-52092637D03*
X34012500Y-52092637D03*
D16*
X57862885Y-68801250D03*
X57862885Y-65501250D03*
D28*
X140943750Y-73501250D03*
X138868750Y-73501250D03*
D16*
X38813581Y-87851250D03*
X38813581Y-84551250D03*
D29*
X64258080Y-39722550D03*
X64258080Y-41722550D03*
D16*
X212645742Y-125951250D03*
X212645742Y-122651250D03*
X224557762Y-68801250D03*
X224557762Y-65501250D03*
D20*
X153384299Y-72616304D03*
X153384299Y-70541304D03*
D16*
X95961493Y-68801250D03*
X95961493Y-65501250D03*
X167407762Y-68801250D03*
X167407762Y-65501250D03*
D30*
X83343750Y-72781250D03*
X83343750Y-74856250D03*
D16*
X134060102Y-84551250D03*
X110262849Y-125951250D03*
X110262849Y-122651250D03*
D29*
X42826830Y-39722550D03*
X42826830Y-41722550D03*
D16*
X243607762Y-68801250D03*
X243607762Y-65501250D03*
X205507762Y-87851250D03*
X205507762Y-84551250D03*
D17*
X35837500Y-41050437D03*
X34012500Y-41050437D03*
D16*
X195986610Y-106901250D03*
X195986610Y-103601250D03*
D29*
X45208080Y-39722550D03*
X45208080Y-41722550D03*
D31*
X51878750Y-41027334D03*
X57658750Y-41027334D03*
D32*
X51543750Y-42972334D03*
X52318750Y-42972334D03*
D33*
X53018750Y-42972334D03*
X53518750Y-42972334D03*
X54018750Y-42972334D03*
X54518750Y-42972334D03*
X55018750Y-42972334D03*
X55518750Y-42972334D03*
X56018750Y-42972334D03*
X56518750Y-42972334D03*
D32*
X57218750Y-42972334D03*
X57993750Y-42972334D03*
D16*
X150745230Y-106901250D03*
X150745230Y-103601250D03*
X76912189Y-68801250D03*
X76912189Y-65501250D03*
X224557762Y-87851250D03*
X224557762Y-84551250D03*
X124545956Y-106901250D03*
X124545956Y-103601250D03*
X215037400Y-106901250D03*
X215037400Y-103601250D03*
D34*
X53588348Y-52910315D03*
X53588348Y-51960315D03*
X53588348Y-51010315D03*
X56288348Y-51010315D03*
X56288348Y-51960315D03*
X56288348Y-52910315D03*
D35*
X151630374Y-64587874D03*
X150163128Y-63120628D03*
D16*
X234088190Y-106901250D03*
X234088190Y-103601250D03*
X205507762Y-68801250D03*
X205507762Y-65501250D03*
X134060102Y-68801250D03*
X134060102Y-65501250D03*
D36*
X60710418Y-56741668D03*
X63114582Y-59145832D03*
D16*
X115010797Y-68801250D03*
X115010797Y-65501250D03*
X43574596Y-106901250D03*
X43574596Y-103601250D03*
X88829548Y-125951250D03*
X88829548Y-122651250D03*
X176935820Y-106901250D03*
X176935820Y-103601250D03*
X167407762Y-87851250D03*
X167407762Y-84551250D03*
X105495168Y-49751250D03*
X105495168Y-46451250D03*
X115010797Y-87851250D03*
X115010797Y-84551250D03*
X186457762Y-68801250D03*
X186457762Y-65501250D03*
D18*
X139730000Y-77560753D03*
X141730000Y-77560753D03*
D22*
X84343750Y-61118750D03*
X82343750Y-61118750D03*
D16*
X95961493Y-87851250D03*
X95961493Y-84551250D03*
X57862885Y-87851250D03*
X57862885Y-84551250D03*
X143595956Y-49751250D03*
X143595956Y-46451250D03*
X86444380Y-49751250D03*
X86444380Y-46451250D03*
X38813581Y-68801250D03*
X38813581Y-65501250D03*
D35*
X143331257Y-68666217D03*
X141864011Y-67198971D03*
D28*
X152850000Y-80645000D03*
X150775000Y-80645000D03*
D16*
X65014113Y-125951250D03*
X65014113Y-122651250D03*
X236464395Y-125951250D03*
X236464395Y-122651250D03*
M02*
