M48
; DRILL file {KiCad (6.0.5)} date Thu Jan  5 22:19:00 2023
; FORMAT={-:-/ absolute / inch / decimal}
; #@! TF.CreationDate,2023-01-05T22:19:00-05:00
; #@! TF.GenerationSoftware,Kicad,Pcbnew,(6.0.5)
; #@! TF.FileFunction,Plated,1,2,PTH
FMAT,2
INCH
; #@! TA.AperFunction,Plated,PTH,ComponentDrill
T1C0.0079
; #@! TA.AperFunction,Plated,PTH,ViaDrill
T2C0.0118
; #@! TA.AperFunction,Plated,PTH,ViaDrill
T3C0.0157
; #@! TA.AperFunction,Plated,PTH,ComponentDrill
T4C0.0197
; #@! TA.AperFunction,Plated,PTH,ComponentDrill
T5C0.0236
; #@! TA.AperFunction,Plated,PTH,ComponentDrill
T6C0.0320
; #@! TA.AperFunction,Plated,PTH,ComponentDrill
T7C0.0354
; #@! TA.AperFunction,Plated,PTH,ComponentDrill
T8C0.0579
%
G90
G05
T1
X5.7281Y-2.87
X5.7281Y-2.9162
X5.7281Y-2.9625
X5.7281Y-3.0088
X5.7281Y-3.055
X5.7744Y-2.87
X5.7744Y-2.9162
X5.7744Y-2.9625
X5.7744Y-3.0088
X5.7744Y-3.055
X5.8206Y-2.87
X5.8206Y-2.9162
X5.8206Y-2.9625
X5.8206Y-3.0088
X5.8206Y-3.055
X5.8669Y-2.87
X5.8669Y-2.9162
X5.8669Y-2.9625
X5.8669Y-3.0088
X5.8669Y-3.055
X5.9131Y-2.87
X5.9131Y-2.9162
X5.9131Y-2.9625
X5.9131Y-3.0088
X5.9131Y-3.055
T2
X1.7313Y-1.6956
X2.0486Y-2.0458
X2.0616Y-1.7822
X2.0938Y-1.8125
X2.2188Y-1.8125
X2.2509Y-1.7822
X5.4144Y-2.8937
X5.5394Y-2.6125
X5.5977Y-2.6911
X5.6291Y-2.9791
X5.6331Y-3.05
X5.6844Y-3.2077
X5.6929Y-2.6704
X5.7933Y-2.4487
X5.946Y-2.4504
X5.9769Y-3.2062
X6.0915Y-2.8806
X6.1039Y-2.7766
T3
X1.4542Y-1.6159
X1.4548Y-1.8353
X1.456Y-2.0523
X1.9615Y-1.9589
X2.0517Y-2.7912
X2.0535Y-2.7355
X2.0776Y-2.7649
X2.2188Y-1.9062
X2.3215Y-2.7095
X2.3481Y-1.9586
X2.4828Y-1.6934
X2.6593Y-2.7646
X2.6821Y-2.7973
X2.6854Y-2.7327
X2.7335Y-2.7099
X3.0938Y-2.1562
X3.3634Y-2.3634
X3.4688Y-2.1562
X4.0312Y-2.8125
X5.2911Y-2.2812
X5.3283Y-2.7088
X5.3305Y-3.4582
X5.4725Y-2.4084
X5.5707Y-2.8437
X5.7029Y-3.2451
X5.9375Y-3.25
X6.0312Y-4.9587
X6.1144Y-3.1529
X6.1562Y-4.1859
X6.2188Y-3.4587
X6.25Y-2.7121
T6
X5.6625Y-2.2895
X5.7625Y-2.2895
X5.8625Y-2.2895
X5.9625Y-2.2895
T7
X1.1413Y-1.6162
X1.1413Y-1.8335
X1.1413Y-2.0509
X1.2413Y-1.6162
X1.2413Y-1.8335
X1.2413Y-2.0509
T8
X1.2562Y-2.5125
X1.2562Y-3.2625
X1.35Y-4.7625
X1.4437Y-4.0125
X1.5062Y-2.4125
X1.5062Y-3.1625
X1.6Y-4.6625
X1.6312Y-1.7625
X1.6937Y-3.9125
X1.8812Y-1.6625
X2.0063Y-2.5125
X2.0063Y-3.2625
X2.2563Y-2.4125
X2.2563Y-3.1625
X2.2875Y-4.7625
X2.3813Y-1.7625
X2.3813Y-4.0125
X2.5375Y-4.6625
X2.6313Y-1.6625
X2.6313Y-3.9125
X2.7563Y-2.5125
X2.7563Y-3.2625
X3.0063Y-2.4125
X3.0063Y-3.1625
X3.1313Y-1.7625
X3.1313Y-4.0125
X3.225Y-4.7625
X3.3813Y-1.6625
X3.3813Y-3.9125
X3.475Y-4.6625
X3.5063Y-2.5125
X3.5063Y-3.2625
X3.7563Y-2.4125
X3.7563Y-3.1625
X3.8813Y-1.7625
X3.8813Y-4.0125
X4.0687Y-4.7625
X4.1312Y-1.6625
X4.1312Y-3.9125
X4.2562Y-2.5125
X4.2562Y-3.2625
X4.3187Y-4.6625
X4.5062Y-2.4125
X4.5062Y-3.1625
X4.6312Y-1.7625
X4.6312Y-4.0125
X4.8812Y-1.6625
X4.8812Y-3.9125
X5.0062Y-2.5125
X5.0062Y-3.2625
X5.0062Y-4.7625
X5.2562Y-2.4125
X5.2562Y-3.1625
X5.2562Y-4.6625
X5.3812Y-1.7625
X5.6312Y-1.6625
X5.6625Y-4.0125
X5.9125Y-3.9125
X6.225Y-4.7625
X6.3187Y-2.5125
X6.3187Y-3.2625
X6.475Y-4.6625
X6.5687Y-2.4125
X6.5687Y-3.1625
X6.6937Y-4.0125
X6.9437Y-3.9125
X7.0687Y-2.5125
X7.0687Y-3.2625
X7.2562Y-4.7625
X7.3187Y-2.4125
X7.3187Y-3.1625
X7.4437Y-4.0125
X7.5062Y-4.6625
X7.6937Y-3.9125
X7.8187Y-2.5125
X7.8187Y-3.2625
X8.0687Y-2.4125
X8.0687Y-3.1625
X8.1Y-4.7625
X8.1937Y-4.0125
X8.35Y-4.6625
X8.4437Y-3.9125
X8.5687Y-2.5125
X8.5687Y-3.2625
X8.8187Y-2.4125
X8.8187Y-3.1625
X8.9437Y-4.0125
X9.0375Y-4.7625
X9.1937Y-3.9125
X9.2875Y-4.6625
X9.3187Y-2.5125
X9.3187Y-3.2625
X9.5687Y-2.4125
X9.5687Y-3.1625
X9.8812Y-4.0125
X9.975Y-4.7625
X10.0687Y-2.5125
X10.0687Y-3.2625
X10.1312Y-3.9125
X10.225Y-4.6625
X10.3187Y-2.4125
X10.3187Y-3.1625
T4
G00X1.9862Y-1.4578
M15
G01X1.9862Y-1.4853
M16
G05
G00X2.3263Y-1.4578
M15
G01X2.3263Y-1.4853
M16
G05
T5
G00X1.9862Y-1.6145
M15
G01X1.9862Y-1.6578
M16
G05
G00X2.3263Y-1.6145
M15
G01X2.3263Y-1.6578
M16
G05
T0
M30
