<?xml version="1.0" encoding="utf-8"?>
<!-- Generator: Adobe Illustrator 26.5.0, SVG Export Plug-In . SVG Version: 6.00 Build 0)  -->
<svg version="1.1" id="Layer_1" xmlns="http://www.w3.org/2000/svg" xmlns:xlink="http://www.w3.org/1999/xlink" x="0px" y="0px"
	 viewBox="0 0 792 612" style="enable-background:new 0 0 792 612;" xml:space="preserve">
<style type="text/css">
	.st0{fill:none;stroke:#000000;stroke-width:0.7087;stroke-linecap:round;stroke-linejoin:round;stroke-miterlimit:10;}
</style>
<path class="st0" d="M86.4,216.4c0,0.8,0.6,1.4,1.4,1.4h36.8c0.8,0,1.4-0.6,1.4-1.4v-36.9c0-0.8-0.6-1.4-1.4-1.4H87.8
	c-0.8,0-1.4,0.6-1.4,1.4L86.4,216.4L86.4,216.4z"/>
<path class="st0" d="M140.4,216.4c0,0.8,0.6,1.4,1.4,1.4h36.8c0.8,0,1.4-0.6,1.4-1.4v-36.9c0-0.8-0.6-1.4-1.4-1.4h-36.9
	c-0.8,0-1.4,0.6-1.4,1.4L140.4,216.4L140.4,216.4z"/>
<path class="st0" d="M194.4,216.4c0,0.8,0.6,1.4,1.4,1.4h36.8c0.8,0,1.4-0.6,1.4-1.4v-36.9c0-0.8-0.6-1.4-1.4-1.4h-36.9
	c-0.8,0-1.4,0.6-1.4,1.4C194.4,179.6,194.4,216.4,194.4,216.4z"/>
<path class="st0" d="M356.4,216.4c0,0.8,0.6,1.4,1.4,1.4h36.9c0.8,0,1.4-0.6,1.4-1.4v-36.9c0-0.8-0.6-1.4-1.4-1.4h-36.9
	c-0.8,0-1.4,0.6-1.4,1.4V216.4z"/>
<path class="st0" d="M302.4,216.4c0,0.8,0.6,1.4,1.4,1.4h36.8c0.8,0,1.4-0.6,1.4-1.4v-36.9c0-0.8-0.6-1.4-1.4-1.4h-36.9
	c-0.8,0-1.4,0.6-1.4,1.4L302.4,216.4L302.4,216.4z"/>
<path class="st0" d="M248.4,216.4c0,0.8,0.6,1.4,1.4,1.4h36.8c0.8,0,1.4-0.6,1.4-1.4v-36.9c0-0.8-0.6-1.4-1.4-1.4h-36.9
	c-0.8,0-1.4,0.6-1.4,1.4L248.4,216.4L248.4,216.4z"/>
<path class="st0" d="M59.4,270.4c0,0.8,0.6,1.4,1.4,1.4h36.8c0.8,0,1.4-0.6,1.4-1.4v-36.9c0-0.8-0.6-1.4-1.4-1.4H60.8
	c-0.8,0-1.4,0.6-1.4,1.4C59.4,233.6,59.4,270.4,59.4,270.4z"/>
<path class="st0" d="M113.4,270.4c0,0.8,0.6,1.4,1.4,1.4h36.8c0.8,0,1.4-0.6,1.4-1.4v-36.9c0-0.8-0.6-1.4-1.4-1.4h-36.8
	c-0.8,0-1.4,0.6-1.4,1.4V270.4z"/>
<path class="st0" d="M167.4,270.4c0,0.8,0.6,1.4,1.4,1.4h36.8c0.8,0,1.4-0.6,1.4-1.4v-36.9c0-0.8-0.6-1.4-1.4-1.4h-36.8
	c-0.8,0-1.4,0.6-1.4,1.4V270.4z"/>
<path class="st0" d="M329.4,270.4c0,0.8,0.6,1.4,1.4,1.4h36.8c0.8,0,1.4-0.6,1.4-1.4v-36.9c0-0.8-0.6-1.4-1.4-1.4h-36.9
	c-0.8,0-1.4,0.6-1.4,1.4L329.4,270.4L329.4,270.4z"/>
<path class="st0" d="M275.4,270.4c0,0.8,0.6,1.4,1.4,1.4h36.8c0.8,0,1.4-0.6,1.4-1.4v-36.9c0-0.8-0.6-1.4-1.4-1.4h-36.9
	c-0.8,0-1.4,0.6-1.4,1.4L275.4,270.4L275.4,270.4z"/>
<path class="st0" d="M221.4,270.4c0,0.8,0.6,1.4,1.4,1.4h36.8c0.8,0,1.4-0.6,1.4-1.4v-36.9c0-0.8-0.6-1.4-1.4-1.4h-36.9
	c-0.8,0-1.4,0.6-1.4,1.4L221.4,270.4L221.4,270.4z"/>
<path class="st0" d="M423.9,270.4c0,0.8,0.6,1.4,1.4,1.4h36.9c0.8,0,1.4-0.6,1.4-1.4v-36.9c0-0.8-0.6-1.4-1.4-1.4h-36.9
	c-0.8,0-1.4,0.6-1.4,1.4V270.4z"/>
<path class="st0" d="M477.9,270.4c0,0.8,0.6,1.4,1.4,1.4h36.9c0.8,0,1.4-0.6,1.4-1.4v-36.9c0-0.8-0.6-1.4-1.4-1.4h-36.9
	c-0.8,0-1.4,0.6-1.4,1.4V270.4z"/>
<path class="st0" d="M531.9,270.4c0,0.8,0.6,1.4,1.4,1.4h36.9c0.8,0,1.4-0.6,1.4-1.4v-36.9c0-0.8-0.6-1.4-1.4-1.4h-36.9
	c-0.8,0-1.4,0.6-1.4,1.4V270.4z"/>
<path class="st0" d="M693.9,270.4c0,0.8,0.6,1.4,1.4,1.4h36.8c0.8,0,1.4-0.6,1.4-1.4v-36.9c0-0.8-0.6-1.4-1.4-1.4h-36.8
	c-0.8,0-1.4,0.6-1.4,1.4V270.4z"/>
<path class="st0" d="M639.9,270.4c0,0.8,0.6,1.4,1.4,1.4h36.8c0.8,0,1.4-0.6,1.4-1.4v-36.9c0-0.8-0.6-1.4-1.4-1.4h-36.8
	c-0.8,0-1.4,0.6-1.4,1.4V270.4z"/>
<path class="st0" d="M585.9,270.4c0,0.8,0.6,1.4,1.4,1.4h36.8c0.8,0,1.4-0.6,1.4-1.4v-36.9c0-0.8-0.6-1.4-1.4-1.4h-36.9
	c-0.8,0-1.4,0.6-1.4,1.4L585.9,270.4L585.9,270.4z"/>
<path class="st0" d="M59.4,324.4c0,0.8,0.6,1.4,1.4,1.4h36.8c0.8,0,1.4-0.6,1.4-1.4v-36.9c0-0.8-0.6-1.4-1.4-1.4H60.8
	c-0.8,0-1.4,0.6-1.4,1.4C59.4,287.6,59.4,324.4,59.4,324.4z"/>
<path class="st0" d="M113.4,324.4c0,0.8,0.6,1.4,1.4,1.4h36.8c0.8,0,1.4-0.6,1.4-1.4v-36.9c0-0.8-0.6-1.4-1.4-1.4h-36.8
	c-0.8,0-1.4,0.6-1.4,1.4V324.4z"/>
<path class="st0" d="M167.4,324.4c0,0.8,0.6,1.4,1.4,1.4h36.8c0.8,0,1.4-0.6,1.4-1.4v-36.9c0-0.8-0.6-1.4-1.4-1.4h-36.8
	c-0.8,0-1.4,0.6-1.4,1.4V324.4z"/>
<path class="st0" d="M329.4,324.4c0,0.8,0.6,1.4,1.4,1.4h36.8c0.8,0,1.4-0.6,1.4-1.4v-36.9c0-0.8-0.6-1.4-1.4-1.4h-36.9
	c-0.8,0-1.4,0.6-1.4,1.4L329.4,324.4L329.4,324.4z"/>
<path class="st0" d="M275.4,324.4c0,0.8,0.6,1.4,1.4,1.4h36.8c0.8,0,1.4-0.6,1.4-1.4v-36.9c0-0.8-0.6-1.4-1.4-1.4h-36.9
	c-0.8,0-1.4,0.6-1.4,1.4L275.4,324.4L275.4,324.4z"/>
<path class="st0" d="M221.4,324.4c0,0.8,0.6,1.4,1.4,1.4h36.8c0.8,0,1.4-0.6,1.4-1.4v-36.9c0-0.8-0.6-1.4-1.4-1.4h-36.9
	c-0.8,0-1.4,0.6-1.4,1.4L221.4,324.4L221.4,324.4z"/>
<g id="LWPOLYLINE_00000126319399459901510200000017595916025959276458_">
	<path class="st0" d="M423.9,324.4c0,0.8,0.6,1.4,1.4,1.4h36.9c0.8,0,1.4-0.6,1.4-1.4v-36.9c0-0.8-0.6-1.4-1.4-1.4h-36.9
		c-0.8,0-1.4,0.6-1.4,1.4V324.4z"/>
</g>
<g id="LWPOLYLINE_00000063600770134052085470000009162292581196520627_">
	<path class="st0" d="M477.9,324.4c0,0.8,0.6,1.4,1.4,1.4h36.9c0.8,0,1.4-0.6,1.4-1.4v-36.9c0-0.8-0.6-1.4-1.4-1.4h-36.9
		c-0.8,0-1.4,0.6-1.4,1.4V324.4z"/>
</g>
<g id="LWPOLYLINE_00000085938112672232542730000016321285633222726570_">
	<path class="st0" d="M531.9,324.4c0,0.8,0.6,1.4,1.4,1.4h36.9c0.8,0,1.4-0.6,1.4-1.4v-36.9c0-0.8-0.6-1.4-1.4-1.4h-36.9
		c-0.8,0-1.4,0.6-1.4,1.4V324.4z"/>
</g>
<g id="LWPOLYLINE_00000178192961804627475820000011385382596222065581_">
	<path class="st0" d="M693.9,324.4c0,0.8,0.6,1.4,1.4,1.4h36.8c0.8,0,1.4-0.6,1.4-1.4v-36.9c0-0.8-0.6-1.4-1.4-1.4h-36.8
		c-0.8,0-1.4,0.6-1.4,1.4V324.4z"/>
</g>
<g id="LWPOLYLINE_00000152257859462181200770000002197319709413338779_">
	<path class="st0" d="M639.9,324.4c0,0.8,0.6,1.4,1.4,1.4h36.8c0.8,0,1.4-0.6,1.4-1.4v-36.9c0-0.8-0.6-1.4-1.4-1.4h-36.8
		c-0.8,0-1.4,0.6-1.4,1.4V324.4z"/>
</g>
<g id="LWPOLYLINE_00000127043022492671322490000008026340220765445524_">
	<path class="st0" d="M585.9,324.4c0,0.8,0.6,1.4,1.4,1.4h36.8c0.8,0,1.4-0.6,1.4-1.4v-36.9c0-0.8-0.6-1.4-1.4-1.4h-36.9
		c-0.8,0-1.4,0.6-1.4,1.4L585.9,324.4L585.9,324.4z"/>
</g>
<path class="st0" d="M72.9,378.4c0,0.8,0.6,1.4,1.4,1.4h36.8c0.8,0,1.4-0.6,1.4-1.4v-36.9c0-0.8-0.6-1.4-1.4-1.4H74.3
	c-0.8,0-1.4,0.6-1.4,1.4V378.4z"/>
<path class="st0" d="M140.4,378.4c0,0.8,0.6,1.4,1.4,1.4h36.8c0.8,0,1.4-0.6,1.4-1.4v-36.9c0-0.8-0.6-1.4-1.4-1.4h-36.8
	c-0.8,0-1.4,0.6-1.4,1.4C140.4,341.6,140.4,378.4,140.4,378.4z"/>
<path class="st0" d="M194.4,378.4c0,0.8,0.6,1.4,1.4,1.4h36.8c0.8,0,1.4-0.6,1.4-1.4v-36.9c0-0.8-0.6-1.4-1.4-1.4h-36.9
	c-0.8,0-1.4,0.6-1.4,1.4C194.4,341.6,194.4,378.4,194.4,378.4z"/>
<path class="st0" d="M376.7,378.4c0,0.8,0.6,1.4,1.4,1.4h36.9c0.8,0,1.4-0.6,1.4-1.4v-36.9c0-0.8-0.6-1.4-1.4-1.4h-36.9
	c-0.8,0-1.4,0.6-1.4,1.4V378.4z"/>
<path class="st0" d="M302.4,378.4c0,0.8,0.6,1.4,1.4,1.4h36.8c0.8,0,1.4-0.6,1.4-1.4v-36.9c0-0.8-0.6-1.4-1.4-1.4h-36.9
	c-0.8,0-1.4,0.6-1.4,1.4L302.4,378.4L302.4,378.4z"/>
<path class="st0" d="M248.4,378.4c0,0.8,0.6,1.4,1.4,1.4h36.8c0.8,0,1.4-0.6,1.4-1.4v-36.9c0-0.8-0.6-1.4-1.4-1.4h-36.9
	c-0.8,0-1.4,0.6-1.4,1.4L248.4,378.4L248.4,378.4z"/>
<path class="st0" d="M66.2,432.4c0,0.8,0.6,1.4,1.4,1.4h36.8c0.8,0,1.4-0.6,1.4-1.4v-36.9c0-0.8-0.6-1.4-1.4-1.4H67.6
	c-0.8,0-1.4,0.6-1.4,1.4V432.4z"/>
<path class="st0" d="M680.4,378.4c0,0.8,0.6,1.4,1.4,1.4h36.8c0.8,0,1.4-0.6,1.4-1.4v-36.9c0-0.8-0.6-1.4-1.4-1.4h-36.8
	c-0.8,0-1.4,0.6-1.4,1.4V378.4z"/>
<path class="st0" d="M612.9,378.4c0,0.8,0.6,1.4,1.4,1.4h36.8c0.8,0,1.4-0.6,1.4-1.4v-36.9c0-0.8-0.6-1.4-1.4-1.4h-36.8
	c-0.8,0-1.4,0.6-1.4,1.4V378.4z"/>
<path class="st0" d="M450.9,378.4c0,0.8,0.6,1.4,1.4,1.4h36.9c0.8,0,1.4-0.6,1.4-1.4v-36.9c0-0.8-0.6-1.4-1.4-1.4h-36.9
	c-0.8,0-1.4,0.6-1.4,1.4V378.4z"/>
<path class="st0" d="M558.9,378.4c0,0.8,0.6,1.4,1.4,1.4h36.9c0.8,0,1.4-0.6,1.4-1.4v-36.9c0-0.8-0.6-1.4-1.4-1.4h-36.9
	c-0.8,0-1.4,0.6-1.4,1.4V378.4z"/>
<path class="st0" d="M504.9,378.4c0,0.8,0.6,1.4,1.4,1.4h36.9c0.8,0,1.4-0.6,1.4-1.4v-36.9c0-0.8-0.6-1.4-1.4-1.4h-36.9
	c-0.8,0-1.4,0.6-1.4,1.4V378.4z"/>
<path class="st0" d="M133.7,432.4c0,0.8,0.6,1.4,1.4,1.4h36.8c0.8,0,1.4-0.6,1.4-1.4v-36.9c0-0.8-0.6-1.4-1.4-1.4h-36.8
	c-0.8,0-1.4,0.6-1.4,1.4C133.7,395.6,133.7,432.4,133.7,432.4z"/>
<path class="st0" d="M201.2,432.4c0,0.8,0.6,1.4,1.4,1.4h36.8c0.8,0,1.4-0.6,1.4-1.4v-36.9c0-0.8-0.6-1.4-1.4-1.4h-36.9
	c-0.8,0-1.4,0.6-1.4,1.4C201.2,395.6,201.2,432.4,201.2,432.4z"/>
<path class="st0" d="M261.9,432.4c0,0.8,0.6,1.4,1.4,1.4h36.8c0.8,0,1.4-0.6,1.4-1.4v-36.9c0-0.8-0.6-1.4-1.4-1.4h-36.9
	c-0.8,0-1.4,0.6-1.4,1.4L261.9,432.4L261.9,432.4z"/>
<path class="st0" d="M491.4,432.4c0,0.8,0.6,1.4,1.4,1.4h36.9c0.8,0,1.4-0.6,1.4-1.4v-36.9c0-0.8-0.6-1.4-1.4-1.4h-36.9
	c-0.8,0-1.4,0.6-1.4,1.4V432.4z"/>
<path class="st0" d="M417.2,432.4c0,0.8,0.6,1.4,1.4,1.4h36.9c0.8,0,1.4-0.6,1.4-1.4v-36.9c0-0.8-0.6-1.4-1.4-1.4h-36.9
	c-0.8,0-1.4,0.6-1.4,1.4V432.4z"/>
<path class="st0" d="M329.4,432.4c0,0.8,0.6,1.4,1.4,1.4h36.8c0.8,0,1.4-0.6,1.4-1.4v-36.9c0-0.8-0.6-1.4-1.4-1.4h-36.9
	c-0.8,0-1.4,0.6-1.4,1.4L329.4,432.4L329.4,432.4z"/>
<path class="st0" d="M552.2,432.4c0,0.8,0.6,1.4,1.4,1.4h36.9c0.8,0,1.4-0.6,1.4-1.4v-36.9c0-0.8-0.6-1.4-1.4-1.4h-36.9
	c-0.8,0-1.4,0.6-1.4,1.4V432.4z"/>
<path class="st0" d="M619.7,432.4c0,0.8,0.6,1.4,1.4,1.4h36.8c0.8,0,1.4-0.6,1.4-1.4v-36.9c0-0.8-0.6-1.4-1.4-1.4h-36.8
	c-0.8,0-1.4,0.6-1.4,1.4V432.4z"/>
<path class="st0" d="M687.2,432.4c0,0.8,0.6,1.4,1.4,1.4h36.8c0.8,0,1.4-0.6,1.4-1.4v-36.9c0-0.8-0.6-1.4-1.4-1.4h-36.8
	c-0.8,0-1.4,0.6-1.4,1.4V432.4z"/>
<path class="st0" d="M68.6,195.9c0,2.7-2.2,5-5,5s-5-2.2-5-5"/>
<path class="st0" d="M58.7,195.9c0-2.7,2.2-5,5-5s5,2.2,5,5"/>
<path class="st0" d="M68.6,211.5c0,2.7-2.2,5-5,5s-5-2.2-5-5"/>
<path class="st0" d="M58.7,211.5c0-2.7,2.2-5,5-5s5,2.2,5,5"/>
<path class="st0" d="M68.6,180.2c0,2.7-2.2,5-5,5s-5-2.2-5-5"/>
<path class="st0" d="M58.7,180.2c0-2.7,2.2-5,5-5s5,2.2,5,5"/>
<path class="st0" d="M411.4,318.6h-29.8c-0.8,0-1.4-0.6-1.4-1.4v-76.3c0-0.8,0.6-1.4,1.4-1.4h29.8c0.8,0,1.4,0.6,1.4,1.4v76.3
	C412.8,317.9,412.2,318.6,411.4,318.6z"/>
<g id="ELLIPSE">
	<path class="st0" d="M410.6,172.2c-0.5-0.5-1.2-0.8-2-0.8"/>
</g>
<g id="LINE_00000023983789195910733590000013829927409277172098_">
	<line class="st0" x1="408.6" y1="171.4" x2="46.9" y2="171.4"/>
</g>
<g id="ELLIPSE_00000083785789157062240260000018278607571387176362_">
	<path class="st0" d="M46.9,171.4c-0.8,0-1.5,0.3-2,0.8"/>
</g>
<g id="ARC">
	<path class="st0" d="M44.9,172.2c-0.5,0.5-0.8,1.2-0.8,2"/>
</g>
<g id="LINE_00000043433078265982049460000011649620993579126941_">
	<line class="st0" x1="44.1" y1="174.2" x2="44.1" y2="193.2"/>
</g>
<g id="ARC_00000066506789297447005200000009439404259087829158_">
	<path class="st0" d="M44.1,193.2c0,0.4,0.3,0.7,0.7,0.7"/>
</g>
<g id="ARC_00000026870903317727894720000005515736114972225671_">
	<path class="st0" d="M44.8,199.9c1.6,0,3-1.2,3.1-2.9c0-1.6-1.2-3-2.9-3.1c0,0-0.1,0-0.2,0"/>
</g>
<g id="ARC_00000174592369506409683260000004235265772223875247_">
	<path class="st0" d="M44.8,199.9c-0.4,0-0.7,0.3-0.7,0.7"/>
</g>
<g id="LINE_00000093151247257133184630000007918192228764576900_">
	<line class="st0" x1="44.1" y1="200.6" x2="44.1" y2="219.7"/>
</g>
<g id="ARC_00000082363724081736430660000011597388202124527253_">
	<path class="st0" d="M44.1,219.7c0,0.8,0.3,1.5,0.8,2"/>
</g>
<g id="ELLIPSE_00000131352971468318743700000000246390345063377286_">
	<path class="st0" d="M44.9,221.7c0.5,0.5,1.2,0.8,2,0.8"/>
</g>
<g id="ARC_00000080164980292512998490000007804187894313361289_">
	<path class="st0" d="M50.9,224.2c-1.1-1.1-2.5-1.7-4-1.7"/>
</g>
<g id="ELLIPSE_00000016769832146964694630000015225666844824949423_">
	<path class="st0" d="M52.6,228.2c0-1.5-0.6-3-1.7-4"/>
</g>
<g id="LINE_00000173134293392023280630000002941451905265385366_">
	<line class="st0" x1="52.6" y1="228.2" x2="52.6" y2="383.8"/>
</g>
<g id="ELLIPSE_00000128464549333315503290000003256984054645038001_">
	<path class="st0" d="M50.9,387.8c1.1-1.1,1.7-2.5,1.7-4"/>
</g>
<g id="ARC_00000172406938730449749020000016302722568695098556_">
	<path class="st0" d="M46.9,389.5c1.5,0,3-0.6,4-1.7"/>
</g>
<g id="ELLIPSE_00000142862460056126498840000000622435320334695334_">
	<path class="st0" d="M46.9,389.5c-0.8,0-1.5,0.3-2,0.8"/>
</g>
<g id="ELLIPSE_00000081614684344184347360000010027367285872828040_">
	<path class="st0" d="M44.9,390.3c-0.5,0.5-0.8,1.2-0.8,2"/>
</g>
<g id="LINE_00000093140392733273948210000012995801953440961951_">
	<line class="st0" x1="44.1" y1="392.3" x2="44.1" y2="411.4"/>
</g>
<g id="ARC_00000064329773257143906520000015075200936474697129_">
	<path class="st0" d="M44.1,411.4c0,0.4,0.3,0.7,0.7,0.7l0,0"/>
</g>
<g id="ARC_00000158004131156284066750000005053179604737227671_">
	<path class="st0" d="M44.8,418c1.6,0,3-1.3,3-3s-1.3-3-3-3l0,0"/>
</g>
<g id="ARC_00000140007121879491788780000007922182312706465190_">
	<path class="st0" d="M44.8,418c-0.4,0-0.7,0.3-0.7,0.7"/>
</g>
<g id="LINE_00000160184014197473509590000016626614685264748223_">
	<line class="st0" x1="44.1" y1="418.8" x2="44.1" y2="437.8"/>
</g>
<g id="ELLIPSE_00000168074644602272173940000013653725900772992444_">
	<path class="st0" d="M44.1,437.8c0,0.8,0.3,1.5,0.8,2"/>
</g>
<g id="ELLIPSE_00000111889598370018893380000009134294307227817895_">
	<path class="st0" d="M44.9,439.8c0.5,0.5,1.2,0.8,2,0.8"/>
</g>
<g id="LINE_00000134948201010096373290000017937319718736232359_">
	<line class="st0" x1="46.9" y1="440.7" x2="746.1" y2="440.7"/>
</g>
<g id="ELLIPSE_00000176741551007877176660000009451128513401573051_">
	<path class="st0" d="M746.1,440.7c0.8,0,1.5-0.3,2-0.8"/>
</g>
<g id="ARC_00000131362424469784306590000014165275869091752322_">
	<path class="st0" d="M748.1,439.8c0.5-0.5,0.8-1.2,0.8-2"/>
</g>
<g id="LINE_00000016780338846356808540000013138311010292904596_">
	<line class="st0" x1="748.9" y1="437.8" x2="748.9" y2="418.8"/>
</g>
<g id="ARC_00000112594371986493648390000005176243698750471575_">
	<path class="st0" d="M748.9,418.8c0-0.4-0.3-0.7-0.7-0.7l0,0"/>
</g>
<g id="ARC_00000008114281576875479260000009255973458677268896_">
	<path class="st0" d="M748.2,412.1c-1.6,0-3,1.3-3,3s1.3,3,3,3l0,0"/>
</g>
<g id="ARC_00000172428465991484909750000009355557524694034358_">
	<path class="st0" d="M748.2,412.1c0.4,0,0.7-0.3,0.7-0.7"/>
</g>
<g id="LINE_00000105419799979159802190000009366011628222446224_">
	<line class="st0" x1="748.9" y1="411.4" x2="748.9" y2="392.3"/>
</g>
<g id="ARC_00000170248466766741208220000002469714909863608506_">
	<path class="st0" d="M748.9,392.3c0-0.8-0.3-1.5-0.8-2"/>
</g>
<g id="ELLIPSE_00000157299266498899320940000014438177447955823775_">
	<path class="st0" d="M748.1,390.3c-0.5-0.5-1.2-0.8-2-0.8"/>
</g>
<g id="ARC_00000123434968234537063410000003562744250018651042_">
	<path class="st0" d="M742.1,387.8c1.1,1.1,2.5,1.7,4,1.7"/>
</g>
<g id="ELLIPSE_00000067916739079941413960000006278212706274207154_">
	<path class="st0" d="M740.4,383.8c0,1.5,0.6,3,1.7,4"/>
</g>
<g id="LINE_00000178198694159081195730000008343549425220591291_">
	<line class="st0" x1="740.4" y1="383.8" x2="740.4" y2="282.2"/>
</g>
<g id="ELLIPSE_00000063599944378887390810000005804561909697780900_">
	<path class="st0" d="M742.1,278.2c-1.1,1.1-1.7,2.5-1.7,4"/>
</g>
<g id="ARC_00000078018410215514718560000008129944350910014375_">
	<path class="st0" d="M746.1,276.5c-1.5,0-3,0.6-4,1.7"/>
</g>
<g id="ELLIPSE_00000002348017529759534810000013843341982706510734_">
	<path class="st0" d="M746.1,276.5c0.8,0,1.5-0.3,2-0.8"/>
</g>
<g id="ARC_00000103984824822878466990000012516072091911739578_">
	<path class="st0" d="M748.1,275.7c0.5-0.5,0.8-1.2,0.8-2"/>
</g>
<g id="LINE_00000157304293867424486770000014155701799778039941_">
	<line class="st0" x1="748.9" y1="273.7" x2="748.9" y2="272.8"/>
</g>
<g id="LINE_00000161595728692702212310000008983943315587706764_">
	<line class="st0" x1="748.9" y1="272.8" x2="748.9" y2="254.7"/>
</g>
<g id="SPLINE_00000138574422813756039160000006622363343902370693_">
	<path class="st0" d="M748.9,254.7c0-0.2-0.1-0.4-0.2-0.5s-0.3-0.2-0.5-0.2"/>
</g>
<g id="ARC_00000016770936309176828900000008222951475121259672_">
	<path class="st0" d="M748.2,248c-1.7,0-3,1.3-3,3s1.3,3,3,3"/>
</g>
<g id="SPLINE_00000112622718226787286290000001862573850258992032_">
	<path class="st0" d="M748.2,248c0.2,0,0.4-0.1,0.5-0.2c0.1-0.1,0.2-0.3,0.2-0.5"/>
</g>
<g id="LINE_00000023986478305923487880000009639894855710754952_">
	<line class="st0" x1="748.9" y1="247.3" x2="748.9" y2="228.2"/>
</g>
<g id="ELLIPSE_00000173873245504607261980000004227796027346741669_">
	<path class="st0" d="M748.9,228.2c0-0.8-0.3-1.5-0.8-2"/>
</g>
<g id="ELLIPSE_00000139286289027894820500000006743584438565114022_">
	<path class="st0" d="M748.1,226.2c-0.5-0.5-1.2-0.8-2-0.8"/>
</g>
<g id="LINE_00000109728757522625854610000001062375869074266759_">
	<line class="st0" x1="746.1" y1="225.4" x2="417.1" y2="225.4"/>
</g>
<g id="ARC_00000109012433940436589680000014673264816234876606_">
	<path class="st0" d="M413.1,223.7c1.1,1.1,2.5,1.7,4,1.7"/>
</g>
<g id="ELLIPSE_00000069382867353979599570000015326078287196762534_">
	<path class="st0" d="M411.4,219.7c0,1.5,0.6,3,1.7,4"/>
</g>
<g id="LINE_00000000186392423488704820000008574644166601274754_">
	<line class="st0" x1="411.4" y1="219.7" x2="411.4" y2="200.6"/>
</g>
<g id="ARC_00000172425385368828045810000010595005158116981905_">
	<path class="st0" d="M411.4,200.6c0-0.4-0.3-0.7-0.7-0.7"/>
</g>
<g id="ARC_00000047033512440095611010000016232097143315343783_">
	<path class="st0" d="M410.7,194c-1.6,0-3,1.3-3,3s1.3,3,3,3"/>
</g>
<g id="ARC_00000108309980393749913670000006163414152143986056_">
	<path class="st0" d="M410.7,194c0.4,0,0.7-0.3,0.7-0.7"/>
</g>
<g id="LINE_00000131356299913096433410000001394229299111791542_">
	<line class="st0" x1="411.4" y1="193.2" x2="411.4" y2="174.2"/>
</g>
<g id="ELLIPSE_00000026873419160356883790000008962738324270123665_">
	<path class="st0" d="M411.4,174.2c0-0.8-0.3-1.5-0.8-2"/>
</g>
</svg>
