  0
SECTION
  2
HEADER
  9
$ACADVER
  1
AC1032
  9
$ACADMAINTVER
 90
      228
  9
$DWGCODEPAGE
  3
ANSI_949
  9
$REQUIREDVERSIONS
160
                 0
  9
$INSBASE
 10
0.0
 20
0.0
 30
0.0
  9
$EXTMIN
 10
1.000000000000000E+20
 20
1.000000000000000E+20
 30
1.000000000000000E+20
  9
$EXTMAX
 10
-1.000000000000000E+20
 20
-1.000000000000000E+20
 30
-1.000000000000000E+20
  9
$LIMMIN
 10
0.0
 20
0.0
  9
$LIMMAX
 10
12.0
 20
9.0
  9
$ORTHOMODE
 70
     0
  9
$REGENMODE
 70
     1
  9
$FILLMODE
 70
     1
  9
$QTEXTMODE
 70
     0
  9
$MIRRTEXT
 70
     0
  9
$LTSCALE
 40
1.0
  9
$ATTMODE
 70
     1
  9
$TEXTSIZE
 40
0.2
  9
$TRACEWID
 40
0.05
  9
$TEXTSTYLE
  7
Standard
  9
$CLAYER
  8
0
  9
$CELTYPE
  6
ByLayer
  9
$CECOLOR
 62
   256
  9
$CELTSCALE
 40
1.0
  9
$DISPSILH
 70
     0
  9
$DIMSCALE
 40
1.0
  9
$DIMASZ
 40
0.18
  9
$DIMEXO
 40
0.0625
  9
$DIMDLI
 40
0.38
  9
$DIMRND
 40
0.0
  9
$DIMDLE
 40
0.0
  9
$DIMEXE
 40
0.18
  9
$DIMTP
 40
0.0
  9
$DIMTM
 40
0.0
  9
$DIMTXT
 40
0.18
  9
$DIMCEN
 40
0.09
  9
$DIMTSZ
 40
0.0
  9
$DIMTOL
 70
     0
  9
$DIMLIM
 70
     0
  9
$DIMTIH
 70
     1
  9
$DIMTOH
 70
     1
  9
$DIMSE1
 70
     0
  9
$DIMSE2
 70
     0
  9
$DIMTAD
 70
     0
  9
$DIMZIN
 70
     0
  9
$DIMBLK
  1

  9
$DIMASO
 70
     1
  9
$DIMSHO
 70
     1
  9
$DIMPOST
  1

  9
$DIMAPOST
  1

  9
$DIMALT
 70
     0
  9
$DIMALTD
 70
     2
  9
$DIMALTF
 40
25.4
  9
$DIMLFAC
 40
1.0
  9
$DIMTOFL
 70
     0
  9
$DIMTVP
 40
0.0
  9
$DIMTIX
 70
     0
  9
$DIMSOXD
 70
     0
  9
$DIMSAH
 70
     0
  9
$DIMBLK1
  1

  9
$DIMBLK2
  1

  9
$DIMSTYLE
  2
Standard
  9
$DIMCLRD
 70
     0
  9
$DIMCLRE
 70
     0
  9
$DIMCLRT
 70
     0
  9
$DIMTFAC
 40
1.0
  9
$DIMGAP
 40
0.09
  9
$DIMJUST
 70
     0
  9
$DIMSD1
 70
     0
  9
$DIMSD2
 70
     0
  9
$DIMTOLJ
 70
     1
  9
$DIMTZIN
 70
     0
  9
$DIMALTZ
 70
     0
  9
$DIMALTTZ
 70
     0
  9
$DIMUPT
 70
     0
  9
$DIMDEC
 70
     4
  9
$DIMTDEC
 70
     4
  9
$DIMALTU
 70
     2
  9
$DIMALTTD
 70
     2
  9
$DIMTXSTY
  7
Standard
  9
$DIMAUNIT
 70
     0
  9
$DIMADEC
 70
     0
  9
$DIMALTRND
 40
0.0
  9
$DIMAZIN
 70
     0
  9
$DIMDSEP
 70
    46
  9
$DIMATFIT
 70
     3
  9
$DIMFRAC
 70
     0
  9
$DIMLDRBLK
  1

  9
$DIMLUNIT
 70
     2
  9
$DIMLWD
 70
    -2
  9
$DIMLWE
 70
    -2
  9
$DIMTMOVE
 70
     0
  9
$DIMFXL
 40
1.0
  9
$DIMFXLON
 70
     0
  9
$DIMJOGANG
 40
0.7853981633974483
  9
$DIMTFILL
 70
     0
  9
$DIMTFILLCLR
 70
     0
  9
$DIMARCSYM
 70
     0
  9
$DIMLTYPE
  6

  9
$DIMLTEX1
  6

  9
$DIMLTEX2
  6

  9
$DIMTXTDIRECTION
 70
     0
  9
$LUNITS
 70
     2
  9
$LUPREC
 70
     4
  9
$SKETCHINC
 40
0.1
  9
$FILLETRAD
 40
0.0
  9
$AUNITS
 70
     0
  9
$AUPREC
 70
     0
  9
$MENU
  1
.
  9
$ELEVATION
 40
0.0
  9
$PELEVATION
 40
0.0
  9
$THICKNESS
 40
0.0
  9
$LIMCHECK
 70
     0
  9
$CHAMFERA
 40
0.0
  9
$CHAMFERB
 40
0.0
  9
$CHAMFERC
 40
0.0
  9
$CHAMFERD
 40
0.0
  9
$SKPOLY
 70
     0
  9
$TDCREATE
 40
2459949.705960648
  9
$TDUCREATE
 40
2459949.914293982
  9
$TDUPDATE
 40
2459949.705960648
  9
$TDUUPDATE
 40
2459949.914293982
  9
$TDINDWG
 40
0.0000115741
  9
$TDUSRTIMER
 40
0.0000115741
  9
$USRTIMER
 70
     1
  9
$ANGBASE
 50
0.0
  9
$ANGDIR
 70
     0
  9
$PDMODE
 70
     0
  9
$PDSIZE
 40
0.0
  9
$PLINEWID
 40
0.0
  9
$SPLFRAME
 70
     0
  9
$SPLINETYPE
 70
     6
  9
$SPLINESEGS
 70
     8
  9
$HANDSEED
  5
F7
  9
$SURFTAB1
 70
     6
  9
$SURFTAB2
 70
     6
  9
$SURFTYPE
 70
     6
  9
$SURFU
 70
     6
  9
$SURFV
 70
     6
  9
$UCSBASE
  2

  9
$UCSNAME
  2

  9
$UCSORG
 10
0.0
 20
0.0
 30
0.0
  9
$UCSXDIR
 10
1.0
 20
0.0
 30
0.0
  9
$UCSYDIR
 10
0.0
 20
1.0
 30
0.0
  9
$UCSORTHOREF
  2

  9
$UCSORTHOVIEW
 70
     0
  9
$UCSORGTOP
 10
0.0
 20
0.0
 30
0.0
  9
$UCSORGBOTTOM
 10
0.0
 20
0.0
 30
0.0
  9
$UCSORGLEFT
 10
0.0
 20
0.0
 30
0.0
  9
$UCSORGRIGHT
 10
0.0
 20
0.0
 30
0.0
  9
$UCSORGFRONT
 10
0.0
 20
0.0
 30
0.0
  9
$UCSORGBACK
 10
0.0
 20
0.0
 30
0.0
  9
$PUCSBASE
  2

  9
$PUCSNAME
  2

  9
$PUCSORG
 10
0.0
 20
0.0
 30
0.0
  9
$PUCSXDIR
 10
1.0
 20
0.0
 30
0.0
  9
$PUCSYDIR
 10
0.0
 20
1.0
 30
0.0
  9
$PUCSORTHOREF
  2

  9
$PUCSORTHOVIEW
 70
     0
  9
$PUCSORGTOP
 10
0.0
 20
0.0
 30
0.0
  9
$PUCSORGBOTTOM
 10
0.0
 20
0.0
 30
0.0
  9
$PUCSORGLEFT
 10
0.0
 20
0.0
 30
0.0
  9
$PUCSORGRIGHT
 10
0.0
 20
0.0
 30
0.0
  9
$PUCSORGFRONT
 10
0.0
 20
0.0
 30
0.0
  9
$PUCSORGBACK
 10
0.0
 20
0.0
 30
0.0
  9
$USERI1
 70
     0
  9
$USERI2
 70
     0
  9
$USERI3
 70
     0
  9
$USERI4
 70
     0
  9
$USERI5
 70
     0
  9
$USERR1
 40
0.0
  9
$USERR2
 40
0.0
  9
$USERR3
 40
0.0
  9
$USERR4
 40
0.0
  9
$USERR5
 40
0.0
  9
$WORLDVIEW
 70
     1
  9
$SHADEDGE
 70
     3
  9
$SHADEDIF
 70
    70
  9
$TILEMODE
 70
     1
  9
$MAXACTVP
 70
    64
  9
$PINSBASE
 10
0.0
 20
0.0
 30
0.0
  9
$PLIMCHECK
 70
     0
  9
$PEXTMIN
 10
1.000000000000000E+20
 20
1.000000000000000E+20
 30
1.000000000000000E+20
  9
$PEXTMAX
 10
-1.000000000000000E+20
 20
-1.000000000000000E+20
 30
-1.000000000000000E+20
  9
$PLIMMIN
 10
0.0
 20
0.0
  9
$PLIMMAX
 10
12.0
 20
9.0
  9
$UNITMODE
 70
     0
  9
$VISRETAIN
 70
     1
  9
$PLINEGEN
 70
     0
  9
$PSLTSCALE
 70
     1
  9
$TREEDEPTH
 70
  3020
  9
$CMLSTYLE
  2
Standard
  9
$CMLJUST
 70
     0
  9
$CMLSCALE
 40
1.0
  9
$PROXYGRAPHICS
 70
     1
  9
$MEASUREMENT
 70
     0
  9
$CELWEIGHT
370
    -1
  9
$ENDCAPS
280
     0
  9
$JOINSTYLE
280
     0
  9
$LWDISPLAY
290
     1
  9
$INSUNITS
 70
     4
  9
$HYPERLINKBASE
  1

  9
$STYLESHEET
  1

  9
$XEDIT
290
     1
  9
$CEPSNTYPE
380
     0
  9
$PSTYLEMODE
290
     1
  9
$FINGERPRINTGUID
  2
{7A424AE5-697E-1C41-97AD-62246A77F2F6}
  9
$VERSIONGUID
  2
{98AB43C7-1886-DE4D-AF7A-E7FBC9BACBAB}
  9
$EXTNAMES
290
     1
  9
$PSVPSCALE
 40
0.0
  9
$OLESTARTUP
290
     0
  9
$SORTENTS
280
   127
  9
$INDEXCTL
280
     0
  9
$HIDETEXT
280
     1
  9
$XCLIPFRAME
280
     2
  9
$HALOGAP
280
     0
  9
$OBSCOLOR
 70
   257
  9
$OBSLTYPE
280
     0
  9
$INTERSECTIONDISPLAY
280
     0
  9
$INTERSECTIONCOLOR
 70
   257
  9
$DIMASSOC
280
     2
  9
$PROJECTNAME
  1

  9
$CAMERADISPLAY
290
     0
  9
$LENSLENGTH
 40
50.0
  9
$CAMERAHEIGHT
 40
0.0
  9
$STEPSPERSEC
 40
2.0
  9
$STEPSIZE
 40
6.0
  9
$3DDWFPREC
 40
2.0
  9
$PSOLWIDTH
 40
0.25
  9
$PSOLHEIGHT
 40
4.0
  9
$LOFTANG1
 40
1.570796326794896
  9
$LOFTANG2
 40
1.570796326794896
  9
$LOFTMAG1
 40
0.0
  9
$LOFTMAG2
 40
0.0
  9
$LOFTPARAM
 70
     7
  9
$LOFTNORMALS
280
     1
  9
$LATITUDE
 40
37.795
  9
$LONGITUDE
 40
-122.394
  9
$NORTHDIRECTION
 40
0.0
  9
$TIMEZONE
 70
 -8000
  9
$LIGHTGLYPHDISPLAY
280
     1
  9
$TILEMODELIGHTSYNCH
280
     1
  9
$CMATERIAL
347
11
  9
$SOLIDHIST
280
     0
  9
$SHOWHIST
280
     1
  9
$DWFFRAME
280
     2
  9
$DGNFRAME
280
     0
  9
$REALWORLDSCALE
290
     1
  9
$INTERFERECOLOR
 62
     1
  9
$INTERFEREOBJVS
345
33
  9
$INTERFEREVPVS
346
30
  9
$CSHADOW
280
     0
  9
$SHADOWPLANELOCATION
 40
0.0
  0
ENDSEC
  0
SECTION
  2
CLASSES
  0
CLASS
  1
ACDBDICTIONARYWDFLT
  2
AcDbDictionaryWithDefault
  3
ObjectDBX Classes
 90
        0
 91
        1
280
     0
281
     0
  0
CLASS
  1
MATERIAL
  2
AcDbMaterial
  3
ObjectDBX Classes
 90
     1153
 91
        3
280
     0
281
     0
  0
CLASS
  1
VISUALSTYLE
  2
AcDbVisualStyle
  3
ObjectDBX Classes
 90
     4095
 91
       24
280
     0
281
     0
  0
CLASS
  1
SCALE
  2
AcDbScale
  3
ObjectDBX Classes
 90
     1153
 91
       17
280
     0
281
     0
  0
CLASS
  1
TABLESTYLE
  2
AcDbTableStyle
  3
ObjectDBX Classes
 90
     4095
 91
        1
280
     0
281
     0
  0
CLASS
  1
MLEADERSTYLE
  2
AcDbMLeaderStyle
  3
ACDB_MLEADERSTYLE_CLASS
 90
     4095
 91
        1
280
     0
281
     0
  0
CLASS
  1
ACDBSECTIONVIEWSTYLE
  2
AcDbSectionViewStyle
  3
ObjectDBX Classes
 90
     1025
 91
        1
280
     0
281
     0
  0
CLASS
  1
ACDBDETAILVIEWSTYLE
  2
AcDbDetailViewStyle
  3
ObjectDBX Classes
 90
     1025
 91
        1
280
     0
281
     0
  0
CLASS
  1
DICTIONARYVAR
  2
AcDbDictionaryVar
  3
ObjectDBX Classes
 90
        0
 91
        5
280
     0
281
     0
  0
CLASS
  1
CELLSTYLEMAP
  2
AcDbCellStyleMap
  3
ObjectDBX Classes
 90
     1152
 91
        1
280
     0
281
     0
  0
ENDSEC
  0
SECTION
  2
TABLES
  0
TABLE
  2
VPORT
  5
8
330
0
100
AcDbSymbolTable
 70
     1
  0
VPORT
  5
57
330
8
100
AcDbSymbolTableRecord
100
AcDbViewportTableRecord
  2
*Active
 70
     0
 10
0.0
 20
0.0
 11
1.0
 21
1.0
 12
0.0
 22
0.0
 13
0.0
 23
0.0
 14
1.0
 24
1.0
 15
0.0
 25
0.0
 16
0.0
 26
0.0
 36
1.0
 17
139.699999965075
 27
107.9499999730125
 37
0.0
 40
220.2179999449455
 41
1.294117647058823
 42
50.0
 43
0.0
 44
0.0
 50
0.0
 51
0.0
 71
     0
 72
   100
 73
     1
 74
     1
 75
     0
 76
     0
 77
     0
 78
     0
281
     0
 65
     1
110
0.0
120
0.0
130
0.0
111
1.0
121
0.0
131
0.0
112
0.0
122
1.0
132
0.0
 79
     0
146
0.0
 60
     3
 61
     5
292
     1
282
     1
141
0.0
142
0.0
 63
   250
421
  3355443
  0
ENDTAB
  0
TABLE
  2
LTYPE
  5
5
330
0
100
AcDbSymbolTable
 70
     1
  0
LTYPE
  5
5B
330
5
100
AcDbSymbolTableRecord
100
AcDbLinetypeTableRecord
  2
ByBlock
 70
     0
  3

 72
    65
 73
     0
 40
0.0
  0
LTYPE
  5
5C
330
5
100
AcDbSymbolTableRecord
100
AcDbLinetypeTableRecord
  2
ByLayer
 70
     0
  3

 72
    65
 73
     0
 40
0.0
  0
LTYPE
  5
5D
330
5
100
AcDbSymbolTableRecord
100
AcDbLinetypeTableRecord
  2
Continuous
 70
     0
  3
Solid line
 72
    65
 73
     0
 40
0.0
  0
ENDTAB
  0
TABLE
  2
LAYER
  5
2
330
0
100
AcDbSymbolTable
 70
     2
  0
LAYER
  5
54
330
2
100
AcDbSymbolTableRecord
100
AcDbLayerTableRecord
  2
0
 70
     0
 62
     7
  6
Continuous
370
    -3
390
F
347
21
348
0
  0
LAYER
  5
78
330
2
100
AcDbSymbolTableRecord
100
AcDbLayerTableRecord
  2
Layer 1
 70
     0
 62
     7
  6
Continuous
370
     0
390
F
347
21
348
0
  0
ENDTAB
  0
TABLE
  2
STYLE
  5
3
330
0
100
AcDbSymbolTable
 70
     2
  0
STYLE
  5
55
330
3
100
AcDbSymbolTableRecord
100
AcDbTextStyleTableRecord
  2
Standard
 70
     0
 40
0.0
 41
1.0
 50
0.0
 71
     0
 42
0.2
  3
txt
  4

  0
STYLE
  5
5A
330
3
100
AcDbSymbolTableRecord
100
AcDbTextStyleTableRecord
  2
Annotative
 70
     0
 40
0.0
 41
1.0
 50
0.0
 71
     0
 42
0.2
  3
txt
  4

1001
AcadAnnotative
1000
AnnotativeData
1002
{
1070
     1
1070
     1
1002
}
  0
ENDTAB
  0
TABLE
  2
VIEW
  5
6
330
0
100
AcDbSymbolTable
 70
     0
  0
ENDTAB
  0
TABLE
  2
UCS
  5
7
330
0
100
AcDbSymbolTable
 70
     0
  0
ENDTAB
  0
TABLE
  2
APPID
  5
9
330
0
100
AcDbSymbolTable
 70
     2
  0
APPID
  5
56
330
9
100
AcDbSymbolTableRecord
100
AcDbRegAppTableRecord
  2
ACAD
 70
     0
  0
APPID
  5
5E
330
9
100
AcDbSymbolTableRecord
100
AcDbRegAppTableRecord
  2
AcadAnnotative
 70
     0
  0
ENDTAB
  0
TABLE
  2
DIMSTYLE
  5
A
330
0
100
AcDbSymbolTable
 70
     2
100
AcDbDimStyleTable
 71
     0
  0
DIMSTYLE
105
58
330
A
100
AcDbSymbolTableRecord
100
AcDbDimStyleTableRecord
  2
Standard
 70
     0
340
55
  0
DIMSTYLE
105
59
330
A
100
AcDbSymbolTableRecord
100
AcDbDimStyleTableRecord
  2
Annotative
 70
     0
340
55
1001
AcadAnnotative
1000
AnnotativeData
1002
{
1070
     1
1070
     1
1002
}
  0
ENDTAB
  0
TABLE
  2
BLOCK_RECORD
  5
1
330
0
100
AcDbSymbolTable
 70
     1
  0
BLOCK_RECORD
  5
70
330
1
100
AcDbSymbolTableRecord
100
AcDbBlockTableRecord
  2
*Model_Space
340
73
 70
     0
280
     1
281
     0
  0
BLOCK_RECORD
  5
6C
330
1
100
AcDbSymbolTableRecord
100
AcDbBlockTableRecord
  2
*Paper_Space
340
6F
 70
     0
280
     1
281
     0
  0
BLOCK_RECORD
  5
74
330
1
100
AcDbSymbolTableRecord
100
AcDbBlockTableRecord
  2
*Paper_Space0
340
77
 70
     0
280
     1
281
     0
  0
ENDTAB
  0
ENDSEC
  0
SECTION
  2
BLOCKS
  0
BLOCK
  5
71
330
70
100
AcDbEntity
  8
0
100
AcDbBlockBegin
  2
*Model_Space
 70
     0
 10
0.0
 20
0.0
 30
0.0
  3
*Model_Space
  1

  0
ENDBLK
  5
72
330
70
100
AcDbEntity
  8
0
100
AcDbBlockEnd
  0
BLOCK
  5
6D
330
6C
100
AcDbEntity
 67
     1
  8
0
100
AcDbBlockBegin
  2
*Paper_Space
 70
     0
 10
0.0
 20
0.0
 30
0.0
  3
*Paper_Space
  1

  0
ENDBLK
  5
6E
330
6C
100
AcDbEntity
 67
     1
  8
0
100
AcDbBlockEnd
  0
BLOCK
  5
75
330
74
100
AcDbEntity
 67
     1
  8
0
100
AcDbBlockBegin
  2
*Paper_Space0
 70
     0
 10
0.0
 20
0.0
 30
0.0
  3
*Paper_Space0
  1

  0
ENDBLK
  5
76
330
74
100
AcDbEntity
 67
     1
  8
0
100
AcDbBlockEnd
  0
ENDSEC
  0
SECTION
  2
ENTITIES
  0
SPLINE
  5
79
330
70
100
AcDbEntity
  8
Layer 1
 62
    18
420
        0
370
    25
100
AcDbSpline
210
0.0
220
0.0
230
1.0
 70
     9
 71
     3
 72
    32
 73
    28
 74
     0
 42
0.0000000001
 43
0.0000000001
 40
0.0
 40
0.0
 40
0.0
 40
0.0
 40
1.0
 40
1.0
 40
1.0
 40
2.0
 40
2.0
 40
2.0
 40
3.0
 40
3.0
 40
3.0
 40
4.0
 40
4.0
 40
4.0
 40
5.0
 40
5.0
 40
5.0
 40
6.0
 40
6.0
 40
6.0
 40
7.0
 40
7.0
 40
7.0
 40
8.0
 40
8.0
 40
8.0
 40
9.0
 40
9.0
 40
9.0
 40
9.0
 10
30.48000053067617
 20
139.5588910071838
 30
0.0
 10
30.48000053067617
 20
139.2766677084398
 30
0.0
 10
30.69166665899375
 20
139.0650042716031
 30
0.0
 10
30.97388995773776
 20
139.0650042716031
 30
0.0
 10
30.97388995773776
 20
139.0650042716031
 30
0.0
 10
43.95611325330675
 20
139.0650042716031
 30
0.0
 10
43.95611325330675
 20
139.0650042716031
 30
0.0
 10
44.23833655205076
 20
139.0650042716031
 30
0.0
 10
44.45000268036834
 20
139.2766730914015
 30
0.0
 10
44.45000268036834
 20
139.5588910071838
 30
0.0
 10
44.45000268036834
 20
139.5588910071838
 30
0.0
 10
44.45000268036834
 20
152.5763888507448
 30
0.0
 10
44.45000268036834
 20
152.5763888507448
 30
0.0
 10
44.45000268036834
 20
152.8586121494888
 30
0.0
 10
44.23833655205076
 20
153.0702755863255
 30
0.0
 10
43.95611325330675
 20
153.0702755863255
 30
0.0
 10
43.95611325330675
 20
153.0702755863255
 30
0.0
 10
30.97388995773776
 20
153.0702755863255
 30
0.0
 10
30.97388995773776
 20
153.0702755863255
 30
0.0
 10
30.69166665899375
 20
153.0702755863255
 30
0.0
 10
30.48000053067617
 20
152.8586067665271
 30
0.0
 10
30.48000053067617
 20
152.5763888507448
 30
0.0
 10
30.48000053067617
 20
152.5763888507448
 30
0.0
 10
30.48000053067617
 20
139.5588910071838
 30
0.0
 10
30.48000053067617
 20
139.5588910071838
 30
0.0
 10
30.48000053067617
 20
139.5588910071838
 30
0.0
 10
30.48000053067617
 20
139.5588910071838
 30
0.0
 10
30.48000053067617
 20
139.5588910071838
 30
0.0
  0
SPLINE
  5
7A
330
70
100
AcDbEntity
  8
Layer 1
 62
    18
420
        0
370
    25
100
AcDbSpline
210
0.0
220
0.0
230
1.0
 70
     9
 71
     3
 72
    32
 73
    28
 74
     0
 42
0.0000000001
 43
0.0000000001
 40
0.0
 40
0.0
 40
0.0
 40
0.0
 40
1.0
 40
1.0
 40
1.0
 40
2.0
 40
2.0
 40
2.0
 40
3.0
 40
3.0
 40
3.0
 40
4.0
 40
4.0
 40
4.0
 40
5.0
 40
5.0
 40
5.0
 40
6.0
 40
6.0
 40
6.0
 40
7.0
 40
7.0
 40
7.0
 40
8.0
 40
8.0
 40
8.0
 40
9.0
 40
9.0
 40
9.0
 40
9.0
 10
49.52999783443282
 20
139.5588910071838
 30
0.0
 10
49.52999783443282
 20
139.2766677084398
 30
0.0
 10
49.74166665423125
 20
139.0650042716031
 30
0.0
 10
50.02388457001356
 20
139.0650042716031
 30
0.0
 10
50.02388457001356
 20
139.0650042716031
 30
0.0
 10
63.00610786558257
 20
139.0650042716031
 30
0.0
 10
63.00610786558257
 20
139.0650042716031
 30
0.0
 10
63.28833116432657
 20
139.0650042716031
 30
0.0
 10
63.49999460116331
 20
139.2766730914015
 30
0.0
 10
63.49999460116331
 20
139.5588910071838
 30
0.0
 10
63.49999460116331
 20
139.5588910071838
 30
0.0
 10
63.49999460116331
 20
152.5763888507448
 30
0.0
 10
63.49999460116331
 20
152.5763888507448
 30
0.0
 10
63.49999460116331
 20
152.8586121494888
 30
0.0
 10
63.28832578136488
 20
153.0702755863255
 30
0.0
 10
63.00610786558257
 20
153.0702755863255
 30
0.0
 10
63.00610786558257
 20
153.0702755863255
 30
0.0
 10
49.98860463905993
 20
153.0702755863255
 30
0.0
 10
49.98860463905993
 20
153.0702755863255
 30
0.0
 10
49.70638134031592
 20
153.0702755863255
 30
0.0
 10
49.49471790347918
 20
152.8586067665271
 30
0.0
 10
49.49471790347918
 20
152.5763888507448
 30
0.0
 10
49.49471790347918
 20
152.5763888507448
 30
0.0
 10
49.52999783443282
 20
139.5588910071838
 30
0.0
 10
49.52999783443282
 20
139.5588910071838
 30
0.0
 10
49.52999783443282
 20
139.5588910071838
 30
0.0
 10
49.52999783443282
 20
139.5588910071838
 30
0.0
 10
49.52999783443282
 20
139.5588910071838
 30
0.0
  0
SPLINE
  5
7B
330
70
100
AcDbEntity
  8
Layer 1
 62
    18
420
        0
370
    25
100
AcDbSpline
210
0.0
220
0.0
230
1.0
 70
     9
 71
     3
 72
    29
 73
    25
 74
     0
 42
0.0000000001
 43
0.0000000001
 40
0.0
 40
0.0
 40
0.0
 40
0.0
 40
1.0
 40
1.0
 40
1.0
 40
2.0
 40
2.0
 40
2.0
 40
3.0
 40
3.0
 40
3.0
 40
4.0
 40
4.0
 40
4.0
 40
5.0
 40
5.0
 40
5.0
 40
6.0
 40
6.0
 40
6.0
 40
7.0
 40
7.0
 40
7.0
 40
8.0
 40
8.0
 40
8.0
 40
8.0
 10
68.57999782967032
 20
139.5588910071838
 30
0.0
 10
68.57999782967032
 20
139.2766677084398
 30
0.0
 10
68.79166664946875
 20
139.0650042716031
 30
0.0
 10
69.07388456525106
 20
139.0650042716031
 30
0.0
 10
69.07388456525106
 20
139.0650042716031
 30
0.0
 10
82.05610786082006
 20
139.0650042716031
 30
0.0
 10
82.05610786082006
 20
139.0650042716031
 30
0.0
 10
82.33833115956407
 20
139.0650042716031
 30
0.0
 10
82.5499945964008
 20
139.2766730914015
 30
0.0
 10
82.5499945964008
 20
139.5588910071838
 30
0.0
 10
82.5499945964008
 20
139.5588910071838
 30
0.0
 10
82.5499945964008
 20
152.5763888507448
 30
0.0
 10
82.5499945964008
 20
152.5763888507448
 30
0.0
 10
82.5499945964008
 20
152.8586121494888
 30
0.0
 10
82.33832577660237
 20
153.0702755863255
 30
0.0
 10
82.05610786082006
 20
153.0702755863255
 30
0.0
 10
82.05610786082006
 20
153.0702755863255
 30
0.0
 10
69.03860463429743
 20
153.0702755863255
 30
0.0
 10
69.03860463429743
 20
153.0702755863255
 30
0.0
 10
68.75638133555343
 20
153.0702755863255
 30
0.0
 10
68.54471789871668
 20
152.8586067665271
 30
0.0
 10
68.54471789871668
 20
152.5763888507448
 30
0.0
 10
68.57999782967032
 20
152.5411089197911
 30
0.0
 10
68.57999782967032
 20
139.5588910071838
 30
0.0
 10
68.57999782967032
 20
139.5588910071838
 30
0.0
  0
SPLINE
  5
7C
330
70
100
AcDbEntity
  8
Layer 1
 62
    18
420
        0
370
    25
100
AcDbSpline
210
0.0
220
0.0
230
1.0
 70
     9
 71
     3
 72
    29
 73
    25
 74
     0
 42
0.0000000001
 43
0.0000000001
 40
0.0
 40
0.0
 40
0.0
 40
0.0
 40
1.0
 40
1.0
 40
1.0
 40
2.0
 40
2.0
 40
2.0
 40
3.0
 40
3.0
 40
3.0
 40
4.0
 40
4.0
 40
4.0
 40
5.0
 40
5.0
 40
5.0
 40
6.0
 40
6.0
 40
6.0
 40
7.0
 40
7.0
 40
7.0
 40
8.0
 40
8.0
 40
8.0
 40
8.0
 10
125.7299978153828
 20
139.5588910071838
 30
0.0
 10
125.7299978153828
 20
139.2766677084398
 30
0.0
 10
125.9416666351812
 20
139.0650042716031
 30
0.0
 10
126.2238845509635
 20
139.0650042716031
 30
0.0
 10
126.2238845509635
 20
139.0650042716031
 30
0.0
 10
139.2413823945245
 20
139.0650042716031
 30
0.0
 10
139.2413823945245
 20
139.0650042716031
 30
0.0
 10
139.5236003103068
 20
139.0650042716031
 30
0.0
 10
139.7352691301052
 20
139.2766730914015
 30
0.0
 10
139.7352691301052
 20
139.5588910071838
 30
0.0
 10
139.7352691301052
 20
139.5588910071838
 30
0.0
 10
139.7352691301052
 20
152.5763888507448
 30
0.0
 10
139.7352691301052
 20
152.5763888507448
 30
0.0
 10
139.7352691301052
 20
152.8586121494888
 30
0.0
 10
139.5236003103068
 20
153.0702755863255
 30
0.0
 10
139.2413823945245
 20
153.0702755863255
 30
0.0
 10
139.2413823945245
 20
153.0702755863255
 30
0.0
 10
126.2238845509635
 20
153.0702755863255
 30
0.0
 10
126.2238845509635
 20
153.0702755863255
 30
0.0
 10
125.9416666351812
 20
153.0702755863255
 30
0.0
 10
125.7299978153828
 20
152.8586067665271
 30
0.0
 10
125.7299978153828
 20
152.5763888507448
 30
0.0
 10
125.7299978153828
 20
152.5763888507448
 30
0.0
 10
125.7299978153828
 20
139.5588910071838
 30
0.0
 10
125.7299978153828
 20
139.5588910071838
 30
0.0
  0
SPLINE
  5
7D
330
70
100
AcDbEntity
  8
Layer 1
 62
    18
420
        0
370
    25
100
AcDbSpline
210
0.0
220
0.0
230
1.0
 70
     9
 71
     3
 72
    32
 73
    28
 74
     0
 42
0.0000000001
 43
0.0000000001
 40
0.0
 40
0.0
 40
0.0
 40
0.0
 40
1.0
 40
1.0
 40
1.0
 40
2.0
 40
2.0
 40
2.0
 40
3.0
 40
3.0
 40
3.0
 40
4.0
 40
4.0
 40
4.0
 40
5.0
 40
5.0
 40
5.0
 40
6.0
 40
6.0
 40
6.0
 40
7.0
 40
7.0
 40
7.0
 40
8.0
 40
8.0
 40
8.0
 40
9.0
 40
9.0
 40
9.0
 40
9.0
 10
106.6799978201453
 20
139.5588910071838
 30
0.0
 10
106.6799978201453
 20
139.2766677084398
 30
0.0
 10
106.8916666399437
 20
139.0650042716031
 30
0.0
 10
107.173884555726
 20
139.0650042716031
 30
0.0
 10
107.173884555726
 20
139.0650042716031
 30
0.0
 10
120.1561024683333
 20
139.0650042716031
 30
0.0
 10
120.1561024683333
 20
139.0650042716031
 30
0.0
 10
120.4383203841157
 20
139.0650042716031
 30
0.0
 10
120.6499892039141
 20
139.2766730914015
 30
0.0
 10
120.6499892039141
 20
139.5588910071838
 30
0.0
 10
120.6499892039141
 20
139.5588910071838
 30
0.0
 10
120.6499892039141
 20
152.5763888507448
 30
0.0
 10
120.6499892039141
 20
152.5763888507448
 30
0.0
 10
120.6499892039141
 20
152.8586121494888
 30
0.0
 10
120.4383203841157
 20
153.0702755863255
 30
0.0
 10
120.1561024683333
 20
153.0702755863255
 30
0.0
 10
120.1561024683333
 20
153.0702755863255
 30
0.0
 10
107.1386046247724
 20
153.0702755863255
 30
0.0
 10
107.1386046247724
 20
153.0702755863255
 30
0.0
 10
106.8563867089901
 20
153.0702755863255
 30
0.0
 10
106.6447178891917
 20
152.8586067665271
 30
0.0
 10
106.6447178891917
 20
152.5763888507448
 30
0.0
 10
106.6447178891917
 20
152.5763888507448
 30
0.0
 10
106.6799978201453
 20
139.5588910071838
 30
0.0
 10
106.6799978201453
 20
139.5588910071838
 30
0.0
 10
106.6799978201453
 20
139.5588910071838
 30
0.0
 10
106.6799978201453
 20
139.5588910071838
 30
0.0
 10
106.6799978201453
 20
139.5588910071838
 30
0.0
  0
SPLINE
  5
7E
330
70
100
AcDbEntity
  8
Layer 1
 62
    18
420
        0
370
    25
100
AcDbSpline
210
0.0
220
0.0
230
1.0
 70
     9
 71
     3
 72
    32
 73
    28
 74
     0
 42
0.0000000001
 43
0.0000000001
 40
0.0
 40
0.0
 40
0.0
 40
0.0
 40
1.0
 40
1.0
 40
1.0
 40
2.0
 40
2.0
 40
2.0
 40
3.0
 40
3.0
 40
3.0
 40
4.0
 40
4.0
 40
4.0
 40
5.0
 40
5.0
 40
5.0
 40
6.0
 40
6.0
 40
6.0
 40
7.0
 40
7.0
 40
7.0
 40
8.0
 40
8.0
 40
8.0
 40
9.0
 40
9.0
 40
9.0
 40
9.0
 10
87.62999782490783
 20
139.5588910071838
 30
0.0
 10
87.62999782490783
 20
139.2766677084398
 30
0.0
 10
87.84166664470625
 20
139.0650042716031
 30
0.0
 10
88.12388456048855
 20
139.0650042716031
 30
0.0
 10
88.12388456048855
 20
139.0650042716031
 30
0.0
 10
101.1061024730959
 20
139.0650042716031
 30
0.0
 10
101.1061024730959
 20
139.0650042716031
 30
0.0
 10
101.3883203888782
 20
139.0650042716031
 30
0.0
 10
101.5999892086766
 20
139.2766730914015
 30
0.0
 10
101.5999892086766
 20
139.5588910071838
 30
0.0
 10
101.5999892086766
 20
139.5588910071838
 30
0.0
 10
101.5999892086766
 20
152.5763888507448
 30
0.0
 10
101.5999892086766
 20
152.5763888507448
 30
0.0
 10
101.5999892086766
 20
152.8586121494888
 30
0.0
 10
101.3883203888782
 20
153.0702755863255
 30
0.0
 10
101.1061024730959
 20
153.0702755863255
 30
0.0
 10
101.1061024730959
 20
153.0702755863255
 30
0.0
 10
88.08860462953493
 20
153.0702755863255
 30
0.0
 10
88.08860462953493
 20
153.0702755863255
 30
0.0
 10
87.80638133079092
 20
153.0702755863255
 30
0.0
 10
87.59471789395417
 20
152.8586067665271
 30
0.0
 10
87.59471789395417
 20
152.5763888507448
 30
0.0
 10
87.59471789395417
 20
152.5763888507448
 30
0.0
 10
87.62999782490783
 20
139.5588910071838
 30
0.0
 10
87.62999782490783
 20
139.5588910071838
 30
0.0
 10
87.62999782490783
 20
139.5588910071838
 30
0.0
 10
87.62999782490783
 20
139.5588910071838
 30
0.0
 10
87.62999782490783
 20
139.5588910071838
 30
0.0
  0
SPLINE
  5
7F
330
70
100
AcDbEntity
  8
Layer 1
 62
    18
420
        0
370
    25
100
AcDbSpline
210
0.0
220
0.0
230
1.0
 70
     9
 71
     3
 72
    29
 73
    25
 74
     0
 42
0.0000000001
 43
0.0000000001
 40
0.0
 40
0.0
 40
0.0
 40
0.0
 40
1.0
 40
1.0
 40
1.0
 40
2.0
 40
2.0
 40
2.0
 40
3.0
 40
3.0
 40
3.0
 40
4.0
 40
4.0
 40
4.0
 40
5.0
 40
5.0
 40
5.0
 40
6.0
 40
6.0
 40
6.0
 40
7.0
 40
7.0
 40
7.0
 40
8.0
 40
8.0
 40
8.0
 40
8.0
 10
20.95500053305742
 20
120.5088910119463
 30
0.0
 10
20.95500053305742
 20
120.226673096164
 30
0.0
 10
21.166666661375
 20
120.0150042763656
 30
0.0
 10
21.44888996011901
 20
120.0150042763656
 30
0.0
 10
21.44888996011901
 20
120.0150042763656
 30
0.0
 10
34.43111325568801
 20
120.0150042763656
 30
0.0
 10
34.43111325568801
 20
120.0150042763656
 30
0.0
 10
34.71333655443202
 20
120.0150042763656
 30
0.0
 10
34.9250026827496
 20
120.226673096164
 30
0.0
 10
34.9250026827496
 20
120.5088910119463
 30
0.0
 10
34.9250026827496
 20
120.5088910119463
 30
0.0
 10
34.9250026827496
 20
133.5263888555073
 30
0.0
 10
34.9250026827496
 20
133.5263888555073
 30
0.0
 10
34.9250026827496
 20
133.8086121542513
 30
0.0
 10
34.71333655443202
 20
134.020275591088
 30
0.0
 10
34.43111325568801
 20
134.020275591088
 30
0.0
 10
34.43111325568801
 20
134.020275591088
 30
0.0
 10
21.44888861437858
 20
134.020275591088
 30
0.0
 10
21.44888861437858
 20
134.020275591088
 30
0.0
 10
21.166666661375
 20
134.020275591088
 30
0.0
 10
20.954999187317
 20
133.8086067712896
 30
0.0
 10
20.954999187317
 20
133.5263888555073
 30
0.0
 10
20.95500053305742
 20
133.4911089245536
 30
0.0
 10
20.95500053305742
 20
120.5088910119463
 30
0.0
 10
20.95500053305742
 20
120.5088910119463
 30
0.0
  0
SPLINE
  5
80
330
70
100
AcDbEntity
  8
Layer 1
 62
    18
420
        0
370
    25
100
AcDbSpline
210
0.0
220
0.0
230
1.0
 70
     9
 71
     3
 72
    29
 73
    25
 74
     0
 42
0.0000000001
 43
0.0000000001
 40
0.0
 40
0.0
 40
0.0
 40
0.0
 40
1.0
 40
1.0
 40
1.0
 40
2.0
 40
2.0
 40
2.0
 40
3.0
 40
3.0
 40
3.0
 40
4.0
 40
4.0
 40
4.0
 40
5.0
 40
5.0
 40
5.0
 40
6.0
 40
6.0
 40
6.0
 40
7.0
 40
7.0
 40
7.0
 40
8.0
 40
8.0
 40
8.0
 40
8.0
 10
40.00500052829492
 20
120.5088910119463
 30
0.0
 10
40.00500052829492
 20
120.226673096164
 30
0.0
 10
40.2166666566125
 20
120.0150042763656
 30
0.0
 10
40.49888995535651
 20
120.0150042763656
 30
0.0
 10
40.49888995535651
 20
120.0150042763656
 30
0.0
 10
53.48111325092552
 20
120.0150042763656
 30
0.0
 10
53.48111325092552
 20
120.0150042763656
 30
0.0
 10
53.76333654966952
 20
120.0150042763656
 30
0.0
 10
53.97499998650626
 20
120.226673096164
 30
0.0
 10
53.97499998650626
 20
120.5088910119463
 30
0.0
 10
53.97499998650626
 20
120.5088910119463
 30
0.0
 10
53.97499998650626
 20
133.5263888555073
 30
0.0
 10
53.97499998650626
 20
133.5263888555073
 30
0.0
 10
53.97499998650626
 20
133.8086121542513
 30
0.0
 10
53.76333116670782
 20
134.020275591088
 30
0.0
 10
53.48111325092552
 20
134.020275591088
 30
0.0
 10
53.48111325092552
 20
134.020275591088
 30
0.0
 10
40.49888995535651
 20
134.020275591088
 30
0.0
 10
40.49888995535651
 20
134.020275591088
 30
0.0
 10
40.2166666566125
 20
134.020275591088
 30
0.0
 10
40.00500052829492
 20
133.8086067712896
 30
0.0
 10
40.00500052829492
 20
133.5263888555073
 30
0.0
 10
40.00500052829492
 20
133.5263888555073
 30
0.0
 10
40.00500052829492
 20
120.5088910119463
 30
0.0
 10
40.00500052829492
 20
120.5088910119463
 30
0.0
  0
SPLINE
  5
81
330
70
100
AcDbEntity
  8
Layer 1
 62
    18
420
        0
370
    25
100
AcDbSpline
210
0.0
220
0.0
230
1.0
 70
     9
 71
     3
 72
    29
 73
    25
 74
     0
 42
0.0000000001
 43
0.0000000001
 40
0.0
 40
0.0
 40
0.0
 40
0.0
 40
1.0
 40
1.0
 40
1.0
 40
2.0
 40
2.0
 40
2.0
 40
3.0
 40
3.0
 40
3.0
 40
4.0
 40
4.0
 40
4.0
 40
5.0
 40
5.0
 40
5.0
 40
6.0
 40
6.0
 40
6.0
 40
7.0
 40
7.0
 40
7.0
 40
8.0
 40
8.0
 40
8.0
 40
8.0
 10
59.05499783205158
 20
120.5088910119463
 30
0.0
 10
59.05499783205158
 20
120.226673096164
 30
0.0
 10
59.26666665185
 20
120.0150042763656
 30
0.0
 10
59.54888456763232
 20
120.0150042763656
 30
0.0
 10
59.54888456763232
 20
120.0150042763656
 30
0.0
 10
72.53110786320132
 20
120.0150042763656
 30
0.0
 10
72.53110786320132
 20
120.0150042763656
 30
0.0
 10
72.81333116194533
 20
120.0150042763656
 30
0.0
 10
73.02499459878205
 20
120.226673096164
 30
0.0
 10
73.02499459878205
 20
120.5088910119463
 30
0.0
 10
73.02499459878205
 20
120.5088910119463
 30
0.0
 10
73.02499459878205
 20
133.5263888555073
 30
0.0
 10
73.02499459878205
 20
133.5263888555073
 30
0.0
 10
73.02499459878205
 20
133.8086121542513
 30
0.0
 10
72.81332577898362
 20
134.020275591088
 30
0.0
 10
72.53110786320132
 20
134.020275591088
 30
0.0
 10
72.53110786320132
 20
134.020275591088
 30
0.0
 10
59.54888456763232
 20
134.020275591088
 30
0.0
 10
59.54888456763232
 20
134.020275591088
 30
0.0
 10
59.2666612688883
 20
134.020275591088
 30
0.0
 10
59.05499783205158
 20
133.8086067712896
 30
0.0
 10
59.05499783205158
 20
133.5263888555073
 30
0.0
 10
59.05499783205158
 20
133.5263888555073
 30
0.0
 10
59.05499783205158
 20
120.5088910119463
 30
0.0
 10
59.05499783205158
 20
120.5088910119463
 30
0.0
  0
SPLINE
  5
82
330
70
100
AcDbEntity
  8
Layer 1
 62
    18
420
        0
370
    25
100
AcDbSpline
210
0.0
220
0.0
230
1.0
 70
     9
 71
     3
 72
    32
 73
    28
 74
     0
 42
0.0000000001
 43
0.0000000001
 40
0.0
 40
0.0
 40
0.0
 40
0.0
 40
1.0
 40
1.0
 40
1.0
 40
2.0
 40
2.0
 40
2.0
 40
3.0
 40
3.0
 40
3.0
 40
4.0
 40
4.0
 40
4.0
 40
5.0
 40
5.0
 40
5.0
 40
6.0
 40
6.0
 40
6.0
 40
7.0
 40
7.0
 40
7.0
 40
8.0
 40
8.0
 40
8.0
 40
9.0
 40
9.0
 40
9.0
 40
9.0
 10
116.204997817764
 20
120.5088910119463
 30
0.0
 10
116.204997817764
 20
120.226673096164
 30
0.0
 10
116.4166666375625
 20
120.0150042763656
 30
0.0
 10
116.6988845533448
 20
120.0150042763656
 30
0.0
 10
116.6988845533448
 20
120.0150042763656
 30
0.0
 10
129.6811024659521
 20
120.0150042763656
 30
0.0
 10
129.6811024659521
 20
120.0150042763656
 30
0.0
 10
129.9633203817344
 20
120.0150042763656
 30
0.0
 10
130.1749892015328
 20
120.226673096164
 30
0.0
 10
130.1749892015328
 20
120.5088910119463
 30
0.0
 10
130.1749892015328
 20
120.5088910119463
 30
0.0
 10
130.1749892015328
 20
133.5263888555073
 30
0.0
 10
130.1749892015328
 20
133.5263888555073
 30
0.0
 10
130.1749892015328
 20
133.8086121542513
 30
0.0
 10
129.9633203817344
 20
134.020275591088
 30
0.0
 10
129.6811024659521
 20
134.020275591088
 30
0.0
 10
129.6811024659521
 20
134.020275591088
 30
0.0
 10
116.6636046223912
 20
134.020275591088
 30
0.0
 10
116.6636046223912
 20
134.020275591088
 30
0.0
 10
116.3813867066088
 20
134.020275591088
 30
0.0
 10
116.1697178868104
 20
133.8086067712896
 30
0.0
 10
116.1697178868104
 20
133.5263888555073
 30
0.0
 10
116.1697178868104
 20
133.5263888555073
 30
0.0
 10
116.204997817764
 20
120.5088910119463
 30
0.0
 10
116.204997817764
 20
120.5088910119463
 30
0.0
 10
116.204997817764
 20
120.5088910119463
 30
0.0
 10
116.204997817764
 20
120.5088910119463
 30
0.0
 10
116.204997817764
 20
120.5088910119463
 30
0.0
  0
SPLINE
  5
83
330
70
100
AcDbEntity
  8
Layer 1
 62
    18
420
        0
370
    25
100
AcDbSpline
210
0.0
220
0.0
230
1.0
 70
     9
 71
     3
 72
    32
 73
    28
 74
     0
 42
0.0000000001
 43
0.0000000001
 40
0.0
 40
0.0
 40
0.0
 40
0.0
 40
1.0
 40
1.0
 40
1.0
 40
2.0
 40
2.0
 40
2.0
 40
3.0
 40
3.0
 40
3.0
 40
4.0
 40
4.0
 40
4.0
 40
5.0
 40
5.0
 40
5.0
 40
6.0
 40
6.0
 40
6.0
 40
7.0
 40
7.0
 40
7.0
 40
8.0
 40
8.0
 40
8.0
 40
9.0
 40
9.0
 40
9.0
 40
9.0
 10
97.15499782252658
 20
120.5088910119463
 30
0.0
 10
97.15499782252658
 20
120.226673096164
 30
0.0
 10
97.36666664232501
 20
120.0150042763656
 30
0.0
 10
97.64888455810732
 20
120.0150042763656
 30
0.0
 10
97.64888455810732
 20
120.0150042763656
 30
0.0
 10
110.6311024707146
 20
120.0150042763656
 30
0.0
 10
110.6311024707146
 20
120.0150042763656
 30
0.0
 10
110.9133203864969
 20
120.0150042763656
 30
0.0
 10
111.1249892062953
 20
120.226673096164
 30
0.0
 10
111.1249892062953
 20
120.5088910119463
 30
0.0
 10
111.1249892062953
 20
120.5088910119463
 30
0.0
 10
111.1249892062953
 20
133.5263888555073
 30
0.0
 10
111.1249892062953
 20
133.5263888555073
 30
0.0
 10
111.1249892062953
 20
133.8086121542513
 30
0.0
 10
110.9133203864969
 20
134.020275591088
 30
0.0
 10
110.6311024707146
 20
134.020275591088
 30
0.0
 10
110.6311024707146
 20
134.020275591088
 30
0.0
 10
97.61360462715368
 20
134.020275591088
 30
0.0
 10
97.61360462715368
 20
134.020275591088
 30
0.0
 10
97.33138671137137
 20
134.020275591088
 30
0.0
 10
97.11971789157294
 20
133.8086067712896
 30
0.0
 10
97.11971789157294
 20
133.5263888555073
 30
0.0
 10
97.11971789157294
 20
133.5263888555073
 30
0.0
 10
97.15499782252658
 20
120.5088910119463
 30
0.0
 10
97.15499782252658
 20
120.5088910119463
 30
0.0
 10
97.15499782252658
 20
120.5088910119463
 30
0.0
 10
97.15499782252658
 20
120.5088910119463
 30
0.0
 10
97.15499782252658
 20
120.5088910119463
 30
0.0
  0
SPLINE
  5
84
330
70
100
AcDbEntity
  8
Layer 1
 62
    18
420
        0
370
    25
100
AcDbSpline
210
0.0
220
0.0
230
1.0
 70
     9
 71
     3
 72
    32
 73
    28
 74
     0
 42
0.0000000001
 43
0.0000000001
 40
0.0
 40
0.0
 40
0.0
 40
0.0
 40
1.0
 40
1.0
 40
1.0
 40
2.0
 40
2.0
 40
2.0
 40
3.0
 40
3.0
 40
3.0
 40
4.0
 40
4.0
 40
4.0
 40
5.0
 40
5.0
 40
5.0
 40
6.0
 40
6.0
 40
6.0
 40
7.0
 40
7.0
 40
7.0
 40
8.0
 40
8.0
 40
8.0
 40
9.0
 40
9.0
 40
9.0
 40
9.0
 10
78.10499782728907
 20
120.5088910119463
 30
0.0
 10
78.10499782728907
 20
120.226673096164
 30
0.0
 10
78.3166666470875
 20
120.0150042763656
 30
0.0
 10
78.59888456286981
 20
120.0150042763656
 30
0.0
 10
78.59888456286981
 20
120.0150042763656
 30
0.0
 10
91.58110247547712
 20
120.0150042763656
 30
0.0
 10
91.58110247547712
 20
120.0150042763656
 30
0.0
 10
91.86332039125943
 20
120.0150042763656
 30
0.0
 10
92.07498921105786
 20
120.226673096164
 30
0.0
 10
92.07498921105786
 20
120.5088910119463
 30
0.0
 10
92.07498921105786
 20
120.5088910119463
 30
0.0
 10
92.07498921105786
 20
133.5263888555073
 30
0.0
 10
92.07498921105786
 20
133.5263888555073
 30
0.0
 10
92.07498921105786
 20
133.8086121542513
 30
0.0
 10
91.86332039125943
 20
134.020275591088
 30
0.0
 10
91.58110247547712
 20
134.020275591088
 30
0.0
 10
91.58110247547712
 20
134.020275591088
 30
0.0
 10
78.56360463191617
 20
134.020275591088
 30
0.0
 10
78.56360463191617
 20
134.020275591088
 30
0.0
 10
78.28138133317217
 20
134.020275591088
 30
0.0
 10
78.06971789633543
 20
133.8086067712896
 30
0.0
 10
78.06971789633543
 20
133.5263888555073
 30
0.0
 10
78.06971789633543
 20
133.5263888555073
 30
0.0
 10
78.10499782728907
 20
120.5088910119463
 30
0.0
 10
78.10499782728907
 20
120.5088910119463
 30
0.0
 10
78.10499782728907
 20
120.5088910119463
 30
0.0
 10
78.10499782728907
 20
120.5088910119463
 30
0.0
 10
78.10499782728907
 20
120.5088910119463
 30
0.0
  0
SPLINE
  5
85
330
70
100
AcDbEntity
  8
Layer 1
 62
    18
420
        0
370
    25
100
AcDbSpline
210
0.0
220
0.0
230
1.0
 70
     9
 71
     3
 72
    29
 73
    25
 74
     0
 42
0.0000000001
 43
0.0000000001
 40
0.0
 40
0.0
 40
0.0
 40
0.0
 40
1.0
 40
1.0
 40
1.0
 40
2.0
 40
2.0
 40
2.0
 40
3.0
 40
3.0
 40
3.0
 40
4.0
 40
4.0
 40
4.0
 40
5.0
 40
5.0
 40
5.0
 40
6.0
 40
6.0
 40
6.0
 40
7.0
 40
7.0
 40
7.0
 40
8.0
 40
8.0
 40
8.0
 40
8.0
 10
149.5424978094297
 20
120.5088910119463
 30
0.0
 10
149.5424978094297
 20
120.226673096164
 30
0.0
 10
149.7541666292281
 20
120.0150042763656
 30
0.0
 10
150.0363845450104
 20
120.0150042763656
 30
0.0
 10
150.0363845450104
 20
120.0150042763656
 30
0.0
 10
163.0538823885714
 20
120.0150042763656
 30
0.0
 10
163.0538823885714
 20
120.0150042763656
 30
0.0
 10
163.3361003043537
 20
120.0150042763656
 30
0.0
 10
163.5477691241521
 20
120.226673096164
 30
0.0
 10
163.5477691241521
 20
120.5088910119463
 30
0.0
 10
163.5477691241521
 20
120.5088910119463
 30
0.0
 10
163.5477691241521
 20
133.5263888555073
 30
0.0
 10
163.5477691241521
 20
133.5263888555073
 30
0.0
 10
163.5477691241521
 20
133.8086121542513
 30
0.0
 10
163.3361003043537
 20
134.020275591088
 30
0.0
 10
163.0538823885714
 20
134.020275591088
 30
0.0
 10
163.0538823885714
 20
134.020275591088
 30
0.0
 10
150.0363845450104
 20
134.020275591088
 30
0.0
 10
150.0363845450104
 20
134.020275591088
 30
0.0
 10
149.7541666292281
 20
134.020275591088
 30
0.0
 10
149.5424978094297
 20
133.8086067712896
 30
0.0
 10
149.5424978094297
 20
133.5263888555073
 30
0.0
 10
149.5424978094297
 20
133.5263888555073
 30
0.0
 10
149.5424978094297
 20
120.5088910119463
 30
0.0
 10
149.5424978094297
 20
120.5088910119463
 30
0.0
  0
SPLINE
  5
86
330
70
100
AcDbEntity
  8
Layer 1
 62
    18
420
        0
370
    25
100
AcDbSpline
210
0.0
220
0.0
230
1.0
 70
     9
 71
     3
 72
    32
 73
    28
 74
     0
 42
0.0000000001
 43
0.0000000001
 40
0.0
 40
0.0
 40
0.0
 40
0.0
 40
1.0
 40
1.0
 40
1.0
 40
2.0
 40
2.0
 40
2.0
 40
3.0
 40
3.0
 40
3.0
 40
4.0
 40
4.0
 40
4.0
 40
5.0
 40
5.0
 40
5.0
 40
6.0
 40
6.0
 40
6.0
 40
7.0
 40
7.0
 40
7.0
 40
8.0
 40
8.0
 40
8.0
 40
9.0
 40
9.0
 40
9.0
 40
9.0
 10
168.5924978046672
 20
120.5088910119463
 30
0.0
 10
168.5924978046672
 20
120.226673096164
 30
0.0
 10
168.8041666244656
 20
120.0150042763656
 30
0.0
 10
169.0863845402479
 20
120.0150042763656
 30
0.0
 10
169.0863845402479
 20
120.0150042763656
 30
0.0
 10
182.1038931497323
 20
120.0150042763656
 30
0.0
 10
182.1038931497323
 20
120.0150042763656
 30
0.0
 10
182.3861110655146
 20
120.0150042763656
 30
0.0
 10
182.5977906512364
 20
120.226673096164
 30
0.0
 10
182.5977906512364
 20
120.5088910119463
 30
0.0
 10
182.5977906512364
 20
120.5088910119463
 30
0.0
 10
182.5977906512364
 20
133.5263888555073
 30
0.0
 10
182.5977906512364
 20
133.5263888555073
 30
0.0
 10
182.5977906512364
 20
133.8086121542513
 30
0.0
 10
182.3861325973614
 20
134.020275591088
 30
0.0
 10
182.1038931497323
 20
134.020275591088
 30
0.0
 10
182.1038931497323
 20
134.020275591088
 30
0.0
 10
169.0863953061713
 20
134.020275591088
 30
0.0
 10
169.0863953061713
 20
134.020275591088
 30
0.0
 10
168.804177390389
 20
134.020275591088
 30
0.0
 10
168.5925085705906
 20
133.8086067712896
 30
0.0
 10
168.5925085705906
 20
133.5263888555073
 30
0.0
 10
168.5925085705906
 20
133.5263888555073
 30
0.0
 10
168.5925085705906
 20
120.5088910119463
 30
0.0
 10
168.5925085705906
 20
120.5088910119463
 30
0.0
 10
168.5925085705906
 20
120.5088910119463
 30
0.0
 10
168.5924978046672
 20
120.5088910119463
 30
0.0
 10
168.5924978046672
 20
120.5088910119463
 30
0.0
  0
SPLINE
  5
87
330
70
100
AcDbEntity
  8
Layer 1
 62
    18
420
        0
370
    25
100
AcDbSpline
210
0.0
220
0.0
230
1.0
 70
     9
 71
     3
 72
    29
 73
    25
 74
     0
 42
0.0000000001
 43
0.0000000001
 40
0.0
 40
0.0
 40
0.0
 40
0.0
 40
1.0
 40
1.0
 40
1.0
 40
2.0
 40
2.0
 40
2.0
 40
3.0
 40
3.0
 40
3.0
 40
4.0
 40
4.0
 40
4.0
 40
5.0
 40
5.0
 40
5.0
 40
6.0
 40
6.0
 40
6.0
 40
7.0
 40
7.0
 40
7.0
 40
8.0
 40
8.0
 40
8.0
 40
8.0
 10
187.6425085658281
 20
120.5088910119463
 30
0.0
 10
187.6425085658281
 20
120.226673096164
 30
0.0
 10
187.8541666197031
 20
120.0150042763656
 30
0.0
 10
188.1364060673322
 20
120.0150042763656
 30
0.0
 10
188.1364060673322
 20
120.0150042763656
 30
0.0
 10
201.1539146768166
 20
120.0150042763656
 30
0.0
 10
201.1539146768166
 20
120.0150042763656
 30
0.0
 10
201.4361325925989
 20
120.0150042763656
 30
0.0
 10
201.6478121783207
 20
120.226673096164
 30
0.0
 10
201.6478121783207
 20
120.5088910119463
 30
0.0
 10
201.6478121783207
 20
120.5088910119463
 30
0.0
 10
201.6478121783207
 20
133.5263888555073
 30
0.0
 10
201.6478121783207
 20
133.5263888555073
 30
0.0
 10
201.6478121783207
 20
133.8086121542513
 30
0.0
 10
201.4361541244457
 20
134.020275591088
 30
0.0
 10
201.1539146768166
 20
134.020275591088
 30
0.0
 10
201.1539146768166
 20
134.020275591088
 30
0.0
 10
188.1364060673322
 20
134.020275591088
 30
0.0
 10
188.1364060673322
 20
134.020275591088
 30
0.0
 10
187.8541881515499
 20
134.020275591088
 30
0.0
 10
187.6425085658281
 20
133.8086067712896
 30
0.0
 10
187.6425085658281
 20
133.5263888555073
 30
0.0
 10
187.6425085658281
 20
133.5263888555073
 30
0.0
 10
187.6425085658281
 20
120.5088910119463
 30
0.0
 10
187.6425085658281
 20
120.5088910119463
 30
0.0
  0
SPLINE
  5
88
330
70
100
AcDbEntity
  8
Layer 1
 62
    18
420
        0
370
    25
100
AcDbSpline
210
0.0
220
0.0
230
1.0
 70
     9
 71
     3
 72
    29
 73
    25
 74
     0
 42
0.0000000001
 43
0.0000000001
 40
0.0
 40
0.0
 40
0.0
 40
0.0
 40
1.0
 40
1.0
 40
1.0
 40
2.0
 40
2.0
 40
2.0
 40
3.0
 40
3.0
 40
3.0
 40
4.0
 40
4.0
 40
4.0
 40
5.0
 40
5.0
 40
5.0
 40
6.0
 40
6.0
 40
6.0
 40
7.0
 40
7.0
 40
7.0
 40
8.0
 40
8.0
 40
8.0
 40
8.0
 10
244.7925085515406
 20
120.5088910119463
 30
0.0
 10
244.7925085515406
 20
120.226673096164
 30
0.0
 10
245.0041666054156
 20
120.0150042763656
 30
0.0
 10
245.2864060530448
 20
120.0150042763656
 30
0.0
 10
245.2864060530448
 20
120.0150042763656
 30
0.0
 10
258.268623965652
 20
120.0150042763656
 30
0.0
 10
258.268623965652
 20
120.0150042763656
 30
0.0
 10
258.5508418814344
 20
120.0150042763656
 30
0.0
 10
258.7625214671561
 20
120.226673096164
 30
0.0
 10
258.7625214671561
 20
120.5088910119463
 30
0.0
 10
258.7625214671561
 20
120.5088910119463
 30
0.0
 10
258.7625214671561
 20
133.5263888555073
 30
0.0
 10
258.7625214671561
 20
133.5263888555073
 30
0.0
 10
258.7625214671561
 20
133.8086121542513
 30
0.0
 10
258.5508634132811
 20
134.020275591088
 30
0.0
 10
258.268623965652
 20
134.020275591088
 30
0.0
 10
258.268623965652
 20
134.020275591088
 30
0.0
 10
245.2864060530448
 20
134.020275591088
 30
0.0
 10
245.2864060530448
 20
134.020275591088
 30
0.0
 10
245.0041881372624
 20
134.020275591088
 30
0.0
 10
244.7925085515406
 20
133.8086067712896
 30
0.0
 10
244.7925085515406
 20
133.5263888555073
 30
0.0
 10
244.7925085515406
 20
133.5263888555073
 30
0.0
 10
244.7925085515406
 20
120.5088910119463
 30
0.0
 10
244.7925085515406
 20
120.5088910119463
 30
0.0
  0
SPLINE
  5
89
330
70
100
AcDbEntity
  8
Layer 1
 62
    18
420
        0
370
    25
100
AcDbSpline
210
0.0
220
0.0
230
1.0
 70
     9
 71
     3
 72
    29
 73
    25
 74
     0
 42
0.0000000001
 43
0.0000000001
 40
0.0
 40
0.0
 40
0.0
 40
0.0
 40
1.0
 40
1.0
 40
1.0
 40
2.0
 40
2.0
 40
2.0
 40
3.0
 40
3.0
 40
3.0
 40
4.0
 40
4.0
 40
4.0
 40
5.0
 40
5.0
 40
5.0
 40
6.0
 40
6.0
 40
6.0
 40
7.0
 40
7.0
 40
7.0
 40
8.0
 40
8.0
 40
8.0
 40
8.0
 10
225.7425085563031
 20
120.5088910119463
 30
0.0
 10
225.7425085563031
 20
120.226673096164
 30
0.0
 10
225.9541666101781
 20
120.0150042763656
 30
0.0
 10
226.2364060578072
 20
120.0150042763656
 30
0.0
 10
226.2364060578072
 20
120.0150042763656
 30
0.0
 10
239.2186239704146
 20
120.0150042763656
 30
0.0
 10
239.2186239704146
 20
120.0150042763656
 30
0.0
 10
239.5008418861968
 20
120.0150042763656
 30
0.0
 10
239.7125214719187
 20
120.226673096164
 30
0.0
 10
239.7125214719187
 20
120.5088910119463
 30
0.0
 10
239.7125214719187
 20
120.5088910119463
 30
0.0
 10
239.7125214719187
 20
133.5263888555073
 30
0.0
 10
239.7125214719187
 20
133.5263888555073
 30
0.0
 10
239.7125214719187
 20
133.8086121542513
 30
0.0
 10
239.5008634180436
 20
134.020275591088
 30
0.0
 10
239.2186239704146
 20
134.020275591088
 30
0.0
 10
239.2186239704146
 20
134.020275591088
 30
0.0
 10
226.2364060578072
 20
134.020275591088
 30
0.0
 10
226.2364060578072
 20
134.020275591088
 30
0.0
 10
225.9541881420249
 20
134.020275591088
 30
0.0
 10
225.7425085563031
 20
133.8086067712896
 30
0.0
 10
225.7425085563031
 20
133.5263888555073
 30
0.0
 10
225.7425085563031
 20
133.5263888555073
 30
0.0
 10
225.7425085563031
 20
120.5088910119463
 30
0.0
 10
225.7425085563031
 20
120.5088910119463
 30
0.0
  0
SPLINE
  5
8A
330
70
100
AcDbEntity
  8
Layer 1
 62
    18
420
        0
370
    25
100
AcDbSpline
210
0.0
220
0.0
230
1.0
 70
     9
 71
     3
 72
    32
 73
    28
 74
     0
 42
0.0000000001
 43
0.0000000001
 40
0.0
 40
0.0
 40
0.0
 40
0.0
 40
1.0
 40
1.0
 40
1.0
 40
2.0
 40
2.0
 40
2.0
 40
3.0
 40
3.0
 40
3.0
 40
4.0
 40
4.0
 40
4.0
 40
5.0
 40
5.0
 40
5.0
 40
6.0
 40
6.0
 40
6.0
 40
7.0
 40
7.0
 40
7.0
 40
8.0
 40
8.0
 40
8.0
 40
9.0
 40
9.0
 40
9.0
 40
9.0
 10
206.6925085610656
 20
120.5088910119463
 30
0.0
 10
206.6925085610656
 20
120.226673096164
 30
0.0
 10
206.9041666149406
 20
120.0150042763656
 30
0.0
 10
207.1864060625697
 20
120.0150042763656
 30
0.0
 10
207.1864060625697
 20
120.0150042763656
 30
0.0
 10
220.168623975177
 20
120.0150042763656
 30
0.0
 10
220.168623975177
 20
120.0150042763656
 30
0.0
 10
220.4508418909593
 20
120.0150042763656
 30
0.0
 10
220.6625214766812
 20
120.226673096164
 30
0.0
 10
220.6625214766812
 20
120.5088910119463
 30
0.0
 10
220.6625214766812
 20
120.5088910119463
 30
0.0
 10
220.6625214766812
 20
133.5263888555073
 30
0.0
 10
220.6625214766812
 20
133.5263888555073
 30
0.0
 10
220.6625214766812
 20
133.8086121542513
 30
0.0
 10
220.4508634228061
 20
134.020275591088
 30
0.0
 10
220.168623975177
 20
134.020275591088
 30
0.0
 10
220.168623975177
 20
134.020275591088
 30
0.0
 10
207.1511153656927
 20
134.020275591088
 30
0.0
 10
207.1511153656927
 20
134.020275591088
 30
0.0
 10
206.8688974499104
 20
134.020275591088
 30
0.0
 10
206.6572178641886
 20
133.8086067712896
 30
0.0
 10
206.6572178641886
 20
133.5263888555073
 30
0.0
 10
206.6572178641886
 20
133.5263888555073
 30
0.0
 10
206.6925085610656
 20
120.5088910119463
 30
0.0
 10
206.6925085610656
 20
120.5088910119463
 30
0.0
 10
206.6925085610656
 20
120.5088910119463
 30
0.0
 10
206.6925085610656
 20
120.5088910119463
 30
0.0
 10
206.6925085610656
 20
120.5088910119463
 30
0.0
  0
SPLINE
  5
8B
330
70
100
AcDbEntity
  8
Layer 1
 62
    18
420
        0
370
    25
100
AcDbSpline
210
0.0
220
0.0
230
1.0
 70
     9
 71
     3
 72
    29
 73
    25
 74
     0
 42
0.0000000001
 43
0.0000000001
 40
0.0
 40
0.0
 40
0.0
 40
0.0
 40
1.0
 40
1.0
 40
1.0
 40
2.0
 40
2.0
 40
2.0
 40
3.0
 40
3.0
 40
3.0
 40
4.0
 40
4.0
 40
4.0
 40
5.0
 40
5.0
 40
5.0
 40
6.0
 40
6.0
 40
6.0
 40
7.0
 40
7.0
 40
7.0
 40
8.0
 40
8.0
 40
8.0
 40
8.0
 10
20.95500053305742
 20
101.4588910167088
 30
0.0
 10
20.95500053305742
 20
101.1766731009265
 30
0.0
 10
21.166666661375
 20
100.9650042811281
 30
0.0
 10
21.44888996011901
 20
100.9650042811281
 30
0.0
 10
21.44888996011901
 20
100.9650042811281
 30
0.0
 10
34.43111325568801
 20
100.9650042811281
 30
0.0
 10
34.43111325568801
 20
100.9650042811281
 30
0.0
 10
34.71333655443202
 20
100.9650042811281
 30
0.0
 10
34.9250026827496
 20
101.1766731009265
 30
0.0
 10
34.9250026827496
 20
101.4588910167088
 30
0.0
 10
34.9250026827496
 20
101.4588910167088
 30
0.0
 10
34.9250026827496
 20
114.4763888602698
 30
0.0
 10
34.9250026827496
 20
114.4763888602698
 30
0.0
 10
34.9250026827496
 20
114.7586067760521
 30
0.0
 10
34.71333655443202
 20
114.9702755958505
 30
0.0
 10
34.43111325568801
 20
114.9702755958505
 30
0.0
 10
34.43111325568801
 20
114.9702755958505
 30
0.0
 10
21.44888861437858
 20
114.9702755958505
 30
0.0
 10
21.44888861437858
 20
114.9702755958505
 30
0.0
 10
21.166666661375
 20
114.9702755958505
 30
0.0
 10
20.954999187317
 20
114.7586067760521
 30
0.0
 10
20.954999187317
 20
114.4763888602698
 30
0.0
 10
20.95500053305742
 20
114.4411089293161
 30
0.0
 10
20.95500053305742
 20
101.4588910167088
 30
0.0
 10
20.95500053305742
 20
101.4588910167088
 30
0.0
  0
SPLINE
  5
8C
330
70
100
AcDbEntity
  8
Layer 1
 62
    18
420
        0
370
    25
100
AcDbSpline
210
0.0
220
0.0
230
1.0
 70
     9
 71
     3
 72
    29
 73
    25
 74
     0
 42
0.0000000001
 43
0.0000000001
 40
0.0
 40
0.0
 40
0.0
 40
0.0
 40
1.0
 40
1.0
 40
1.0
 40
2.0
 40
2.0
 40
2.0
 40
3.0
 40
3.0
 40
3.0
 40
4.0
 40
4.0
 40
4.0
 40
5.0
 40
5.0
 40
5.0
 40
6.0
 40
6.0
 40
6.0
 40
7.0
 40
7.0
 40
7.0
 40
8.0
 40
8.0
 40
8.0
 40
8.0
 10
40.00500052829492
 20
101.4588910167088
 30
0.0
 10
40.00500052829492
 20
101.1766731009265
 30
0.0
 10
40.2166666566125
 20
100.9650042811281
 30
0.0
 10
40.49888995535651
 20
100.9650042811281
 30
0.0
 10
40.49888995535651
 20
100.9650042811281
 30
0.0
 10
53.48111325092552
 20
100.9650042811281
 30
0.0
 10
53.48111325092552
 20
100.9650042811281
 30
0.0
 10
53.76333654966952
 20
100.9650042811281
 30
0.0
 10
53.97499998650626
 20
101.1766731009265
 30
0.0
 10
53.97499998650626
 20
101.4588910167088
 30
0.0
 10
53.97499998650626
 20
101.4588910167088
 30
0.0
 10
53.97499998650626
 20
114.4763888602698
 30
0.0
 10
53.97499998650626
 20
114.4763888602698
 30
0.0
 10
53.97499998650626
 20
114.7586067760521
 30
0.0
 10
53.76333116670782
 20
114.9702755958505
 30
0.0
 10
53.48111325092552
 20
114.9702755958505
 30
0.0
 10
53.48111325092552
 20
114.9702755958505
 30
0.0
 10
40.49888995535651
 20
114.9702755958505
 30
0.0
 10
40.49888995535651
 20
114.9702755958505
 30
0.0
 10
40.2166666566125
 20
114.9702755958505
 30
0.0
 10
40.00500052829492
 20
114.7586067760521
 30
0.0
 10
40.00500052829492
 20
114.4763888602698
 30
0.0
 10
40.00500052829492
 20
114.4763888602698
 30
0.0
 10
40.00500052829492
 20
101.4588910167088
 30
0.0
 10
40.00500052829492
 20
101.4588910167088
 30
0.0
  0
SPLINE
  5
8D
330
70
100
AcDbEntity
  8
Layer 1
 62
    18
420
        0
370
    25
100
AcDbSpline
210
0.0
220
0.0
230
1.0
 70
     9
 71
     3
 72
    29
 73
    25
 74
     0
 42
0.0000000001
 43
0.0000000001
 40
0.0
 40
0.0
 40
0.0
 40
0.0
 40
1.0
 40
1.0
 40
1.0
 40
2.0
 40
2.0
 40
2.0
 40
3.0
 40
3.0
 40
3.0
 40
4.0
 40
4.0
 40
4.0
 40
5.0
 40
5.0
 40
5.0
 40
6.0
 40
6.0
 40
6.0
 40
7.0
 40
7.0
 40
7.0
 40
8.0
 40
8.0
 40
8.0
 40
8.0
 10
59.05499783205158
 20
101.4588910167088
 30
0.0
 10
59.05499783205158
 20
101.1766731009265
 30
0.0
 10
59.26666665185
 20
100.9650042811281
 30
0.0
 10
59.54888456763232
 20
100.9650042811281
 30
0.0
 10
59.54888456763232
 20
100.9650042811281
 30
0.0
 10
72.53110786320132
 20
100.9650042811281
 30
0.0
 10
72.53110786320132
 20
100.9650042811281
 30
0.0
 10
72.81333116194533
 20
100.9650042811281
 30
0.0
 10
73.02499459878205
 20
101.1766731009265
 30
0.0
 10
73.02499459878205
 20
101.4588910167088
 30
0.0
 10
73.02499459878205
 20
101.4588910167088
 30
0.0
 10
73.02499459878205
 20
114.4763888602698
 30
0.0
 10
73.02499459878205
 20
114.4763888602698
 30
0.0
 10
73.02499459878205
 20
114.7586067760521
 30
0.0
 10
72.81332577898362
 20
114.9702755958505
 30
0.0
 10
72.53110786320132
 20
114.9702755958505
 30
0.0
 10
72.53110786320132
 20
114.9702755958505
 30
0.0
 10
59.54888456763232
 20
114.9702755958505
 30
0.0
 10
59.54888456763232
 20
114.9702755958505
 30
0.0
 10
59.2666612688883
 20
114.9702755958505
 30
0.0
 10
59.05499783205158
 20
114.7586067760521
 30
0.0
 10
59.05499783205158
 20
114.4763888602698
 30
0.0
 10
59.05499783205158
 20
114.4763888602698
 30
0.0
 10
59.05499783205158
 20
101.4588910167088
 30
0.0
 10
59.05499783205158
 20
101.4588910167088
 30
0.0
  0
SPLINE
  5
8E
330
70
100
AcDbEntity
  8
Layer 1
 62
    18
420
        0
370
    25
100
AcDbSpline
210
0.0
220
0.0
230
1.0
 70
     9
 71
     3
 72
    32
 73
    28
 74
     0
 42
0.0000000001
 43
0.0000000001
 40
0.0
 40
0.0
 40
0.0
 40
0.0
 40
1.0
 40
1.0
 40
1.0
 40
2.0
 40
2.0
 40
2.0
 40
3.0
 40
3.0
 40
3.0
 40
4.0
 40
4.0
 40
4.0
 40
5.0
 40
5.0
 40
5.0
 40
6.0
 40
6.0
 40
6.0
 40
7.0
 40
7.0
 40
7.0
 40
8.0
 40
8.0
 40
8.0
 40
9.0
 40
9.0
 40
9.0
 40
9.0
 10
116.204997817764
 20
101.4588910167088
 30
0.0
 10
116.204997817764
 20
101.1766731009265
 30
0.0
 10
116.4166666375625
 20
100.9650042811281
 30
0.0
 10
116.6988845533448
 20
100.9650042811281
 30
0.0
 10
116.6988845533448
 20
100.9650042811281
 30
0.0
 10
129.6811024659521
 20
100.9650042811281
 30
0.0
 10
129.6811024659521
 20
100.9650042811281
 30
0.0
 10
129.9633203817344
 20
100.9650042811281
 30
0.0
 10
130.1749892015328
 20
101.1766731009265
 30
0.0
 10
130.1749892015328
 20
101.4588910167088
 30
0.0
 10
130.1749892015328
 20
101.4588910167088
 30
0.0
 10
130.1749892015328
 20
114.4763888602698
 30
0.0
 10
130.1749892015328
 20
114.4763888602698
 30
0.0
 10
130.1749892015328
 20
114.7586067760521
 30
0.0
 10
129.9633203817344
 20
114.9702755958505
 30
0.0
 10
129.6811024659521
 20
114.9702755958505
 30
0.0
 10
129.6811024659521
 20
114.9702755958505
 30
0.0
 10
116.6636046223912
 20
114.9702755958505
 30
0.0
 10
116.6636046223912
 20
114.9702755958505
 30
0.0
 10
116.3813867066088
 20
114.9702755958505
 30
0.0
 10
116.1697178868104
 20
114.7586067760521
 30
0.0
 10
116.1697178868104
 20
114.4763888602698
 30
0.0
 10
116.1697178868104
 20
114.4763888602698
 30
0.0
 10
116.204997817764
 20
101.4588910167088
 30
0.0
 10
116.204997817764
 20
101.4588910167088
 30
0.0
 10
116.204997817764
 20
101.4588910167088
 30
0.0
 10
116.204997817764
 20
101.4588910167088
 30
0.0
 10
116.204997817764
 20
101.4588910167088
 30
0.0
  0
SPLINE
  5
8F
330
70
100
AcDbEntity
  8
Layer 1
 62
    18
420
        0
370
    25
100
AcDbSpline
210
0.0
220
0.0
230
1.0
 70
     9
 71
     3
 72
    32
 73
    28
 74
     0
 42
0.0000000001
 43
0.0000000001
 40
0.0
 40
0.0
 40
0.0
 40
0.0
 40
1.0
 40
1.0
 40
1.0
 40
2.0
 40
2.0
 40
2.0
 40
3.0
 40
3.0
 40
3.0
 40
4.0
 40
4.0
 40
4.0
 40
5.0
 40
5.0
 40
5.0
 40
6.0
 40
6.0
 40
6.0
 40
7.0
 40
7.0
 40
7.0
 40
8.0
 40
8.0
 40
8.0
 40
9.0
 40
9.0
 40
9.0
 40
9.0
 10
97.15499782252658
 20
101.4588910167088
 30
0.0
 10
97.15499782252658
 20
101.1766731009265
 30
0.0
 10
97.36666664232501
 20
100.9650042811281
 30
0.0
 10
97.64888455810732
 20
100.9650042811281
 30
0.0
 10
97.64888455810732
 20
100.9650042811281
 30
0.0
 10
110.6311024707146
 20
100.9650042811281
 30
0.0
 10
110.6311024707146
 20
100.9650042811281
 30
0.0
 10
110.9133203864969
 20
100.9650042811281
 30
0.0
 10
111.1249892062953
 20
101.1766731009265
 30
0.0
 10
111.1249892062953
 20
101.4588910167088
 30
0.0
 10
111.1249892062953
 20
101.4588910167088
 30
0.0
 10
111.1249892062953
 20
114.4763888602698
 30
0.0
 10
111.1249892062953
 20
114.4763888602698
 30
0.0
 10
111.1249892062953
 20
114.7586067760521
 30
0.0
 10
110.9133203864969
 20
114.9702755958505
 30
0.0
 10
110.6311024707146
 20
114.9702755958505
 30
0.0
 10
110.6311024707146
 20
114.9702755958505
 30
0.0
 10
97.61360462715368
 20
114.9702755958505
 30
0.0
 10
97.61360462715368
 20
114.9702755958505
 30
0.0
 10
97.33138671137137
 20
114.9702755958505
 30
0.0
 10
97.11971789157294
 20
114.7586067760521
 30
0.0
 10
97.11971789157294
 20
114.4763888602698
 30
0.0
 10
97.11971789157294
 20
114.4763888602698
 30
0.0
 10
97.15499782252658
 20
101.4588910167088
 30
0.0
 10
97.15499782252658
 20
101.4588910167088
 30
0.0
 10
97.15499782252658
 20
101.4588910167088
 30
0.0
 10
97.15499782252658
 20
101.4588910167088
 30
0.0
 10
97.15499782252658
 20
101.4588910167088
 30
0.0
  0
SPLINE
  5
90
330
70
100
AcDbEntity
  8
Layer 1
 62
    18
420
        0
370
    25
100
AcDbSpline
210
0.0
220
0.0
230
1.0
 70
     9
 71
     3
 72
    32
 73
    28
 74
     0
 42
0.0000000001
 43
0.0000000001
 40
0.0
 40
0.0
 40
0.0
 40
0.0
 40
1.0
 40
1.0
 40
1.0
 40
2.0
 40
2.0
 40
2.0
 40
3.0
 40
3.0
 40
3.0
 40
4.0
 40
4.0
 40
4.0
 40
5.0
 40
5.0
 40
5.0
 40
6.0
 40
6.0
 40
6.0
 40
7.0
 40
7.0
 40
7.0
 40
8.0
 40
8.0
 40
8.0
 40
9.0
 40
9.0
 40
9.0
 40
9.0
 10
78.10499782728907
 20
101.4588910167088
 30
0.0
 10
78.10499782728907
 20
101.1766731009265
 30
0.0
 10
78.3166666470875
 20
100.9650042811281
 30
0.0
 10
78.59888456286981
 20
100.9650042811281
 30
0.0
 10
78.59888456286981
 20
100.9650042811281
 30
0.0
 10
91.58110247547712
 20
100.9650042811281
 30
0.0
 10
91.58110247547712
 20
100.9650042811281
 30
0.0
 10
91.86332039125943
 20
100.9650042811281
 30
0.0
 10
92.07498921105786
 20
101.1766731009265
 30
0.0
 10
92.07498921105786
 20
101.4588910167088
 30
0.0
 10
92.07498921105786
 20
101.4588910167088
 30
0.0
 10
92.07498921105786
 20
114.4763888602698
 30
0.0
 10
92.07498921105786
 20
114.4763888602698
 30
0.0
 10
92.07498921105786
 20
114.7586067760521
 30
0.0
 10
91.86332039125943
 20
114.9702755958505
 30
0.0
 10
91.58110247547712
 20
114.9702755958505
 30
0.0
 10
91.58110247547712
 20
114.9702755958505
 30
0.0
 10
78.56360463191617
 20
114.9702755958505
 30
0.0
 10
78.56360463191617
 20
114.9702755958505
 30
0.0
 10
78.28138133317217
 20
114.9702755958505
 30
0.0
 10
78.06971789633543
 20
114.7586067760521
 30
0.0
 10
78.06971789633543
 20
114.4763888602698
 30
0.0
 10
78.06971789633543
 20
114.4763888602698
 30
0.0
 10
78.10499782728907
 20
101.4588910167088
 30
0.0
 10
78.10499782728907
 20
101.4588910167088
 30
0.0
 10
78.10499782728907
 20
101.4588910167088
 30
0.0
 10
78.10499782728907
 20
101.4588910167088
 30
0.0
 10
78.10499782728907
 20
101.4588910167088
 30
0.0
  0
SPLINE
  5
91
330
70
100
AcDbEntity
  8
Layer 1
 62
    18
420
        0
370
    25
100
AcDbSpline
210
0.0
220
0.0
230
1.0
 70
     9
 71
     3
 72
    29
 73
    25
 74
     0
 42
0.0000000001
 43
0.0000000001
 40
0.0
 40
0.0
 40
0.0
 40
0.0
 40
1.0
 40
1.0
 40
1.0
 40
2.0
 40
2.0
 40
2.0
 40
3.0
 40
3.0
 40
3.0
 40
4.0
 40
4.0
 40
4.0
 40
5.0
 40
5.0
 40
5.0
 40
6.0
 40
6.0
 40
6.0
 40
7.0
 40
7.0
 40
7.0
 40
8.0
 40
8.0
 40
8.0
 40
8.0
 10
149.5424978094297
 20
101.4588910167088
 30
0.0
 10
149.5424978094297
 20
101.1766731009265
 30
0.0
 10
149.7541666292281
 20
100.9650042811281
 30
0.0
 10
150.0363845450104
 20
100.9650042811281
 30
0.0
 10
150.0363845450104
 20
100.9650042811281
 30
0.0
 10
163.0538823885714
 20
100.9650042811281
 30
0.0
 10
163.0538823885714
 20
100.9650042811281
 30
0.0
 10
163.3361003043537
 20
100.9650042811281
 30
0.0
 10
163.5477691241521
 20
101.1766731009265
 30
0.0
 10
163.5477691241521
 20
101.4588910167088
 30
0.0
 10
163.5477691241521
 20
101.4588910167088
 30
0.0
 10
163.5477691241521
 20
114.4763888602698
 30
0.0
 10
163.5477691241521
 20
114.4763888602698
 30
0.0
 10
163.5477691241521
 20
114.7586067760521
 30
0.0
 10
163.3361003043537
 20
114.9702755958505
 30
0.0
 10
163.0538823885714
 20
114.9702755958505
 30
0.0
 10
163.0538823885714
 20
114.9702755958505
 30
0.0
 10
150.0363845450104
 20
114.9702755958505
 30
0.0
 10
150.0363845450104
 20
114.9702755958505
 30
0.0
 10
149.7541666292281
 20
114.9702755958505
 30
0.0
 10
149.5424978094297
 20
114.7586067760521
 30
0.0
 10
149.5424978094297
 20
114.4763888602698
 30
0.0
 10
149.5424978094297
 20
114.4763888602698
 30
0.0
 10
149.5424978094297
 20
101.4588910167088
 30
0.0
 10
149.5424978094297
 20
101.4588910167088
 30
0.0
  0
SPLINE
  5
92
330
70
100
AcDbEntity
  8
Layer 1
 62
    18
420
        0
370
    25
100
AcDbSpline
210
0.0
220
0.0
230
1.0
 70
     9
 71
     3
 72
    32
 73
    28
 74
     0
 42
0.0000000001
 43
0.0000000001
 40
0.0
 40
0.0
 40
0.0
 40
0.0
 40
1.0
 40
1.0
 40
1.0
 40
2.0
 40
2.0
 40
2.0
 40
3.0
 40
3.0
 40
3.0
 40
4.0
 40
4.0
 40
4.0
 40
5.0
 40
5.0
 40
5.0
 40
6.0
 40
6.0
 40
6.0
 40
7.0
 40
7.0
 40
7.0
 40
8.0
 40
8.0
 40
8.0
 40
9.0
 40
9.0
 40
9.0
 40
9.0
 10
168.5924978046672
 20
101.4588910167088
 30
0.0
 10
168.5924978046672
 20
101.1766731009265
 30
0.0
 10
168.8041666244656
 20
100.9650042811281
 30
0.0
 10
169.0863845402479
 20
100.9650042811281
 30
0.0
 10
169.0863845402479
 20
100.9650042811281
 30
0.0
 10
182.1038931497323
 20
100.9650042811281
 30
0.0
 10
182.1038931497323
 20
100.9650042811281
 30
0.0
 10
182.3861110655146
 20
100.9650042811281
 30
0.0
 10
182.5977906512364
 20
101.1766731009265
 30
0.0
 10
182.5977906512364
 20
101.4588910167088
 30
0.0
 10
182.5977906512364
 20
101.4588910167088
 30
0.0
 10
182.5977906512364
 20
114.4763888602698
 30
0.0
 10
182.5977906512364
 20
114.4763888602698
 30
0.0
 10
182.5977906512364
 20
114.7586067760521
 30
0.0
 10
182.3861325973614
 20
114.9702755958505
 30
0.0
 10
182.1038931497323
 20
114.9702755958505
 30
0.0
 10
182.1038931497323
 20
114.9702755958505
 30
0.0
 10
169.0863953061713
 20
114.9702755958505
 30
0.0
 10
169.0863953061713
 20
114.9702755958505
 30
0.0
 10
168.804177390389
 20
114.9702755958505
 30
0.0
 10
168.5925085705906
 20
114.7586067760521
 30
0.0
 10
168.5925085705906
 20
114.4763888602698
 30
0.0
 10
168.5925085705906
 20
114.4763888602698
 30
0.0
 10
168.5925085705906
 20
101.4588910167088
 30
0.0
 10
168.5925085705906
 20
101.4588910167088
 30
0.0
 10
168.5925085705906
 20
101.4588910167088
 30
0.0
 10
168.5924978046672
 20
101.4588910167088
 30
0.0
 10
168.5924978046672
 20
101.4588910167088
 30
0.0
  0
SPLINE
  5
93
330
70
100
AcDbEntity
  8
Layer 1
 62
    18
420
        0
370
    25
100
AcDbSpline
210
0.0
220
0.0
230
1.0
 70
     9
 71
     3
 72
    29
 73
    25
 74
     0
 42
0.0000000001
 43
0.0000000001
 40
0.0
 40
0.0
 40
0.0
 40
0.0
 40
1.0
 40
1.0
 40
1.0
 40
2.0
 40
2.0
 40
2.0
 40
3.0
 40
3.0
 40
3.0
 40
4.0
 40
4.0
 40
4.0
 40
5.0
 40
5.0
 40
5.0
 40
6.0
 40
6.0
 40
6.0
 40
7.0
 40
7.0
 40
7.0
 40
8.0
 40
8.0
 40
8.0
 40
8.0
 10
187.6425085658281
 20
101.4588910167088
 30
0.0
 10
187.6425085658281
 20
101.1766731009265
 30
0.0
 10
187.8541666197031
 20
100.9650042811281
 30
0.0
 10
188.1364060673322
 20
100.9650042811281
 30
0.0
 10
188.1364060673322
 20
100.9650042811281
 30
0.0
 10
201.1539146768166
 20
100.9650042811281
 30
0.0
 10
201.1539146768166
 20
100.9650042811281
 30
0.0
 10
201.4361325925989
 20
100.9650042811281
 30
0.0
 10
201.6478121783207
 20
101.1766731009265
 30
0.0
 10
201.6478121783207
 20
101.4588910167088
 30
0.0
 10
201.6478121783207
 20
101.4588910167088
 30
0.0
 10
201.6478121783207
 20
114.4763888602698
 30
0.0
 10
201.6478121783207
 20
114.4763888602698
 30
0.0
 10
201.6478121783207
 20
114.7586067760521
 30
0.0
 10
201.4361541244457
 20
114.9702755958505
 30
0.0
 10
201.1539146768166
 20
114.9702755958505
 30
0.0
 10
201.1539146768166
 20
114.9702755958505
 30
0.0
 10
188.1364060673322
 20
114.9702755958505
 30
0.0
 10
188.1364060673322
 20
114.9702755958505
 30
0.0
 10
187.8541881515499
 20
114.9702755958505
 30
0.0
 10
187.6425085658281
 20
114.7586067760521
 30
0.0
 10
187.6425085658281
 20
114.4763888602698
 30
0.0
 10
187.6425085658281
 20
114.4763888602698
 30
0.0
 10
187.6425085658281
 20
101.4588910167088
 30
0.0
 10
187.6425085658281
 20
101.4588910167088
 30
0.0
  0
SPLINE
  5
94
330
70
100
AcDbEntity
  8
Layer 1
 62
    18
420
        0
370
    25
100
AcDbSpline
210
0.0
220
0.0
230
1.0
 70
     9
 71
     3
 72
    29
 73
    25
 74
     0
 42
0.0000000001
 43
0.0000000001
 40
0.0
 40
0.0
 40
0.0
 40
0.0
 40
1.0
 40
1.0
 40
1.0
 40
2.0
 40
2.0
 40
2.0
 40
3.0
 40
3.0
 40
3.0
 40
4.0
 40
4.0
 40
4.0
 40
5.0
 40
5.0
 40
5.0
 40
6.0
 40
6.0
 40
6.0
 40
7.0
 40
7.0
 40
7.0
 40
8.0
 40
8.0
 40
8.0
 40
8.0
 10
244.7925085515406
 20
101.4588910167088
 30
0.0
 10
244.7925085515406
 20
101.1766731009265
 30
0.0
 10
245.0041666054156
 20
100.9650042811281
 30
0.0
 10
245.2864060530448
 20
100.9650042811281
 30
0.0
 10
245.2864060530448
 20
100.9650042811281
 30
0.0
 10
258.268623965652
 20
100.9650042811281
 30
0.0
 10
258.268623965652
 20
100.9650042811281
 30
0.0
 10
258.5508418814344
 20
100.9650042811281
 30
0.0
 10
258.7625214671561
 20
101.1766731009265
 30
0.0
 10
258.7625214671561
 20
101.4588910167088
 30
0.0
 10
258.7625214671561
 20
101.4588910167088
 30
0.0
 10
258.7625214671561
 20
114.4763888602698
 30
0.0
 10
258.7625214671561
 20
114.4763888602698
 30
0.0
 10
258.7625214671561
 20
114.7586067760521
 30
0.0
 10
258.5508634132811
 20
114.9702755958505
 30
0.0
 10
258.268623965652
 20
114.9702755958505
 30
0.0
 10
258.268623965652
 20
114.9702755958505
 30
0.0
 10
245.2864060530448
 20
114.9702755958505
 30
0.0
 10
245.2864060530448
 20
114.9702755958505
 30
0.0
 10
245.0041881372624
 20
114.9702755958505
 30
0.0
 10
244.7925085515406
 20
114.7586067760521
 30
0.0
 10
244.7925085515406
 20
114.4763888602698
 30
0.0
 10
244.7925085515406
 20
114.4763888602698
 30
0.0
 10
244.7925085515406
 20
101.4588910167088
 30
0.0
 10
244.7925085515406
 20
101.4588910167088
 30
0.0
  0
SPLINE
  5
95
330
70
100
AcDbEntity
  8
Layer 1
 62
    18
420
        0
370
    25
100
AcDbSpline
210
0.0
220
0.0
230
1.0
 70
     9
 71
     3
 72
    29
 73
    25
 74
     0
 42
0.0000000001
 43
0.0000000001
 40
0.0
 40
0.0
 40
0.0
 40
0.0
 40
1.0
 40
1.0
 40
1.0
 40
2.0
 40
2.0
 40
2.0
 40
3.0
 40
3.0
 40
3.0
 40
4.0
 40
4.0
 40
4.0
 40
5.0
 40
5.0
 40
5.0
 40
6.0
 40
6.0
 40
6.0
 40
7.0
 40
7.0
 40
7.0
 40
8.0
 40
8.0
 40
8.0
 40
8.0
 10
225.7425085563031
 20
101.4588910167088
 30
0.0
 10
225.7425085563031
 20
101.1766731009265
 30
0.0
 10
225.9541666101781
 20
100.9650042811281
 30
0.0
 10
226.2364060578072
 20
100.9650042811281
 30
0.0
 10
226.2364060578072
 20
100.9650042811281
 30
0.0
 10
239.2186239704146
 20
100.9650042811281
 30
0.0
 10
239.2186239704146
 20
100.9650042811281
 30
0.0
 10
239.5008418861968
 20
100.9650042811281
 30
0.0
 10
239.7125214719187
 20
101.1766731009265
 30
0.0
 10
239.7125214719187
 20
101.4588910167088
 30
0.0
 10
239.7125214719187
 20
101.4588910167088
 30
0.0
 10
239.7125214719187
 20
114.4763888602698
 30
0.0
 10
239.7125214719187
 20
114.4763888602698
 30
0.0
 10
239.7125214719187
 20
114.7586067760521
 30
0.0
 10
239.5008634180436
 20
114.9702755958505
 30
0.0
 10
239.2186239704146
 20
114.9702755958505
 30
0.0
 10
239.2186239704146
 20
114.9702755958505
 30
0.0
 10
226.2364060578072
 20
114.9702755958505
 30
0.0
 10
226.2364060578072
 20
114.9702755958505
 30
0.0
 10
225.9541881420249
 20
114.9702755958505
 30
0.0
 10
225.7425085563031
 20
114.7586067760521
 30
0.0
 10
225.7425085563031
 20
114.4763888602698
 30
0.0
 10
225.7425085563031
 20
114.4763888602698
 30
0.0
 10
225.7425085563031
 20
101.4588910167088
 30
0.0
 10
225.7425085563031
 20
101.4588910167088
 30
0.0
  0
SPLINE
  5
96
330
70
100
AcDbEntity
  8
Layer 1
 62
    18
420
        0
370
    25
100
AcDbSpline
210
0.0
220
0.0
230
1.0
 70
     9
 71
     3
 72
    32
 73
    28
 74
     0
 42
0.0000000001
 43
0.0000000001
 40
0.0
 40
0.0
 40
0.0
 40
0.0
 40
1.0
 40
1.0
 40
1.0
 40
2.0
 40
2.0
 40
2.0
 40
3.0
 40
3.0
 40
3.0
 40
4.0
 40
4.0
 40
4.0
 40
5.0
 40
5.0
 40
5.0
 40
6.0
 40
6.0
 40
6.0
 40
7.0
 40
7.0
 40
7.0
 40
8.0
 40
8.0
 40
8.0
 40
9.0
 40
9.0
 40
9.0
 40
9.0
 10
206.6925085610656
 20
101.4588910167088
 30
0.0
 10
206.6925085610656
 20
101.1766731009265
 30
0.0
 10
206.9041666149406
 20
100.9650042811281
 30
0.0
 10
207.1864060625697
 20
100.9650042811281
 30
0.0
 10
207.1864060625697
 20
100.9650042811281
 30
0.0
 10
220.168623975177
 20
100.9650042811281
 30
0.0
 10
220.168623975177
 20
100.9650042811281
 30
0.0
 10
220.4508418909593
 20
100.9650042811281
 30
0.0
 10
220.6625214766812
 20
101.1766731009265
 30
0.0
 10
220.6625214766812
 20
101.4588910167088
 30
0.0
 10
220.6625214766812
 20
101.4588910167088
 30
0.0
 10
220.6625214766812
 20
114.4763888602698
 30
0.0
 10
220.6625214766812
 20
114.4763888602698
 30
0.0
 10
220.6625214766812
 20
114.7586067760521
 30
0.0
 10
220.4508634228061
 20
114.9702755958505
 30
0.0
 10
220.168623975177
 20
114.9702755958505
 30
0.0
 10
220.168623975177
 20
114.9702755958505
 30
0.0
 10
207.1511153656927
 20
114.9702755958505
 30
0.0
 10
207.1511153656927
 20
114.9702755958505
 30
0.0
 10
206.8688974499104
 20
114.9702755958505
 30
0.0
 10
206.6572178641886
 20
114.7586067760521
 30
0.0
 10
206.6572178641886
 20
114.4763888602698
 30
0.0
 10
206.6572178641886
 20
114.4763888602698
 30
0.0
 10
206.6925085610656
 20
101.4588910167088
 30
0.0
 10
206.6925085610656
 20
101.4588910167088
 30
0.0
 10
206.6925085610656
 20
101.4588910167088
 30
0.0
 10
206.6925085610656
 20
101.4588910167088
 30
0.0
 10
206.6925085610656
 20
101.4588910167088
 30
0.0
  0
SPLINE
  5
97
330
70
100
AcDbEntity
  8
Layer 1
 62
    18
420
        0
370
    25
100
AcDbSpline
210
0.0
220
0.0
230
1.0
 70
     9
 71
     3
 72
    29
 73
    25
 74
     0
 42
0.0000000001
 43
0.0000000001
 40
0.0
 40
0.0
 40
0.0
 40
0.0
 40
1.0
 40
1.0
 40
1.0
 40
2.0
 40
2.0
 40
2.0
 40
3.0
 40
3.0
 40
3.0
 40
4.0
 40
4.0
 40
4.0
 40
5.0
 40
5.0
 40
5.0
 40
6.0
 40
6.0
 40
6.0
 40
7.0
 40
7.0
 40
7.0
 40
8.0
 40
8.0
 40
8.0
 40
8.0
 10
25.7175005318668
 20
82.40889102147134
 30
0.0
 10
25.7175005318668
 20
82.12667310568903
 30
0.0
 10
25.92916666018437
 20
81.9150042858906
 30
0.0
 10
26.21138995892839
 20
81.9150042858906
 30
0.0
 10
26.21138995892839
 20
81.9150042858906
 30
0.0
 10
39.19361325449738
 20
81.9150042858906
 30
0.0
 10
39.19361325449738
 20
81.9150042858906
 30
0.0
 10
39.4758365532414
 20
81.9150042858906
 30
0.0
 10
39.68750268155897
 20
82.12667310568903
 30
0.0
 10
39.68750268155897
 20
82.40889102147134
 30
0.0
 10
39.68750268155897
 20
82.40889102147134
 30
0.0
 10
39.68750268155897
 20
95.4263888650323
 30
0.0
 10
39.68750268155897
 20
95.4263888650323
 30
0.0
 10
39.68750268155897
 20
95.7086067808146
 30
0.0
 10
39.4758365532414
 20
95.92027560061303
 30
0.0
 10
39.19361325449738
 20
95.92027560061303
 30
0.0
 10
39.19361325449738
 20
95.92027560061303
 30
0.0
 10
26.21138995892839
 20
95.92027560061303
 30
0.0
 10
26.21138995892839
 20
95.92027560061303
 30
0.0
 10
25.92916666018437
 20
95.92027560061303
 30
0.0
 10
25.7175005318668
 20
95.7086067808146
 30
0.0
 10
25.7175005318668
 20
95.4263888650323
 30
0.0
 10
25.7175005318668
 20
95.4263888650323
 30
0.0
 10
25.7175005318668
 20
82.40889102147134
 30
0.0
 10
25.7175005318668
 20
82.40889102147134
 30
0.0
  0
SPLINE
  5
98
330
70
100
AcDbEntity
  8
Layer 1
 62
    18
420
        0
370
    25
100
AcDbSpline
210
0.0
220
0.0
230
1.0
 70
     9
 71
     3
 72
    29
 73
    25
 74
     0
 42
0.0000000001
 43
0.0000000001
 40
0.0
 40
0.0
 40
0.0
 40
0.0
 40
1.0
 40
1.0
 40
1.0
 40
2.0
 40
2.0
 40
2.0
 40
3.0
 40
3.0
 40
3.0
 40
4.0
 40
4.0
 40
4.0
 40
5.0
 40
5.0
 40
5.0
 40
6.0
 40
6.0
 40
6.0
 40
7.0
 40
7.0
 40
7.0
 40
8.0
 40
8.0
 40
8.0
 40
8.0
 10
49.52999783443282
 20
82.40889102147134
 30
0.0
 10
49.52999783443282
 20
82.12667310568903
 30
0.0
 10
49.74166665423125
 20
81.9150042858906
 30
0.0
 10
50.02388457001356
 20
81.9150042858906
 30
0.0
 10
50.02388457001356
 20
81.9150042858906
 30
0.0
 10
63.00610786558257
 20
81.9150042858906
 30
0.0
 10
63.00610786558257
 20
81.9150042858906
 30
0.0
 10
63.28833116432657
 20
81.9150042858906
 30
0.0
 10
63.49999460116331
 20
82.12667310568903
 30
0.0
 10
63.49999460116331
 20
82.40889102147134
 30
0.0
 10
63.49999460116331
 20
82.40889102147134
 30
0.0
 10
63.49999460116331
 20
95.4263888650323
 30
0.0
 10
63.49999460116331
 20
95.4263888650323
 30
0.0
 10
63.49999460116331
 20
95.7086067808146
 30
0.0
 10
63.28832578136488
 20
95.92027560061303
 30
0.0
 10
63.00610786558257
 20
95.92027560061303
 30
0.0
 10
63.00610786558257
 20
95.92027560061303
 30
0.0
 10
50.02388457001356
 20
95.92027560061303
 30
0.0
 10
50.02388457001356
 20
95.92027560061303
 30
0.0
 10
49.74166127126956
 20
95.92027560061303
 30
0.0
 10
49.52999783443282
 20
95.7086067808146
 30
0.0
 10
49.52999783443282
 20
95.4263888650323
 30
0.0
 10
49.52999783443282
 20
95.39110893407865
 30
0.0
 10
49.52999783443282
 20
82.40889102147134
 30
0.0
 10
49.52999783443282
 20
82.40889102147134
 30
0.0
  0
SPLINE
  5
99
330
70
100
AcDbEntity
  8
Layer 1
 62
    18
420
        0
370
    25
100
AcDbSpline
210
0.0
220
0.0
230
1.0
 70
     9
 71
     3
 72
    29
 73
    25
 74
     0
 42
0.0000000001
 43
0.0000000001
 40
0.0
 40
0.0
 40
0.0
 40
0.0
 40
1.0
 40
1.0
 40
1.0
 40
2.0
 40
2.0
 40
2.0
 40
3.0
 40
3.0
 40
3.0
 40
4.0
 40
4.0
 40
4.0
 40
5.0
 40
5.0
 40
5.0
 40
6.0
 40
6.0
 40
6.0
 40
7.0
 40
7.0
 40
7.0
 40
8.0
 40
8.0
 40
8.0
 40
8.0
 10
68.57999782967032
 20
82.40889102147134
 30
0.0
 10
68.57999782967032
 20
82.12667310568903
 30
0.0
 10
68.79166664946875
 20
81.9150042858906
 30
0.0
 10
69.07388456525106
 20
81.9150042858906
 30
0.0
 10
69.07388456525106
 20
81.9150042858906
 30
0.0
 10
82.05610786082006
 20
81.9150042858906
 30
0.0
 10
82.05610786082006
 20
81.9150042858906
 30
0.0
 10
82.33833115956407
 20
81.9150042858906
 30
0.0
 10
82.5499945964008
 20
82.12667310568903
 30
0.0
 10
82.5499945964008
 20
82.40889102147134
 30
0.0
 10
82.5499945964008
 20
82.40889102147134
 30
0.0
 10
82.5499945964008
 20
95.4263888650323
 30
0.0
 10
82.5499945964008
 20
95.4263888650323
 30
0.0
 10
82.5499945964008
 20
95.7086067808146
 30
0.0
 10
82.33832577660237
 20
95.92027560061303
 30
0.0
 10
82.05610786082006
 20
95.92027560061303
 30
0.0
 10
82.05610786082006
 20
95.92027560061303
 30
0.0
 10
69.03860463429743
 20
95.92027560061303
 30
0.0
 10
69.03860463429743
 20
95.92027560061303
 30
0.0
 10
68.75638133555343
 20
95.92027560061303
 30
0.0
 10
68.54471789871668
 20
95.7086067808146
 30
0.0
 10
68.54471789871668
 20
95.4263888650323
 30
0.0
 10
68.57999782967032
 20
95.39110893407865
 30
0.0
 10
68.57999782967032
 20
82.40889102147134
 30
0.0
 10
68.57999782967032
 20
82.40889102147134
 30
0.0
  0
SPLINE
  5
9A
330
70
100
AcDbEntity
  8
Layer 1
 62
    18
420
        0
370
    25
100
AcDbSpline
210
0.0
220
0.0
230
1.0
 70
     9
 71
     3
 72
    29
 73
    25
 74
     0
 42
0.0000000001
 43
0.0000000001
 40
0.0
 40
0.0
 40
0.0
 40
0.0
 40
1.0
 40
1.0
 40
1.0
 40
2.0
 40
2.0
 40
2.0
 40
3.0
 40
3.0
 40
3.0
 40
4.0
 40
4.0
 40
4.0
 40
5.0
 40
5.0
 40
5.0
 40
6.0
 40
6.0
 40
6.0
 40
7.0
 40
7.0
 40
7.0
 40
8.0
 40
8.0
 40
8.0
 40
8.0
 10
132.8913931620354
 20
82.40889102147134
 30
0.0
 10
132.8913931620354
 20
82.12667310568903
 30
0.0
 10
133.1030619818338
 20
81.9150042858906
 30
0.0
 10
133.3852798976161
 20
81.9150042858906
 30
0.0
 10
133.3852798976161
 20
81.9150042858906
 30
0.0
 10
146.4027777411771
 20
81.9150042858906
 30
0.0
 10
146.4027777411771
 20
81.9150042858906
 30
0.0
 10
146.6849956569594
 20
81.9150042858906
 30
0.0
 10
146.8966644767578
 20
82.12667310568903
 30
0.0
 10
146.8966644767578
 20
82.40889102147134
 30
0.0
 10
146.8966644767578
 20
82.40889102147134
 30
0.0
 10
146.8966644767578
 20
95.4263888650323
 30
0.0
 10
146.8966644767578
 20
95.4263888650323
 30
0.0
 10
146.8966644767578
 20
95.7086067808146
 30
0.0
 10
146.6849956569594
 20
95.92027560061303
 30
0.0
 10
146.4027777411771
 20
95.92027560061303
 30
0.0
 10
146.4027777411771
 20
95.92027560061303
 30
0.0
 10
133.3852798976161
 20
95.92027560061303
 30
0.0
 10
133.3852798976161
 20
95.92027560061303
 30
0.0
 10
133.1030619818338
 20
95.92027560061303
 30
0.0
 10
132.8913931620354
 20
95.7086067808146
 30
0.0
 10
132.8913931620354
 20
95.4263888650323
 30
0.0
 10
132.8913931620354
 20
95.4263888650323
 30
0.0
 10
132.8913931620354
 20
82.40889102147134
 30
0.0
 10
132.8913931620354
 20
82.40889102147134
 30
0.0
  0
SPLINE
  5
9B
330
70
100
AcDbEntity
  8
Layer 1
 62
    18
420
        0
370
    25
100
AcDbSpline
210
0.0
220
0.0
230
1.0
 70
     9
 71
     3
 72
    32
 73
    28
 74
     0
 42
0.0000000001
 43
0.0000000001
 40
0.0
 40
0.0
 40
0.0
 40
0.0
 40
1.0
 40
1.0
 40
1.0
 40
2.0
 40
2.0
 40
2.0
 40
3.0
 40
3.0
 40
3.0
 40
4.0
 40
4.0
 40
4.0
 40
5.0
 40
5.0
 40
5.0
 40
6.0
 40
6.0
 40
6.0
 40
7.0
 40
7.0
 40
7.0
 40
8.0
 40
8.0
 40
8.0
 40
9.0
 40
9.0
 40
9.0
 40
9.0
 10
106.6799978201453
 20
82.40889102147134
 30
0.0
 10
106.6799978201453
 20
82.12667310568903
 30
0.0
 10
106.8916666399437
 20
81.9150042858906
 30
0.0
 10
107.173884555726
 20
81.9150042858906
 30
0.0
 10
107.173884555726
 20
81.9150042858906
 30
0.0
 10
120.1561024683333
 20
81.9150042858906
 30
0.0
 10
120.1561024683333
 20
81.9150042858906
 30
0.0
 10
120.4383203841157
 20
81.9150042858906
 30
0.0
 10
120.6499892039141
 20
82.12667310568903
 30
0.0
 10
120.6499892039141
 20
82.40889102147134
 30
0.0
 10
120.6499892039141
 20
82.40889102147134
 30
0.0
 10
120.6499892039141
 20
95.4263888650323
 30
0.0
 10
120.6499892039141
 20
95.4263888650323
 30
0.0
 10
120.6499892039141
 20
95.7086067808146
 30
0.0
 10
120.4383203841157
 20
95.92027560061303
 30
0.0
 10
120.1561024683333
 20
95.92027560061303
 30
0.0
 10
120.1561024683333
 20
95.92027560061303
 30
0.0
 10
107.1386046247724
 20
95.92027560061303
 30
0.0
 10
107.1386046247724
 20
95.92027560061303
 30
0.0
 10
106.8563867089901
 20
95.92027560061303
 30
0.0
 10
106.6447178891917
 20
95.7086067808146
 30
0.0
 10
106.6447178891917
 20
95.4263888650323
 30
0.0
 10
106.6447178891917
 20
95.4263888650323
 30
0.0
 10
106.6799978201453
 20
82.40889102147134
 30
0.0
 10
106.6799978201453
 20
82.40889102147134
 30
0.0
 10
106.6799978201453
 20
82.40889102147134
 30
0.0
 10
106.6799978201453
 20
82.40889102147134
 30
0.0
 10
106.6799978201453
 20
82.40889102147134
 30
0.0
  0
SPLINE
  5
9C
330
70
100
AcDbEntity
  8
Layer 1
 62
    18
420
        0
370
    25
100
AcDbSpline
210
0.0
220
0.0
230
1.0
 70
     9
 71
     3
 72
    32
 73
    28
 74
     0
 42
0.0000000001
 43
0.0000000001
 40
0.0
 40
0.0
 40
0.0
 40
0.0
 40
1.0
 40
1.0
 40
1.0
 40
2.0
 40
2.0
 40
2.0
 40
3.0
 40
3.0
 40
3.0
 40
4.0
 40
4.0
 40
4.0
 40
5.0
 40
5.0
 40
5.0
 40
6.0
 40
6.0
 40
6.0
 40
7.0
 40
7.0
 40
7.0
 40
8.0
 40
8.0
 40
8.0
 40
9.0
 40
9.0
 40
9.0
 40
9.0
 10
87.62999782490783
 20
82.40889102147134
 30
0.0
 10
87.62999782490783
 20
82.12667310568903
 30
0.0
 10
87.84166664470625
 20
81.9150042858906
 30
0.0
 10
88.12388456048855
 20
81.9150042858906
 30
0.0
 10
88.12388456048855
 20
81.9150042858906
 30
0.0
 10
101.1061024730959
 20
81.9150042858906
 30
0.0
 10
101.1061024730959
 20
81.9150042858906
 30
0.0
 10
101.3883203888782
 20
81.9150042858906
 30
0.0
 10
101.5999892086766
 20
82.12667310568903
 30
0.0
 10
101.5999892086766
 20
82.40889102147134
 30
0.0
 10
101.5999892086766
 20
82.40889102147134
 30
0.0
 10
101.5999892086766
 20
95.4263888650323
 30
0.0
 10
101.5999892086766
 20
95.4263888650323
 30
0.0
 10
101.5999892086766
 20
95.7086067808146
 30
0.0
 10
101.3883203888782
 20
95.92027560061303
 30
0.0
 10
101.1061024730959
 20
95.92027560061303
 30
0.0
 10
101.1061024730959
 20
95.92027560061303
 30
0.0
 10
88.08860462953493
 20
95.92027560061303
 30
0.0
 10
88.08860462953493
 20
95.92027560061303
 30
0.0
 10
87.80638133079092
 20
95.92027560061303
 30
0.0
 10
87.59471789395417
 20
95.7086067808146
 30
0.0
 10
87.59471789395417
 20
95.4263888650323
 30
0.0
 10
87.59471789395417
 20
95.4263888650323
 30
0.0
 10
87.62999782490783
 20
82.40889102147134
 30
0.0
 10
87.62999782490783
 20
82.40889102147134
 30
0.0
 10
87.62999782490783
 20
82.40889102147134
 30
0.0
 10
87.62999782490783
 20
82.40889102147134
 30
0.0
 10
87.62999782490783
 20
82.40889102147134
 30
0.0
  0
SPLINE
  5
9D
330
70
100
AcDbEntity
  8
Layer 1
 62
    18
420
        0
370
    25
100
AcDbSpline
210
0.0
220
0.0
230
1.0
 70
     9
 71
     3
 72
    29
 73
    25
 74
     0
 42
0.0000000001
 43
0.0000000001
 40
0.0
 40
0.0
 40
0.0
 40
0.0
 40
1.0
 40
1.0
 40
1.0
 40
2.0
 40
2.0
 40
2.0
 40
3.0
 40
3.0
 40
3.0
 40
4.0
 40
4.0
 40
4.0
 40
5.0
 40
5.0
 40
5.0
 40
6.0
 40
6.0
 40
6.0
 40
7.0
 40
7.0
 40
7.0
 40
8.0
 40
8.0
 40
8.0
 40
8.0
 10
23.35388780645808
 20
63.35889102623385
 30
0.0
 10
23.35388780645808
 20
63.07667311045154
 30
0.0
 10
23.56555393477566
 20
62.86500429065311
 30
0.0
 10
23.84777723351966
 20
62.86500429065311
 30
0.0
 10
23.84777723351966
 20
62.86500429065311
 30
0.0
 10
36.82999783760782
 20
62.86500429065311
 30
0.0
 10
36.82999783760782
 20
62.86500429065311
 30
0.0
 10
37.11222113635183
 20
62.86500429065311
 30
0.0
 10
37.32388726466941
 20
63.07667311045154
 30
0.0
 10
37.32388726466941
 20
63.35889102623385
 30
0.0
 10
37.32388726466941
 20
63.35889102623385
 30
0.0
 10
37.32388726466941
 20
76.3763888697948
 30
0.0
 10
37.32388726466941
 20
76.3763888697948
 30
0.0
 10
37.32388726466941
 20
76.6586067855771
 30
0.0
 10
37.11222113635183
 20
76.87027560537554
 30
0.0
 10
36.82999783760782
 20
76.87027560537554
 30
0.0
 10
36.82999783760782
 20
76.87027560537554
 30
0.0
 10
23.84777723351966
 20
76.87027560537554
 30
0.0
 10
23.84777723351966
 20
76.87027560537554
 30
0.0
 10
23.56555393477566
 20
76.87027560537554
 30
0.0
 10
23.35388780645808
 20
76.6586067855771
 30
0.0
 10
23.35388780645808
 20
76.3763888697948
 30
0.0
 10
23.35388780645808
 20
76.3763888697948
 30
0.0
 10
23.35388780645808
 20
63.35889102623385
 30
0.0
 10
23.35388780645808
 20
63.35889102623385
 30
0.0
  0
SPLINE
  5
9E
330
70
100
AcDbEntity
  8
Layer 1
 62
    18
420
        0
370
    25
100
AcDbSpline
210
0.0
220
0.0
230
1.0
 70
     9
 71
     3
 72
    29
 73
    25
 74
     0
 42
0.0000000001
 43
0.0000000001
 40
0.0
 40
0.0
 40
0.0
 40
0.0
 40
1.0
 40
1.0
 40
1.0
 40
2.0
 40
2.0
 40
2.0
 40
3.0
 40
3.0
 40
3.0
 40
4.0
 40
4.0
 40
4.0
 40
5.0
 40
5.0
 40
5.0
 40
6.0
 40
6.0
 40
6.0
 40
7.0
 40
7.0
 40
7.0
 40
8.0
 40
8.0
 40
8.0
 40
8.0
 10
240.0300085527312
 20
82.40889102147134
 30
0.0
 10
240.0300085527312
 20
82.12667310568903
 30
0.0
 10
240.2416666066063
 20
81.9150042858906
 30
0.0
 10
240.5239060542353
 20
81.9150042858906
 30
0.0
 10
240.5239060542353
 20
81.9150042858906
 30
0.0
 10
253.5061239668427
 20
81.9150042858906
 30
0.0
 10
253.5061239668427
 20
81.9150042858906
 30
0.0
 10
253.788341882625
 20
81.9150042858906
 30
0.0
 10
254.0000214683468
 20
82.12667310568903
 30
0.0
 10
254.0000214683468
 20
82.40889102147134
 30
0.0
 10
254.0000214683468
 20
82.40889102147134
 30
0.0
 10
254.0000214683468
 20
95.4263888650323
 30
0.0
 10
254.0000214683468
 20
95.4263888650323
 30
0.0
 10
254.0000214683468
 20
95.7086067808146
 30
0.0
 10
253.7883634144717
 20
95.92027560061303
 30
0.0
 10
253.5061239668427
 20
95.92027560061303
 30
0.0
 10
253.5061239668427
 20
95.92027560061303
 30
0.0
 10
240.5239060542353
 20
95.92027560061303
 30
0.0
 10
240.5239060542353
 20
95.92027560061303
 30
0.0
 10
240.241688138453
 20
95.92027560061303
 30
0.0
 10
240.0300085527312
 20
95.7086067808146
 30
0.0
 10
240.0300085527312
 20
95.4263888650323
 30
0.0
 10
240.0300085527312
 20
95.4263888650323
 30
0.0
 10
240.0300085527312
 20
82.40889102147134
 30
0.0
 10
240.0300085527312
 20
82.40889102147134
 30
0.0
  0
SPLINE
  5
9F
330
70
100
AcDbEntity
  8
Layer 1
 62
    18
420
        0
370
    25
100
AcDbSpline
210
0.0
220
0.0
230
1.0
 70
     9
 71
     3
 72
    29
 73
    25
 74
     0
 42
0.0000000001
 43
0.0000000001
 40
0.0
 40
0.0
 40
0.0
 40
0.0
 40
1.0
 40
1.0
 40
1.0
 40
2.0
 40
2.0
 40
2.0
 40
3.0
 40
3.0
 40
3.0
 40
4.0
 40
4.0
 40
4.0
 40
5.0
 40
5.0
 40
5.0
 40
6.0
 40
6.0
 40
6.0
 40
7.0
 40
7.0
 40
7.0
 40
8.0
 40
8.0
 40
8.0
 40
8.0
 10
216.2175085586844
 20
82.40889102147134
 30
0.0
 10
216.2175085586844
 20
82.12667310568903
 30
0.0
 10
216.4291666125594
 20
81.9150042858906
 30
0.0
 10
216.7114060601885
 20
81.9150042858906
 30
0.0
 10
216.7114060601885
 20
81.9150042858906
 30
0.0
 10
229.6936239727958
 20
81.9150042858906
 30
0.0
 10
229.6936239727958
 20
81.9150042858906
 30
0.0
 10
229.9758418885781
 20
81.9150042858906
 30
0.0
 10
230.1875214742999
 20
82.12667310568903
 30
0.0
 10
230.1875214742999
 20
82.40889102147134
 30
0.0
 10
230.1875214742999
 20
82.40889102147134
 30
0.0
 10
230.1875214742999
 20
95.4263888650323
 30
0.0
 10
230.1875214742999
 20
95.4263888650323
 30
0.0
 10
230.1875214742999
 20
95.7086067808146
 30
0.0
 10
229.9758634204249
 20
95.92027560061303
 30
0.0
 10
229.6936239727958
 20
95.92027560061303
 30
0.0
 10
229.6936239727958
 20
95.92027560061303
 30
0.0
 10
216.7114060601885
 20
95.92027560061303
 30
0.0
 10
216.7114060601885
 20
95.92027560061303
 30
0.0
 10
216.4291881444062
 20
95.92027560061303
 30
0.0
 10
216.2175085586844
 20
95.7086067808146
 30
0.0
 10
216.2175085586844
 20
95.4263888650323
 30
0.0
 10
216.2175085586844
 20
95.4263888650323
 30
0.0
 10
216.2175085586844
 20
82.40889102147134
 30
0.0
 10
216.2175085586844
 20
82.40889102147134
 30
0.0
  0
SPLINE
  5
A0
330
70
100
AcDbEntity
  8
Layer 1
 62
    18
420
        0
370
    25
100
AcDbSpline
210
0.0
220
0.0
230
1.0
 70
     9
 71
     3
 72
    29
 73
    25
 74
     0
 42
0.0000000001
 43
0.0000000001
 40
0.0
 40
0.0
 40
0.0
 40
0.0
 40
1.0
 40
1.0
 40
1.0
 40
2.0
 40
2.0
 40
2.0
 40
3.0
 40
3.0
 40
3.0
 40
4.0
 40
4.0
 40
4.0
 40
5.0
 40
5.0
 40
5.0
 40
6.0
 40
6.0
 40
6.0
 40
7.0
 40
7.0
 40
7.0
 40
8.0
 40
8.0
 40
8.0
 40
8.0
 10
159.0674978070484
 20
82.40889102147134
 30
0.0
 10
159.0674978070484
 20
82.12667310568903
 30
0.0
 10
159.2791666268469
 20
81.9150042858906
 30
0.0
 10
159.5613845426291
 20
81.9150042858906
 30
0.0
 10
159.5613845426291
 20
81.9150042858906
 30
0.0
 10
172.5788823861901
 20
81.9150042858906
 30
0.0
 10
172.5788823861901
 20
81.9150042858906
 30
0.0
 10
172.8611003019724
 20
81.9150042858906
 30
0.0
 10
173.0727691217708
 20
82.12667310568903
 30
0.0
 10
173.0727691217708
 20
82.40889102147134
 30
0.0
 10
173.0727691217708
 20
82.40889102147134
 30
0.0
 10
173.0727691217708
 20
95.4263888650323
 30
0.0
 10
173.0727691217708
 20
95.4263888650323
 30
0.0
 10
173.0727691217708
 20
95.7086067808146
 30
0.0
 10
172.8611003019724
 20
95.92027560061303
 30
0.0
 10
172.5788823861901
 20
95.92027560061303
 30
0.0
 10
172.5788823861901
 20
95.92027560061303
 30
0.0
 10
159.5613845426291
 20
95.92027560061303
 30
0.0
 10
159.5613845426291
 20
95.92027560061303
 30
0.0
 10
159.2791666268469
 20
95.92027560061303
 30
0.0
 10
159.0674978070484
 20
95.7086067808146
 30
0.0
 10
159.0674978070484
 20
95.4263888650323
 30
0.0
 10
159.0674978070484
 20
95.4263888650323
 30
0.0
 10
159.0674978070484
 20
82.40889102147134
 30
0.0
 10
159.0674978070484
 20
82.40889102147134
 30
0.0
  0
SPLINE
  5
A1
330
70
100
AcDbEntity
  8
Layer 1
 62
    18
420
        0
370
    25
100
AcDbSpline
210
0.0
220
0.0
230
1.0
 70
     9
 71
     3
 72
    29
 73
    25
 74
     0
 42
0.0000000001
 43
0.0000000001
 40
0.0
 40
0.0
 40
0.0
 40
0.0
 40
1.0
 40
1.0
 40
1.0
 40
2.0
 40
2.0
 40
2.0
 40
3.0
 40
3.0
 40
3.0
 40
4.0
 40
4.0
 40
4.0
 40
5.0
 40
5.0
 40
5.0
 40
6.0
 40
6.0
 40
6.0
 40
7.0
 40
7.0
 40
7.0
 40
8.0
 40
8.0
 40
8.0
 40
8.0
 10
197.1675085634468
 20
82.40889102147134
 30
0.0
 10
197.1675085634468
 20
82.12667310568903
 30
0.0
 10
197.3791666173219
 20
81.9150042858906
 30
0.0
 10
197.6614060649509
 20
81.9150042858906
 30
0.0
 10
197.6614060649509
 20
81.9150042858906
 30
0.0
 10
210.6789146744353
 20
81.9150042858906
 30
0.0
 10
210.6789146744353
 20
81.9150042858906
 30
0.0
 10
210.9611325902176
 20
81.9150042858906
 30
0.0
 10
211.1728121759394
 20
82.12667310568903
 30
0.0
 10
211.1728121759394
 20
82.40889102147134
 30
0.0
 10
211.1728121759394
 20
82.40889102147134
 30
0.0
 10
211.1728121759394
 20
95.4263888650323
 30
0.0
 10
211.1728121759394
 20
95.4263888650323
 30
0.0
 10
211.1728121759394
 20
95.7086067808146
 30
0.0
 10
210.9611541220644
 20
95.92027560061303
 30
0.0
 10
210.6789146744353
 20
95.92027560061303
 30
0.0
 10
210.6789146744353
 20
95.92027560061303
 30
0.0
 10
197.6614060649509
 20
95.92027560061303
 30
0.0
 10
197.6614060649509
 20
95.92027560061303
 30
0.0
 10
197.3791881491687
 20
95.92027560061303
 30
0.0
 10
197.1675085634468
 20
95.7086067808146
 30
0.0
 10
197.1675085634468
 20
95.4263888650323
 30
0.0
 10
197.1675085634468
 20
95.4263888650323
 30
0.0
 10
197.1675085634468
 20
82.40889102147134
 30
0.0
 10
197.1675085634468
 20
82.40889102147134
 30
0.0
  0
SPLINE
  5
A2
330
70
100
AcDbEntity
  8
Layer 1
 62
    18
420
        0
370
    25
100
AcDbSpline
210
0.0
220
0.0
230
1.0
 70
     9
 71
     3
 72
    32
 73
    28
 74
     0
 42
0.0000000001
 43
0.0000000001
 40
0.0
 40
0.0
 40
0.0
 40
0.0
 40
1.0
 40
1.0
 40
1.0
 40
2.0
 40
2.0
 40
2.0
 40
3.0
 40
3.0
 40
3.0
 40
4.0
 40
4.0
 40
4.0
 40
5.0
 40
5.0
 40
5.0
 40
6.0
 40
6.0
 40
6.0
 40
7.0
 40
7.0
 40
7.0
 40
8.0
 40
8.0
 40
8.0
 40
9.0
 40
9.0
 40
9.0
 40
9.0
 10
178.1174978022859
 20
82.40889102147134
 30
0.0
 10
178.1174978022859
 20
82.12667310568903
 30
0.0
 10
178.3291666220844
 20
81.9150042858906
 30
0.0
 10
178.6113845378667
 20
81.9150042858906
 30
0.0
 10
178.6113845378667
 20
81.9150042858906
 30
0.0
 10
191.628893147351
 20
81.9150042858906
 30
0.0
 10
191.628893147351
 20
81.9150042858906
 30
0.0
 10
191.9111110631333
 20
81.9150042858906
 30
0.0
 10
192.1227906488551
 20
82.12667310568903
 30
0.0
 10
192.1227906488551
 20
82.40889102147134
 30
0.0
 10
192.1227906488551
 20
82.40889102147134
 30
0.0
 10
192.1227906488551
 20
95.4263888650323
 30
0.0
 10
192.1227906488551
 20
95.4263888650323
 30
0.0
 10
192.1227906488551
 20
95.7086067808146
 30
0.0
 10
191.9111325949801
 20
95.92027560061303
 30
0.0
 10
191.628893147351
 20
95.92027560061303
 30
0.0
 10
191.628893147351
 20
95.92027560061303
 30
0.0
 10
178.6113953037901
 20
95.92027560061303
 30
0.0
 10
178.6113953037901
 20
95.92027560061303
 30
0.0
 10
178.3291773880077
 20
95.92027560061303
 30
0.0
 10
178.1175085682093
 20
95.7086067808146
 30
0.0
 10
178.1175085682093
 20
95.4263888650323
 30
0.0
 10
178.1175085682093
 20
95.4263888650323
 30
0.0
 10
178.1175085682093
 20
82.40889102147134
 30
0.0
 10
178.1175085682093
 20
82.40889102147134
 30
0.0
 10
178.1175085682093
 20
82.40889102147134
 30
0.0
 10
178.1174978022859
 20
82.40889102147134
 30
0.0
 10
178.1174978022859
 20
82.40889102147134
 30
0.0
  0
SPLINE
  5
A3
330
70
100
AcDbEntity
  8
Layer 1
 62
    18
420
        0
370
    25
100
AcDbSpline
210
0.0
220
0.0
230
1.0
 70
     9
 71
     3
 72
    29
 73
    25
 74
     0
 42
0.0000000001
 43
0.0000000001
 40
0.0
 40
0.0
 40
0.0
 40
0.0
 40
1.0
 40
1.0
 40
1.0
 40
2.0
 40
2.0
 40
2.0
 40
3.0
 40
3.0
 40
3.0
 40
4.0
 40
4.0
 40
4.0
 40
5.0
 40
5.0
 40
5.0
 40
6.0
 40
6.0
 40
6.0
 40
7.0
 40
7.0
 40
7.0
 40
8.0
 40
8.0
 40
8.0
 40
8.0
 10
47.16638780050495
 20
63.35889102623385
 30
0.0
 10
47.16638780050495
 20
63.07667311045154
 30
0.0
 10
47.37805662030338
 20
62.86500429065311
 30
0.0
 10
47.66027453608569
 20
62.86500429065311
 30
0.0
 10
47.66027453608569
 20
62.86500429065311
 30
0.0
 10
60.6424978316547
 20
62.86500429065311
 30
0.0
 10
60.6424978316547
 20
62.86500429065311
 30
0.0
 10
60.92472113039871
 20
62.86500429065311
 30
0.0
 10
61.13638456723544
 20
63.07667311045154
 30
0.0
 10
61.13638456723544
 20
63.35889102623385
 30
0.0
 10
61.13638456723544
 20
63.35889102623385
 30
0.0
 10
61.13638456723544
 20
76.3763888697948
 30
0.0
 10
61.13638456723544
 20
76.3763888697948
 30
0.0
 10
61.13638456723544
 20
76.6586067855771
 30
0.0
 10
60.92471574743701
 20
76.87027560537554
 30
0.0
 10
60.6424978316547
 20
76.87027560537554
 30
0.0
 10
60.6424978316547
 20
76.87027560537554
 30
0.0
 10
47.66027453608569
 20
76.87027560537554
 30
0.0
 10
47.66027453608569
 20
76.87027560537554
 30
0.0
 10
47.37805123734168
 20
76.87027560537554
 30
0.0
 10
47.16638780050495
 20
76.6586067855771
 30
0.0
 10
47.16638780050495
 20
76.3763888697948
 30
0.0
 10
47.16638780050495
 20
76.34110893884116
 30
0.0
 10
47.16638780050495
 20
63.35889102623385
 30
0.0
 10
47.16638780050495
 20
63.35889102623385
 30
0.0
  0
SPLINE
  5
A4
330
70
100
AcDbEntity
  8
Layer 1
 62
    18
420
        0
370
    25
100
AcDbSpline
210
0.0
220
0.0
230
1.0
 70
     9
 71
     3
 72
    29
 73
    25
 74
     0
 42
0.0000000001
 43
0.0000000001
 40
0.0
 40
0.0
 40
0.0
 40
0.0
 40
1.0
 40
1.0
 40
1.0
 40
2.0
 40
2.0
 40
2.0
 40
3.0
 40
3.0
 40
3.0
 40
4.0
 40
4.0
 40
4.0
 40
5.0
 40
5.0
 40
5.0
 40
6.0
 40
6.0
 40
6.0
 40
7.0
 40
7.0
 40
7.0
 40
8.0
 40
8.0
 40
8.0
 40
8.0
 10
70.97888779455182
 20
63.35889102623385
 30
0.0
 10
70.97888779455182
 20
63.07667311045154
 30
0.0
 10
71.19055661435026
 20
62.86500429065311
 30
0.0
 10
71.47277453013257
 20
62.86500429065311
 30
0.0
 10
71.47277453013257
 20
62.86500429065311
 30
0.0
 10
84.45499782570157
 20
62.86500429065311
 30
0.0
 10
84.45499782570157
 20
62.86500429065311
 30
0.0
 10
84.73722112444558
 20
62.86500429065311
 30
0.0
 10
84.94888456128231
 20
63.07667311045154
 30
0.0
 10
84.94888456128231
 20
63.35889102623385
 30
0.0
 10
84.94888456128231
 20
63.35889102623385
 30
0.0
 10
84.94888456128231
 20
76.3763888697948
 30
0.0
 10
84.94888456128231
 20
76.3763888697948
 30
0.0
 10
84.94888456128231
 20
76.6586067855771
 30
0.0
 10
84.73721574148388
 20
76.87027560537554
 30
0.0
 10
84.45499782570157
 20
76.87027560537554
 30
0.0
 10
84.45499782570157
 20
76.87027560537554
 30
0.0
 10
71.43749998214062
 20
76.87027560537554
 30
0.0
 10
71.43749998214062
 20
76.87027560537554
 30
0.0
 10
71.15527668339662
 20
76.87027560537554
 30
0.0
 10
70.94361324655989
 20
76.6586067855771
 30
0.0
 10
70.94361324655989
 20
76.3763888697948
 30
0.0
 10
70.97888779455182
 20
76.34110893884116
 30
0.0
 10
70.97888779455182
 20
63.35889102623385
 30
0.0
 10
70.97888779455182
 20
63.35889102623385
 30
0.0
  0
SPLINE
  5
A5
330
70
100
AcDbEntity
  8
Layer 1
 62
    18
420
        0
370
    25
100
AcDbSpline
210
0.0
220
0.0
230
1.0
 70
     9
 71
     3
 72
    32
 73
    28
 74
     0
 42
0.0000000001
 43
0.0000000001
 40
0.0
 40
0.0
 40
0.0
 40
0.0
 40
1.0
 40
1.0
 40
1.0
 40
2.0
 40
2.0
 40
2.0
 40
3.0
 40
3.0
 40
3.0
 40
4.0
 40
4.0
 40
4.0
 40
5.0
 40
5.0
 40
5.0
 40
6.0
 40
6.0
 40
6.0
 40
7.0
 40
7.0
 40
7.0
 40
8.0
 40
8.0
 40
8.0
 40
9.0
 40
9.0
 40
9.0
 40
9.0
 10
92.3924978237172
 20
63.35889102623385
 30
0.0
 10
92.3924978237172
 20
63.07667311045154
 30
0.0
 10
92.60416664351563
 20
62.86500429065311
 30
0.0
 10
92.88638455929794
 20
62.86500429065311
 30
0.0
 10
92.88638455929794
 20
62.86500429065311
 30
0.0
 10
105.8686024719052
 20
62.86500429065311
 30
0.0
 10
105.8686024719052
 20
62.86500429065311
 30
0.0
 10
106.1508203876875
 20
62.86500429065311
 30
0.0
 10
106.362489207486
 20
63.07667311045154
 30
0.0
 10
106.362489207486
 20
63.35889102623385
 30
0.0
 10
106.362489207486
 20
63.35889102623385
 30
0.0
 10
106.362489207486
 20
76.3763888697948
 30
0.0
 10
106.362489207486
 20
76.3763888697948
 30
0.0
 10
106.362489207486
 20
76.6586067855771
 30
0.0
 10
106.1508203876875
 20
76.87027560537554
 30
0.0
 10
105.8686024719052
 20
76.87027560537554
 30
0.0
 10
105.8686024719052
 20
76.87027560537554
 30
0.0
 10
92.85110462834429
 20
76.87027560537554
 30
0.0
 10
92.85110462834429
 20
76.87027560537554
 30
0.0
 10
92.56888671256199
 20
76.87027560537554
 30
0.0
 10
92.35721789276356
 20
76.6586067855771
 30
0.0
 10
92.35721789276356
 20
76.3763888697948
 30
0.0
 10
92.35721789276356
 20
76.3763888697948
 30
0.0
 10
92.3924978237172
 20
63.35889102623385
 30
0.0
 10
92.3924978237172
 20
63.35889102623385
 30
0.0
 10
92.3924978237172
 20
63.35889102623385
 30
0.0
 10
92.3924978237172
 20
63.35889102623385
 30
0.0
 10
92.3924978237172
 20
63.35889102623385
 30
0.0
  0
SPLINE
  5
A6
330
70
100
AcDbEntity
  8
Layer 1
 62
    18
420
        0
370
    25
100
AcDbSpline
210
0.0
220
0.0
230
1.0
 70
     9
 71
     3
 72
    32
 73
    28
 74
     0
 42
0.0000000001
 43
0.0000000001
 40
0.0
 40
0.0
 40
0.0
 40
0.0
 40
1.0
 40
1.0
 40
1.0
 40
2.0
 40
2.0
 40
2.0
 40
3.0
 40
3.0
 40
3.0
 40
4.0
 40
4.0
 40
4.0
 40
5.0
 40
5.0
 40
5.0
 40
6.0
 40
6.0
 40
6.0
 40
7.0
 40
7.0
 40
7.0
 40
8.0
 40
8.0
 40
8.0
 40
9.0
 40
9.0
 40
9.0
 40
9.0
 10
173.3549978034766
 20
63.35889102623385
 30
0.0
 10
173.3549978034766
 20
63.07667311045154
 30
0.0
 10
173.566666623275
 20
62.86500429065311
 30
0.0
 10
173.8488845390573
 20
62.86500429065311
 30
0.0
 10
173.8488845390573
 20
62.86500429065311
 30
0.0
 10
186.8663931485416
 20
62.86500429065311
 30
0.0
 10
186.8663931485416
 20
62.86500429065311
 30
0.0
 10
187.1486110643239
 20
62.86500429065311
 30
0.0
 10
187.3602906500457
 20
63.07667311045154
 30
0.0
 10
187.3602906500457
 20
63.35889102623385
 30
0.0
 10
187.3602906500457
 20
63.35889102623385
 30
0.0
 10
187.3602906500457
 20
76.3763888697948
 30
0.0
 10
187.3602906500457
 20
76.3763888697948
 30
0.0
 10
187.3602906500457
 20
76.6586067855771
 30
0.0
 10
187.1486325961707
 20
76.87027560537554
 30
0.0
 10
186.8663931485416
 20
76.87027560537554
 30
0.0
 10
186.8663931485416
 20
76.87027560537554
 30
0.0
 10
173.8488953049807
 20
76.87027560537554
 30
0.0
 10
173.8488953049807
 20
76.87027560537554
 30
0.0
 10
173.5666773891984
 20
76.87027560537554
 30
0.0
 10
173.3550085694
 20
76.6586067855771
 30
0.0
 10
173.3550085694
 20
76.3763888697948
 30
0.0
 10
173.3550085694
 20
76.3763888697948
 30
0.0
 10
173.3550085694
 20
63.35889102623385
 30
0.0
 10
173.3550085694
 20
63.35889102623385
 30
0.0
 10
173.3550085694
 20
63.35889102623385
 30
0.0
 10
173.3549978034766
 20
63.35889102623385
 30
0.0
 10
173.3549978034766
 20
63.35889102623385
 30
0.0
  0
SPLINE
  5
A7
330
70
100
AcDbEntity
  8
Layer 1
 62
    18
420
        0
370
    25
100
AcDbSpline
210
0.0
220
0.0
230
1.0
 70
     9
 71
     3
 72
    29
 73
    25
 74
     0
 42
0.0000000001
 43
0.0000000001
 40
0.0
 40
0.0
 40
0.0
 40
0.0
 40
1.0
 40
1.0
 40
1.0
 40
2.0
 40
2.0
 40
2.0
 40
3.0
 40
3.0
 40
3.0
 40
4.0
 40
4.0
 40
4.0
 40
5.0
 40
5.0
 40
5.0
 40
6.0
 40
6.0
 40
6.0
 40
7.0
 40
7.0
 40
7.0
 40
8.0
 40
8.0
 40
8.0
 40
8.0
 10
147.1788931584635
 20
63.35889102623385
 30
0.0
 10
147.1788931584635
 20
63.07667311045154
 30
0.0
 10
147.3905619782619
 20
62.86500429065311
 30
0.0
 10
147.6727798940443
 20
62.86500429065311
 30
0.0
 10
147.6727798940443
 20
62.86500429065311
 30
0.0
 10
160.6902777376052
 20
62.86500429065311
 30
0.0
 10
160.6902777376052
 20
62.86500429065311
 30
0.0
 10
160.9724956533875
 20
62.86500429065311
 30
0.0
 10
161.1841644731859
 20
63.07667311045154
 30
0.0
 10
161.1841644731859
 20
63.35889102623385
 30
0.0
 10
161.1841644731859
 20
63.35889102623385
 30
0.0
 10
161.1841644731859
 20
76.3763888697948
 30
0.0
 10
161.1841644731859
 20
76.3763888697948
 30
0.0
 10
161.1841644731859
 20
76.6586067855771
 30
0.0
 10
160.9724956533875
 20
76.87027560537554
 30
0.0
 10
160.6902777376052
 20
76.87027560537554
 30
0.0
 10
160.6902777376052
 20
76.87027560537554
 30
0.0
 10
147.6727798940443
 20
76.87027560537554
 30
0.0
 10
147.6727798940443
 20
76.87027560537554
 30
0.0
 10
147.3905619782619
 20
76.87027560537554
 30
0.0
 10
147.1788931584635
 20
76.6586067855771
 30
0.0
 10
147.1788931584635
 20
76.3763888697948
 30
0.0
 10
147.1788931584635
 20
76.3763888697948
 30
0.0
 10
147.1788931584635
 20
63.35889102623385
 30
0.0
 10
147.1788931584635
 20
63.35889102623385
 30
0.0
  0
SPLINE
  5
A8
330
70
100
AcDbEntity
  8
Layer 1
 62
    18
420
        0
370
    25
100
AcDbSpline
210
0.0
220
0.0
230
1.0
 70
     9
 71
     3
 72
    32
 73
    28
 74
     0
 42
0.0000000001
 43
0.0000000001
 40
0.0
 40
0.0
 40
0.0
 40
0.0
 40
1.0
 40
1.0
 40
1.0
 40
2.0
 40
2.0
 40
2.0
 40
3.0
 40
3.0
 40
3.0
 40
4.0
 40
4.0
 40
4.0
 40
5.0
 40
5.0
 40
5.0
 40
6.0
 40
6.0
 40
6.0
 40
7.0
 40
7.0
 40
7.0
 40
8.0
 40
8.0
 40
8.0
 40
9.0
 40
9.0
 40
9.0
 40
9.0
 10
116.204997817764
 20
63.35889102623385
 30
0.0
 10
116.204997817764
 20
63.07667311045154
 30
0.0
 10
116.4166666375625
 20
62.86500429065311
 30
0.0
 10
116.6988845533448
 20
62.86500429065311
 30
0.0
 10
116.6988845533448
 20
62.86500429065311
 30
0.0
 10
129.6811024659521
 20
62.86500429065311
 30
0.0
 10
129.6811024659521
 20
62.86500429065311
 30
0.0
 10
129.9633203817344
 20
62.86500429065311
 30
0.0
 10
130.1749892015328
 20
63.07667311045154
 30
0.0
 10
130.1749892015328
 20
63.35889102623385
 30
0.0
 10
130.1749892015328
 20
63.35889102623385
 30
0.0
 10
130.1749892015328
 20
76.3763888697948
 30
0.0
 10
130.1749892015328
 20
76.3763888697948
 30
0.0
 10
130.1749892015328
 20
76.6586067855771
 30
0.0
 10
129.9633203817344
 20
76.87027560537554
 30
0.0
 10
129.6811024659521
 20
76.87027560537554
 30
0.0
 10
129.6811024659521
 20
76.87027560537554
 30
0.0
 10
116.6636046223912
 20
76.87027560537554
 30
0.0
 10
116.6636046223912
 20
76.87027560537554
 30
0.0
 10
116.3813867066088
 20
76.87027560537554
 30
0.0
 10
116.1697178868104
 20
76.6586067855771
 30
0.0
 10
116.1697178868104
 20
76.3763888697948
 30
0.0
 10
116.1697178868104
 20
76.3763888697948
 30
0.0
 10
116.204997817764
 20
63.35889102623385
 30
0.0
 10
116.204997817764
 20
63.35889102623385
 30
0.0
 10
116.204997817764
 20
63.35889102623385
 30
0.0
 10
116.204997817764
 20
63.35889102623385
 30
0.0
 10
116.204997817764
 20
63.35889102623385
 30
0.0
  0
SPLINE
  5
A9
330
70
100
AcDbEntity
  8
Layer 1
 62
    18
420
        0
370
    25
100
AcDbSpline
210
0.0
220
0.0
230
1.0
 70
     9
 71
     3
 72
    29
 73
    25
 74
     0
 42
0.0000000001
 43
0.0000000001
 40
0.0
 40
0.0
 40
0.0
 40
0.0
 40
1.0
 40
1.0
 40
1.0
 40
2.0
 40
2.0
 40
2.0
 40
3.0
 40
3.0
 40
3.0
 40
4.0
 40
4.0
 40
4.0
 40
5.0
 40
5.0
 40
5.0
 40
6.0
 40
6.0
 40
6.0
 40
7.0
 40
7.0
 40
7.0
 40
8.0
 40
8.0
 40
8.0
 40
8.0
 10
194.8038931465573
 20
63.35889102623385
 30
0.0
 10
194.8038931465573
 20
63.07667311045154
 30
0.0
 10
195.0155512004323
 20
62.86500429065311
 30
0.0
 10
195.2977906480614
 20
62.86500429065311
 30
0.0
 10
195.2977906480614
 20
62.86500429065311
 30
0.0
 10
208.3152992575457
 20
62.86500429065311
 30
0.0
 10
208.3152992575457
 20
62.86500429065311
 30
0.0
 10
208.5975171733281
 20
62.86500429065311
 30
0.0
 10
208.8091967590499
 20
63.07667311045154
 30
0.0
 10
208.8091967590499
 20
63.35889102623385
 30
0.0
 10
208.8091967590499
 20
63.35889102623385
 30
0.0
 10
208.8091967590499
 20
76.3763888697948
 30
0.0
 10
208.8091967590499
 20
76.3763888697948
 30
0.0
 10
208.8091967590499
 20
76.6586067855771
 30
0.0
 10
208.5975387051749
 20
76.87027560537554
 30
0.0
 10
208.3152992575457
 20
76.87027560537554
 30
0.0
 10
208.3152992575457
 20
76.87027560537554
 30
0.0
 10
195.2977906480614
 20
76.87027560537554
 30
0.0
 10
195.2977906480614
 20
76.87027560537554
 30
0.0
 10
195.0155727322791
 20
76.87027560537554
 30
0.0
 10
194.8038931465573
 20
76.6586067855771
 30
0.0
 10
194.8038931465573
 20
76.3763888697948
 30
0.0
 10
194.8038931465573
 20
76.3763888697948
 30
0.0
 10
194.8038931465573
 20
63.35889102623385
 30
0.0
 10
194.8038931465573
 20
63.35889102623385
 30
0.0
  0
SPLINE
  5
AA
330
70
100
AcDbEntity
  8
Layer 1
 62
    18
420
        0
370
    25
100
AcDbSpline
210
0.0
220
0.0
230
1.0
 70
     9
 71
     3
 72
    29
 73
    25
 74
     0
 42
0.0000000001
 43
0.0000000001
 40
0.0
 40
0.0
 40
0.0
 40
0.0
 40
1.0
 40
1.0
 40
1.0
 40
2.0
 40
2.0
 40
2.0
 40
3.0
 40
3.0
 40
3.0
 40
4.0
 40
4.0
 40
4.0
 40
5.0
 40
5.0
 40
5.0
 40
6.0
 40
6.0
 40
6.0
 40
7.0
 40
7.0
 40
7.0
 40
8.0
 40
8.0
 40
8.0
 40
8.0
 10
218.6163931406042
 20
63.35889102623385
 30
0.0
 10
218.6163931406042
 20
63.07667311045154
 30
0.0
 10
218.8280511944792
 20
62.86500429065311
 30
0.0
 10
219.1102906421083
 20
62.86500429065311
 30
0.0
 10
219.1102906421083
 20
62.86500429065311
 30
0.0
 10
232.0925085547156
 20
62.86500429065311
 30
0.0
 10
232.0925085547156
 20
62.86500429065311
 30
0.0
 10
232.3747264704979
 20
62.86500429065311
 30
0.0
 10
232.5864060562197
 20
63.07667311045154
 30
0.0
 10
232.5864060562197
 20
63.35889102623385
 30
0.0
 10
232.5864060562197
 20
63.35889102623385
 30
0.0
 10
232.5864060562197
 20
76.3763888697948
 30
0.0
 10
232.5864060562197
 20
76.3763888697948
 30
0.0
 10
232.5864060562197
 20
76.6586067855771
 30
0.0
 10
232.3747480023447
 20
76.87027560537554
 30
0.0
 10
232.0925085547156
 20
76.87027560537554
 30
0.0
 10
232.0925085547156
 20
76.87027560537554
 30
0.0
 10
219.1102906421083
 20
76.87027560537554
 30
0.0
 10
219.1102906421083
 20
76.87027560537554
 30
0.0
 10
218.828072726326
 20
76.87027560537554
 30
0.0
 10
218.6163931406042
 20
76.6586067855771
 30
0.0
 10
218.6163931406042
 20
76.3763888697948
 30
0.0
 10
218.6163931406042
 20
76.3763888697948
 30
0.0
 10
218.6163931406042
 20
63.35889102623385
 30
0.0
 10
218.6163931406042
 20
63.35889102623385
 30
0.0
  0
SPLINE
  5
AB
330
70
100
AcDbEntity
  8
Layer 1
 62
    18
420
        0
370
    25
100
AcDbSpline
210
0.0
220
0.0
230
1.0
 70
     9
 71
     3
 72
    29
 73
    25
 74
     0
 42
0.0000000001
 43
0.0000000001
 40
0.0
 40
0.0
 40
0.0
 40
0.0
 40
1.0
 40
1.0
 40
1.0
 40
2.0
 40
2.0
 40
2.0
 40
3.0
 40
3.0
 40
3.0
 40
4.0
 40
4.0
 40
4.0
 40
5.0
 40
5.0
 40
5.0
 40
6.0
 40
6.0
 40
6.0
 40
7.0
 40
7.0
 40
7.0
 40
8.0
 40
8.0
 40
8.0
 40
8.0
 10
242.428893134651
 20
63.35889102623385
 30
0.0
 10
242.428893134651
 20
63.07667311045154
 30
0.0
 10
242.6405511885261
 20
62.86500429065311
 30
0.0
 10
242.9227906361552
 20
62.86500429065311
 30
0.0
 10
242.9227906361552
 20
62.86500429065311
 30
0.0
 10
255.9050085487625
 20
62.86500429065311
 30
0.0
 10
255.9050085487625
 20
62.86500429065311
 30
0.0
 10
256.1872264645448
 20
62.86500429065311
 30
0.0
 10
256.3989060502666
 20
63.07667311045154
 30
0.0
 10
256.3989060502666
 20
63.35889102623385
 30
0.0
 10
256.3989060502666
 20
63.35889102623385
 30
0.0
 10
256.3989060502666
 20
76.3763888697948
 30
0.0
 10
256.3989060502666
 20
76.3763888697948
 30
0.0
 10
256.3989060502666
 20
76.6586067855771
 30
0.0
 10
256.1872479963916
 20
76.87027560537554
 30
0.0
 10
255.9050085487625
 20
76.87027560537554
 30
0.0
 10
255.9050085487625
 20
76.87027560537554
 30
0.0
 10
242.9227906361552
 20
76.87027560537554
 30
0.0
 10
242.9227906361552
 20
76.87027560537554
 30
0.0
 10
242.6405727203729
 20
76.87027560537554
 30
0.0
 10
242.428893134651
 20
76.6586067855771
 30
0.0
 10
242.428893134651
 20
76.3763888697948
 30
0.0
 10
242.428893134651
 20
76.3763888697948
 30
0.0
 10
242.428893134651
 20
63.35889102623385
 30
0.0
 10
242.428893134651
 20
63.35889102623385
 30
0.0
  0
SPLINE
  5
AC
330
70
100
AcDbEntity
  8
Layer 1
 62
    18
420
        0
370
    25
100
AcDbSpline
210
0.0
220
0.0
230
1.0
 70
     8
 71
     3
 72
    11
 73
     7
 74
     0
 42
0.0000000001
 43
0.0000000001
 40
0.0
 40
0.0
 40
0.0
 40
0.0
 40
1.0
 40
1.0
 40
1.0
 40
2.0
 40
2.0
 40
2.0
 40
2.0
 10
24.20055501120925
 20
146.7908354498203
 30
0.0
 10
24.20055501120925
 20
145.8383365266508
 30
0.0
 10
23.4244449768845
 20
145.0269465613724
 30
0.0
 10
22.43666612276133
 20
145.0269465613724
 30
0.0
 10
21.44888726863816
 20
145.0269465613724
 30
0.0
 10
20.67277723431342
 20
145.8030565956971
 30
0.0
 10
20.67277723431342
 20
146.7908354498203
 30
0.0
  0
SPLINE
  5
AD
330
70
100
AcDbEntity
  8
Layer 1
 62
    18
420
        0
370
    25
100
AcDbSpline
210
0.0
220
0.0
230
1.0
 70
     8
 71
     3
 72
    11
 73
     7
 74
     0
 42
0.0000000001
 43
0.0000000001
 40
0.0
 40
0.0
 40
0.0
 40
0.0
 40
1.0
 40
1.0
 40
1.0
 40
2.0
 40
2.0
 40
2.0
 40
2.0
 10
20.70805581952663
 20
146.7908354498203
 30
0.0
 10
20.70805581952663
 20
147.7433343729898
 30
0.0
 10
21.48416719959179
 20
148.5547243382682
 30
0.0
 10
22.47194470797454
 20
148.5547243382682
 30
0.0
 10
23.45972221635729
 20
148.5547243382682
 30
0.0
 10
24.23583225068204
 20
147.7786143039435
 30
0.0
 10
24.23583225068204
 20
146.7908354498203
 30
0.0
  0
SPLINE
  5
AE
330
70
100
AcDbEntity
  8
Layer 1
 62
    18
420
        0
370
    25
100
AcDbSpline
210
0.0
220
0.0
230
1.0
 70
     8
 71
     3
 72
    11
 73
     7
 74
     0
 42
0.0000000001
 43
0.0000000001
 40
0.0
 40
0.0
 40
0.0
 40
0.0
 40
1.0
 40
1.0
 40
1.0
 40
2.0
 40
2.0
 40
2.0
 40
2.0
 10
24.20055501120925
 20
141.2874999646781
 30
0.0
 10
24.20055501120925
 20
140.3350010415086
 30
0.0
 10
23.4244449768845
 20
139.5236110762302
 30
0.0
 10
22.43666612276133
 20
139.5236110762302
 30
0.0
 10
21.44888726863816
 20
139.5236110762302
 30
0.0
 10
20.67277723431342
 20
140.2997211105549
 30
0.0
 10
20.67277723431342
 20
141.2874999646781
 30
0.0
  0
SPLINE
  5
AF
330
70
100
AcDbEntity
  8
Layer 1
 62
    18
420
        0
370
    25
100
AcDbSpline
210
0.0
220
0.0
230
1.0
 70
     8
 71
     3
 72
    11
 73
     7
 74
     0
 42
0.0000000001
 43
0.0000000001
 40
0.0
 40
0.0
 40
0.0
 40
0.0
 40
1.0
 40
1.0
 40
1.0
 40
2.0
 40
2.0
 40
2.0
 40
2.0
 10
20.70805581952663
 20
141.2874999646781
 30
0.0
 10
20.70805581952663
 20
142.2399988878476
 30
0.0
 10
21.48416719959179
 20
143.051388853126
 30
0.0
 10
22.47194470797454
 20
143.051388853126
 30
0.0
 10
23.45972221635729
 20
143.051388853126
 30
0.0
 10
24.23583225068204
 20
142.2752788188013
 30
0.0
 10
24.23583225068204
 20
141.2874999646781
 30
0.0
  0
SPLINE
  5
B0
330
70
100
AcDbEntity
  8
Layer 1
 62
    18
420
        0
370
    25
100
AcDbSpline
210
0.0
220
0.0
230
1.0
 70
     8
 71
     3
 72
    11
 73
     7
 74
     0
 42
0.0000000001
 43
0.0000000001
 40
0.0
 40
0.0
 40
0.0
 40
0.0
 40
1.0
 40
1.0
 40
1.0
 40
2.0
 40
2.0
 40
2.0
 40
2.0
 10
24.20055501120925
 20
152.3294454829544
 30
0.0
 10
24.20055501120925
 20
151.3769465597849
 30
0.0
 10
23.4244449768845
 20
150.5655565945065
 30
0.0
 10
22.43666612276133
 20
150.5655565945065
 30
0.0
 10
21.44888726863816
 20
150.5655565945065
 30
0.0
 10
20.67277723431342
 20
151.3416666288312
 30
0.0
 10
20.67277723431342
 20
152.3294454829544
 30
0.0
  0
SPLINE
  5
B1
330
70
100
AcDbEntity
  8
Layer 1
 62
    18
420
        0
370
    25
100
AcDbSpline
210
0.0
220
0.0
230
1.0
 70
     8
 71
     3
 72
    11
 73
     7
 74
     0
 42
0.0000000001
 43
0.0000000001
 40
0.0
 40
0.0
 40
0.0
 40
0.0
 40
1.0
 40
1.0
 40
1.0
 40
2.0
 40
2.0
 40
2.0
 40
2.0
 10
20.70805581952663
 20
152.3294454829544
 30
0.0
 10
20.70805581952663
 20
153.2819444061239
 30
0.0
 10
21.48416719959179
 20
154.0933343714023
 30
0.0
 10
22.47194470797454
 20
154.0933343714023
 30
0.0
 10
23.45972221635729
 20
154.0933343714023
 30
0.0
 10
24.23583225068204
 20
153.3172243370776
 30
0.0
 10
24.23583225068204
 20
152.3294454829544
 30
0.0
  0
SPLINE
  5
B2
330
70
100
AcDbEntity
  8
Layer 1
 62
    18
420
        0
370
    25
100
AcDbSpline
210
0.0
220
0.0
230
1.0
 70
     9
 71
     3
 72
    29
 73
    25
 74
     0
 42
0.0000000001
 43
0.0000000001
 40
0.0
 40
0.0
 40
0.0
 40
0.0
 40
1.0
 40
1.0
 40
1.0
 40
2.0
 40
2.0
 40
2.0
 40
3.0
 40
3.0
 40
3.0
 40
4.0
 40
4.0
 40
4.0
 40
5.0
 40
5.0
 40
5.0
 40
6.0
 40
6.0
 40
6.0
 40
7.0
 40
7.0
 40
7.0
 40
8.0
 40
8.0
 40
8.0
 40
8.0
 10
145.1327755883099
 20
103.5049978209391
 30
0.0
 10
145.1327755883099
 20
103.5049978209391
 30
0.0
 10
134.6200021195297
 20
103.5049978209391
 30
0.0
 10
134.6200021195297
 20
103.5049978209391
 30
0.0
 10
134.3377842037473
 20
103.5049978209391
 30
0.0
 10
134.1261153839489
 20
103.7166666407375
 30
0.0
 10
134.1261153839489
 20
103.9988845565198
 30
0.0
 10
134.1261153839489
 20
103.9988845565198
 30
0.0
 10
134.1261153839489
 20
130.9158300708273
 30
0.0
 10
134.1261153839489
 20
130.9158300708273
 30
0.0
 10
134.1261153839489
 20
131.1980533695713
 30
0.0
 10
134.3377842037473
 20
131.4097168064081
 30
0.0
 10
134.6200021195297
 20
131.4097168064081
 30
0.0
 10
134.6200021195297
 20
131.4097168064081
 30
0.0
 10
145.1327755883099
 20
131.4097168064081
 30
0.0
 10
145.1327755883099
 20
131.4097168064081
 30
0.0
 10
145.4149935040922
 20
131.4097168064081
 30
0.0
 10
145.6266623238906
 20
131.1980479866097
 30
0.0
 10
145.6266623238906
 20
130.9158300708273
 30
0.0
 10
145.6266623238906
 20
130.9158300708273
 30
0.0
 10
145.6266623238906
 20
103.9988845565198
 30
0.0
 10
145.6266623238906
 20
103.9988845565198
 30
0.0
 10
145.6266623238906
 20
103.7519465716911
 30
0.0
 10
145.4150042700156
 20
103.5049978209391
 30
0.0
 10
145.1327755883099
 20
103.5049978209391
 30
0.0
  0
SPLINE
  5
B3
330
70
100
AcDbEntity
  8
Layer 1
 62
    18
420
        0
370
    25
100
AcDbSpline
210
0.0
220
0.0
230
1.0
 70
     8
 71
     3
 72
     8
 73
     4
 74
     0
 42
0.0000000001
 43
0.0000000001
 40
0.0
 40
0.0
 40
0.0
 40
0.0
 40
1.0
 40
1.0
 40
1.0
 40
1.0
 10
144.8505576725276
 20
155.1516677044711
 30
0.0
 10
144.6741687836828
 20
155.3280565933159
 30
0.0
 10
144.4272200329307
 20
155.4338910032151
 30
0.0
 10
144.1450021171484
 20
155.4338910032151
 30
0.0
  0
LINE
  5
B4
330
70
100
AcDbEntity
  8
Layer 1
 62
    18
420
        0
370
    25
100
AcDbLine
 10
144.1450021171484
 20
155.4338910032151
 30
0.0
 11
16.54527831193763
 21
155.4338910032151
 31
0.0
  0
SPLINE
  5
B5
330
70
100
AcDbEntity
  8
Layer 1
 62
    18
420
        0
370
    25
100
AcDbSpline
210
0.0
220
0.0
230
1.0
 70
     8
 71
     3
 72
     8
 73
     4
 74
     0
 42
0.0000000001
 43
0.0000000001
 40
0.0
 40
0.0
 40
0.0
 40
0.0
 40
1.0
 40
1.0
 40
1.0
 40
1.0
 10
16.54527831193763
 20
155.4338910032151
 30
0.0
 10
16.26305635893405
 20
155.4338910032151
 30
0.0
 10
16.01611164540325
 20
155.3280565933159
 30
0.0
 10
15.83972275655846
 20
155.1516677044711
 30
0.0
  0
SPLINE
  5
B6
330
70
100
AcDbEntity
  8
Layer 1
 62
    18
420
        0
370
    25
100
AcDbSpline
210
0.0
220
0.0
230
1.0
 70
     8
 71
     3
 72
     8
 73
     4
 74
     0
 42
0.0000000001
 43
0.0000000001
 40
0.0
 40
0.0
 40
0.0
 40
0.0
 40
1.0
 40
1.0
 40
1.0
 40
1.0
 10
15.83972275655846
 20
155.1516677044711
 30
0.0
 10
15.66333386771367
 20
154.9752788156263
 30
0.0
 10
15.55750080355488
 20
154.7283354478359
 30
0.0
 10
15.55750080355488
 20
154.4461121490919
 30
0.0
  0
LINE
  5
B7
330
70
100
AcDbEntity
  8
Layer 1
 62
    18
420
        0
370
    25
100
AcDbLine
 10
15.55749945781445
 20
154.4461121490919
 30
0.0
 11
15.55749945781445
 21
147.7433343729898
 31
0.0
  0
SPLINE
  5
B8
330
70
100
AcDbEntity
  8
Layer 1
 62
    18
420
        0
370
    25
100
AcDbSpline
210
0.0
220
0.0
230
1.0
 70
     8
 71
     3
 72
     8
 73
     4
 74
     0
 42
0.0000000001
 43
0.0000000001
 40
0.0
 40
0.0
 40
0.0
 40
0.0
 40
1.0
 40
1.0
 40
1.0
 40
1.0
 10
15.55749945781445
 20
147.7433343729898
 30
0.0
 10
15.55749945781445
 20
147.6022254150987
 30
0.0
 10
15.66333252197324
 20
147.4963910051995
 30
0.0
 10
15.80444417134525
 20
147.4963910051995
 30
0.0
  0
SPLINE
  5
B9
330
70
100
AcDbEntity
  8
Layer 1
 62
    18
420
        0
370
    25
100
AcDbSpline
210
0.0
220
0.0
230
1.0
 70
     8
 71
     3
 72
    14
 73
    10
 74
     0
 42
0.0000000001
 43
0.0000000001
 40
0.0
 40
0.0
 40
0.0
 40
0.0
 40
1.0
 40
1.0
 40
1.0
 40
2.0
 40
2.0
 40
2.0
 40
3.0
 40
3.0
 40
3.0
 40
3.0
 10
15.80444417134525
 20
145.3797243390619
 30
0.0
 10
16.36888807735241
 20
145.3797243390619
 30
0.0
 10
16.862777504414
 20
145.8030565956971
 30
0.0
 10
16.89805474388679
 20
146.4027777411771
 30
0.0
 10
16.89805474388679
 20
146.9672243386651
 30
0.0
 10
16.4747211415112
 20
147.4611110742458
 30
0.0
 10
15.87499865029083
 20
147.4963910051995
 30
0.0
 10
15.87499865029083
 20
147.4963910051995
 30
0.0
 10
15.83972141081804
 20
147.4963910051995
 30
0.0
 10
15.80444282560482
 20
147.4963910051995
 30
0.0
  0
SPLINE
  5
BA
330
70
100
AcDbEntity
  8
Layer 1
 62
    18
420
        0
370
    25
100
AcDbSpline
210
0.0
220
0.0
230
1.0
 70
     8
 71
     3
 72
     8
 73
     4
 74
     0
 42
0.0000000001
 43
0.0000000001
 40
0.0
 40
0.0
 40
0.0
 40
0.0
 40
1.0
 40
1.0
 40
1.0
 40
1.0
 10
15.80444417134525
 20
145.3797243390619
 30
0.0
 10
15.66333252197324
 20
145.3797243390619
 30
0.0
 10
15.55749945781445
 20
145.2738899291627
 30
0.0
 10
15.55749945781445
 20
145.1327809712716
 30
0.0
  0
LINE
  5
BB
330
70
100
AcDbEntity
  8
Layer 1
 62
    18
420
        0
370
    25
100
AcDbLine
 10
15.55749945781445
 20
145.1327755883099
 30
0.0
 11
15.55749945781445
 21
138.3947232642159
 31
0.0
  0
SPLINE
  5
BC
330
70
100
AcDbEntity
  8
Layer 1
 62
    18
420
        0
370
    25
100
AcDbSpline
210
0.0
220
0.0
230
1.0
 70
     8
 71
     3
 72
     8
 73
     4
 74
     0
 42
0.0000000001
 43
0.0000000001
 40
0.0
 40
0.0
 40
0.0
 40
0.0
 40
1.0
 40
1.0
 40
1.0
 40
1.0
 10
15.55749945781445
 20
138.3947232642159
 30
0.0
 10
15.55749945781445
 20
138.1124999654719
 30
0.0
 10
15.66333252197324
 20
137.8655565976815
 30
0.0
 10
15.83972141081804
 20
137.6891677088367
 30
0.0
  0
SPLINE
  5
BD
330
70
100
AcDbEntity
  8
Layer 1
 62
    18
420
        0
370
    25
100
AcDbSpline
210
0.0
220
0.0
230
1.0
 70
     8
 71
     3
 72
     8
 73
     4
 74
     0
 42
0.0000000001
 43
0.0000000001
 40
0.0
 40
0.0
 40
0.0
 40
0.0
 40
1.0
 40
1.0
 40
1.0
 40
1.0
 10
15.83972275655846
 20
137.6891677088367
 30
0.0
 10
16.01611164540325
 20
137.5127788199919
 30
0.0
 10
16.26305635893405
 20
137.4069444100927
 30
0.0
 10
16.54527831193763
 20
137.4069444100927
 30
0.0
  0
SPLINE
  5
BE
330
70
100
AcDbEntity
  8
Layer 1
 62
    18
420
        0
370
    25
100
AcDbSpline
210
0.0
220
0.0
230
1.0
 70
     8
 71
     3
 72
     8
 73
     4
 74
     0
 42
0.0000000001
 43
0.0000000001
 40
0.0
 40
0.0
 40
0.0
 40
0.0
 40
1.0
 40
1.0
 40
1.0
 40
1.0
 10
17.95638942269596
 20
136.8072232646127
 30
0.0
 10
17.56833440553359
 20
137.195280973256
 30
0.0
 10
17.074444978472
 20
137.4069444100927
 30
0.0
 10
16.54527831193763
 20
137.4069444100927
 30
0.0
  0
SPLINE
  5
BF
330
70
100
AcDbEntity
  8
Layer 1
 62
    18
420
        0
370
    25
100
AcDbSpline
210
0.0
220
0.0
230
1.0
 70
     8
 71
     3
 72
     8
 73
     4
 74
     0
 42
0.0000000001
 43
0.0000000001
 40
0.0
 40
0.0
 40
0.0
 40
0.0
 40
1.0
 40
1.0
 40
1.0
 40
1.0
 10
18.55611056817591
 20
135.3961121538544
 30
0.0
 10
18.55611056817591
 20
135.9252788203888
 30
0.0
 10
18.34444443985833
 20
136.4544454869232
 30
0.0
 10
17.95638807695554
 20
136.8072232646127
 30
0.0
  0
LINE
  5
C0
330
70
100
AcDbEntity
  8
Layer 1
 62
    18
420
        0
370
    25
100
AcDbLine
 10
18.55611056817591
 20
135.3961121538544
 30
0.0
 11
18.55611056817591
 21
80.50389317513227
 31
0.0
  0
SPLINE
  5
C1
330
70
100
AcDbEntity
  8
Layer 1
 62
    18
420
        0
370
    25
100
AcDbSpline
210
0.0
220
0.0
230
1.0
 70
     8
 71
     3
 72
     8
 73
     4
 74
     0
 42
0.0000000001
 43
0.0000000001
 40
0.0
 40
0.0
 40
0.0
 40
0.0
 40
1.0
 40
1.0
 40
1.0
 40
1.0
 10
17.95638942269596
 20
79.09278206437395
 30
0.0
 10
18.34444443985833
 20
79.48083977301717
 30
0.0
 10
18.55611191391634
 20
79.9747265085979
 30
0.0
 10
18.55611191391634
 20
80.50389317513227
 30
0.0
  0
SPLINE
  5
C2
330
70
100
AcDbEntity
  8
Layer 1
 62
    18
420
        0
370
    25
100
AcDbSpline
210
0.0
220
0.0
230
1.0
 70
     8
 71
     3
 72
     8
 73
     4
 74
     0
 42
0.0000000001
 43
0.0000000001
 40
0.0
 40
0.0
 40
0.0
 40
0.0
 40
1.0
 40
1.0
 40
1.0
 40
1.0
 10
16.54527831193763
 20
78.4930555359323
 30
0.0
 10
17.074444978472
 20
78.4930555359323
 30
0.0
 10
17.60361164500638
 20
78.70472435573072
 30
0.0
 10
17.95638942269596
 20
79.09278206437395
 30
0.0
  0
SPLINE
  5
C3
330
70
100
AcDbEntity
  8
Layer 1
 62
    18
420
        0
370
    25
100
AcDbSpline
210
0.0
220
0.0
230
1.0
 70
     8
 71
     3
 72
     8
 73
     4
 74
     0
 42
0.0000000001
 43
0.0000000001
 40
0.0
 40
0.0
 40
0.0
 40
0.0
 40
1.0
 40
1.0
 40
1.0
 40
1.0
 10
16.54527831193763
 20
78.4930555359323
 30
0.0
 10
16.26305635893405
 20
78.4930555359323
 30
0.0
 10
16.01611164540325
 20
78.38722650899477
 30
0.0
 10
15.83972275655846
 20
78.21083762014999
 30
0.0
  0
SPLINE
  5
C4
330
70
100
AcDbEntity
  8
Layer 1
 62
    18
420
        0
370
    25
100
AcDbSpline
210
0.0
220
0.0
230
1.0
 70
     8
 71
     3
 72
     8
 73
     4
 74
     0
 42
0.0000000001
 43
0.0000000001
 40
0.0
 40
0.0
 40
0.0
 40
0.0
 40
1.0
 40
1.0
 40
1.0
 40
1.0
 10
15.83972275655846
 20
78.21083762014999
 30
0.0
 10
15.66333386771367
 20
78.03444873130519
 30
0.0
 10
15.55750080355488
 20
77.78749998055312
 30
0.0
 10
15.55750080355488
 20
77.50528206477082
 30
0.0
  0
LINE
  5
C5
330
70
100
AcDbEntity
  8
Layer 1
 62
    18
420
        0
370
    25
100
AcDbLine
 10
15.55749945781445
 20
77.50528206477082
 30
0.0
 11
15.55749945781445
 21
70.76722435771509
 31
0.0
  0
SPLINE
  5
C6
330
70
100
AcDbEntity
  8
Layer 1
 62
    18
420
        0
370
    25
100
AcDbSpline
210
0.0
220
0.0
230
1.0
 70
     8
 71
     3
 72
    11
 73
     7
 74
     0
 42
0.0000000001
 43
0.0000000001
 40
0.0
 40
0.0
 40
0.0
 40
0.0
 40
1.0
 40
1.0
 40
1.0
 40
2.0
 40
2.0
 40
2.0
 40
2.0
 10
15.55749945781445
 20
70.76722435771509
 30
0.0
 10
15.55749945781445
 20
70.62611539982395
 30
0.0
 10
15.66333252197324
 20
70.52027560696304
 30
0.0
 10
15.80444417134525
 20
70.52027560696304
 30
0.0
 10
15.80444417134525
 20
70.52027560696304
 30
0.0
 10
15.80444417134525
 20
70.52027560696304
 30
0.0
 10
15.80444417134525
 20
70.52027560696304
 30
0.0
  0
SPLINE
  5
C7
330
70
100
AcDbEntity
  8
Layer 1
 62
    18
420
        0
370
    25
100
AcDbSpline
210
0.0
220
0.0
230
1.0
 70
     8
 71
     3
 72
    14
 73
    10
 74
     0
 42
0.0000000001
 43
0.0000000001
 40
0.0
 40
0.0
 40
0.0
 40
0.0
 40
1.0
 40
1.0
 40
1.0
 40
2.0
 40
2.0
 40
2.0
 40
3.0
 40
3.0
 40
3.0
 40
3.0
 10
15.80444417134525
 20
68.43888887177917
 30
0.0
 10
16.36888807735241
 20
68.43888887177917
 30
0.0
 10
16.862777504414
 20
68.89749567640627
 30
0.0
 10
16.862777504414
 20
69.49722220484791
 30
0.0
 10
16.862777504414
 20
70.09694873328957
 30
0.0
 10
16.40416666256562
 20
70.55555553791667
 30
0.0
 10
15.80444417134525
 20
70.55555553791667
 30
0.0
 10
15.80444417134525
 20
70.55555553791667
 30
0.0
 10
15.80444417134525
 20
70.55555553791667
 30
0.0
 10
15.80444417134525
 20
70.55555553791667
 30
0.0
  0
SPLINE
  5
C8
330
70
100
AcDbEntity
  8
Layer 1
 62
    18
420
        0
370
    25
100
AcDbSpline
210
0.0
220
0.0
230
1.0
 70
     8
 71
     3
 72
     8
 73
     4
 74
     0
 42
0.0000000001
 43
0.0000000001
 40
0.0
 40
0.0
 40
0.0
 40
0.0
 40
1.0
 40
1.0
 40
1.0
 40
1.0
 10
15.80444417134525
 20
68.43888887177917
 30
0.0
 10
15.66333252197324
 20
68.43888887177917
 30
0.0
 10
15.55749945781445
 20
68.33305984484166
 30
0.0
 10
15.55749945781445
 20
68.1919401210271
 30
0.0
  0
LINE
  5
C9
330
70
100
AcDbEntity
  8
Layer 1
 62
    18
420
        0
370
    25
100
AcDbLine
 10
15.55749945781445
 20
68.15667095599685
 30
0.0
 11
15.55749945781445
 21
61.45389317989478
 31
0.0
  0
SPLINE
  5
CA
330
70
100
AcDbEntity
  8
Layer 1
 62
    18
420
        0
370
    25
100
AcDbSpline
210
0.0
220
0.0
230
1.0
 70
     8
 71
     3
 72
     8
 73
     4
 74
     0
 42
0.0000000001
 43
0.0000000001
 40
0.0
 40
0.0
 40
0.0
 40
0.0
 40
1.0
 40
1.0
 40
1.0
 40
1.0
 10
15.55749945781445
 20
61.45389317989478
 30
0.0
 10
15.55749945781445
 20
61.17167526411247
 30
0.0
 10
15.66333252197324
 20
60.9247265133604
 30
0.0
 10
15.83972141081804
 20
60.74833762451561
 30
0.0
  0
SPLINE
  5
CB
330
70
100
AcDbEntity
  8
Layer 1
 62
    18
420
        0
370
    25
100
AcDbSpline
210
0.0
220
0.0
230
1.0
 70
     8
 71
     3
 72
     8
 73
     4
 74
     0
 42
0.0000000001
 43
0.0000000001
 40
0.0
 40
0.0
 40
0.0
 40
0.0
 40
1.0
 40
1.0
 40
1.0
 40
1.0
 10
15.83972275655846
 20
60.74833762451561
 30
0.0
 10
16.01611164540325
 20
60.57194873567081
 30
0.0
 10
16.26305635893405
 20
60.4661197087333
 30
0.0
 10
16.54527831193763
 20
60.4661197087333
 30
0.0
  0
LINE
  5
CC
330
70
100
AcDbEntity
  8
Layer 1
 62
    18
420
        0
370
    25
100
AcDbLine
 10
16.54527831193763
 20
60.43082901185627
 30
0.0
 11
263.2074913214594
 21
60.43082901185627
 31
0.0
  0
SPLINE
  5
CD
330
70
100
AcDbEntity
  8
Layer 1
 62
    18
420
        0
370
    25
100
AcDbSpline
210
0.0
220
0.0
230
1.0
 70
     8
 71
     3
 72
     8
 73
     4
 74
     0
 42
0.0000000001
 43
0.0000000001
 40
0.0
 40
0.0
 40
0.0
 40
0.0
 40
1.0
 40
1.0
 40
1.0
 40
1.0
 10
263.2074913214594
 20
60.43082901185627
 30
0.0
 10
263.4897092372418
 20
60.43082901185627
 30
0.0
 10
263.7366579879938
 20
60.53665803879379
 30
0.0
 10
263.9130468768386
 20
60.71304692763858
 30
0.0
  0
SPLINE
  5
CE
330
70
100
AcDbEntity
  8
Layer 1
 62
    18
420
        0
370
    25
100
AcDbSpline
210
0.0
220
0.0
230
1.0
 70
     8
 71
     3
 72
     8
 73
     4
 74
     0
 42
0.0000000001
 43
0.0000000001
 40
0.0
 40
0.0
 40
0.0
 40
0.0
 40
1.0
 40
1.0
 40
1.0
 40
1.0
 10
263.9130468768386
 20
60.74833762451561
 30
0.0
 10
264.0894357656834
 20
60.9247265133604
 30
0.0
 10
264.1952647926209
 20
61.17167526411247
 30
0.0
 10
264.1952647926209
 20
61.45389317989478
 30
0.0
  0
LINE
  5
CF
330
70
100
AcDbEntity
  8
Layer 1
 62
    18
420
        0
370
    25
100
AcDbLine
 10
264.1952863244677
 20
61.45389317989478
 30
0.0
 11
264.1952863244677
 21
68.15667095599685
 31
0.0
  0
SPLINE
  5
D0
330
70
100
AcDbEntity
  8
Layer 1
 62
    18
420
        0
370
    25
100
AcDbSpline
210
0.0
220
0.0
230
1.0
 70
     8
 71
     3
 72
    11
 73
     7
 74
     0
 42
0.0000000001
 43
0.0000000001
 40
0.0
 40
0.0
 40
0.0
 40
0.0
 40
1.0
 40
1.0
 40
1.0
 40
2.0
 40
2.0
 40
2.0
 40
2.0
 10
264.1952863244677
 20
68.15667095599685
 30
0.0
 10
264.1952863244677
 20
68.29777991388802
 30
0.0
 10
264.0894572975302
 20
68.40361970674893
 30
0.0
 10
263.9483375737156
 20
68.40361970674893
 30
0.0
 10
263.9483375737156
 20
68.40361970674893
 30
0.0
 10
263.9483375737156
 20
68.40361970674893
 30
0.0
 10
263.9483375737156
 20
68.40361970674893
 30
0.0
  0
SPLINE
  5
D1
330
70
100
AcDbEntity
  8
Layer 1
 62
    18
420
        0
370
    25
100
AcDbSpline
210
0.0
220
0.0
230
1.0
 70
     8
 71
     3
 72
    14
 73
    10
 74
     0
 42
0.0000000001
 43
0.0000000001
 40
0.0
 40
0.0
 40
0.0
 40
0.0
 40
1.0
 40
1.0
 40
1.0
 40
2.0
 40
2.0
 40
2.0
 40
3.0
 40
3.0
 40
3.0
 40
3.0
 10
263.9483375737156
 20
70.52027560696304
 30
0.0
 10
263.383901742151
 20
70.52027560696304
 30
0.0
 10
262.8900042406469
 20
70.06166880233593
 30
0.0
 10
262.8900042406469
 20
69.46194227389428
 30
0.0
 10
262.8900042406469
 20
68.86221574545263
 30
0.0
 10
263.348611045274
 20
68.40360894082554
 30
0.0
 10
263.9483375737156
 20
68.40360894082554
 30
0.0
 10
263.9483375737156
 20
68.40360894082554
 30
0.0
 10
263.9483375737156
 20
68.40360894082554
 30
0.0
 10
263.9483375737156
 20
68.40360894082554
 30
0.0
  0
SPLINE
  5
D2
330
70
100
AcDbEntity
  8
Layer 1
 62
    18
420
        0
370
    25
100
AcDbSpline
210
0.0
220
0.0
230
1.0
 70
     8
 71
     3
 72
     8
 73
     4
 74
     0
 42
0.0000000001
 43
0.0000000001
 40
0.0
 40
0.0
 40
0.0
 40
0.0
 40
1.0
 40
1.0
 40
1.0
 40
1.0
 10
263.9483375737156
 20
70.52027560696304
 30
0.0
 10
264.0894572975302
 20
70.52027560696304
 30
0.0
 10
264.1952863244677
 20
70.62610463390055
 30
0.0
 10
264.1952863244677
 20
70.76722435771509
 30
0.0
  0
LINE
  5
D3
330
70
100
AcDbEntity
  8
Layer 1
 62
    18
420
        0
370
    25
100
AcDbLine
 10
264.1952863244677
 20
70.76722435771509
 30
0.0
 11
264.1952863244677
 21
77.50528206477082
 31
0.0
  0
SPLINE
  5
D4
330
70
100
AcDbEntity
  8
Layer 1
 62
    18
420
        0
370
    25
100
AcDbSpline
210
0.0
220
0.0
230
1.0
 70
     8
 71
     3
 72
     8
 73
     4
 74
     0
 42
0.0000000001
 43
0.0000000001
 40
0.0
 40
0.0
 40
0.0
 40
0.0
 40
1.0
 40
1.0
 40
1.0
 40
1.0
 10
264.1952863244677
 20
77.50528206477082
 30
0.0
 10
264.1952863244677
 20
77.78749998055312
 30
0.0
 10
264.0894572975302
 20
78.03444873130519
 30
0.0
 10
263.9130684086854
 20
78.21083762014999
 30
0.0
  0
SPLINE
  5
D5
330
70
100
AcDbEntity
  8
Layer 1
 62
    18
420
        0
370
    25
100
AcDbSpline
210
0.0
220
0.0
230
1.0
 70
     8
 71
     3
 72
     8
 73
     4
 74
     0
 42
0.0000000001
 43
0.0000000001
 40
0.0
 40
0.0
 40
0.0
 40
0.0
 40
1.0
 40
1.0
 40
1.0
 40
1.0
 10
263.9130468768386
 20
78.21083762014999
 30
0.0
 10
263.7366579879938
 20
78.38722650899477
 30
0.0
 10
263.4897092372418
 20
78.4930555359323
 30
0.0
 10
263.2074913214594
 20
78.4930555359323
 30
0.0
  0
SPLINE
  5
D6
330
70
100
AcDbEntity
  8
Layer 1
 62
    18
420
        0
370
    25
100
AcDbSpline
210
0.0
220
0.0
230
1.0
 70
     8
 71
     3
 72
     8
 73
     4
 74
     0
 42
0.0000000001
 43
0.0000000001
 40
0.0
 40
0.0
 40
0.0
 40
0.0
 40
1.0
 40
1.0
 40
1.0
 40
1.0
 10
261.7963802107011
 20
79.09278206437395
 30
0.0
 10
262.1844271534209
 20
78.70472435573072
 30
0.0
 10
262.6783246549251
 20
78.4930555359323
 30
0.0
 10
263.2074913214594
 20
78.4930555359323
 30
0.0
  0
SPLINE
  5
D7
330
70
100
AcDbEntity
  8
Layer 1
 62
    18
420
        0
370
    25
100
AcDbSpline
210
0.0
220
0.0
230
1.0
 70
     8
 71
     3
 72
     8
 73
     4
 74
     0
 42
0.0000000001
 43
0.0000000001
 40
0.0
 40
0.0
 40
0.0
 40
0.0
 40
1.0
 40
1.0
 40
1.0
 40
1.0
 10
261.1966752141062
 20
80.50389317513227
 30
0.0
 10
261.1966752141062
 20
79.9747265085979
 30
0.0
 10
261.4083332679813
 20
79.44555984206353
 30
0.0
 10
261.7964017425479
 20
79.09278206437395
 30
0.0
  0
LINE
  5
D8
330
70
100
AcDbEntity
  8
Layer 1
 62
    18
420
        0
370
    25
100
AcDbLine
 10
261.1966752141062
 20
80.50389317513227
 30
0.0
 11
261.1966752141062
 21
116.3461067756552
 31
0.0
  0
SPLINE
  5
D9
330
70
100
AcDbEntity
  8
Layer 1
 62
    18
420
        0
370
    25
100
AcDbSpline
210
0.0
220
0.0
230
1.0
 70
     8
 71
     3
 72
     8
 73
     4
 74
     0
 42
0.0000000001
 43
0.0000000001
 40
0.0
 40
0.0
 40
0.0
 40
0.0
 40
1.0
 40
1.0
 40
1.0
 40
1.0
 10
261.7963802107011
 20
117.7572178864136
 30
0.0
 10
261.4083332679813
 20
117.3691601777703
 30
0.0
 10
261.1966536822595
 20
116.8752734421896
 30
0.0
 10
261.1966536822595
 20
116.3461067756552
 30
0.0
  0
SPLINE
  5
DA
330
70
100
AcDbEntity
  8
Layer 1
 62
    18
420
        0
370
    25
100
AcDbSpline
210
0.0
220
0.0
230
1.0
 70
     8
 71
     3
 72
     8
 73
     4
 74
     0
 42
0.0000000001
 43
0.0000000001
 40
0.0
 40
0.0
 40
0.0
 40
0.0
 40
1.0
 40
1.0
 40
1.0
 40
1.0
 10
263.2074913214594
 20
118.3569444148552
 30
0.0
 10
262.6783246549251
 20
118.3569444148552
 30
0.0
 10
262.1491579883907
 20
118.1452755950568
 30
0.0
 10
261.7963802107011
 20
117.7572178864136
 30
0.0
  0
SPLINE
  5
DB
330
70
100
AcDbEntity
  8
Layer 1
 62
    18
420
        0
370
    25
100
AcDbSpline
210
0.0
220
0.0
230
1.0
 70
     8
 71
     3
 72
     8
 73
     4
 74
     0
 42
0.0000000001
 43
0.0000000001
 40
0.0
 40
0.0
 40
0.0
 40
0.0
 40
1.0
 40
1.0
 40
1.0
 40
1.0
 10
263.2074913214594
 20
118.3569444148552
 30
0.0
 10
263.4897092372418
 20
118.3569444148552
 30
0.0
 10
263.7366579879938
 20
118.4627734417927
 30
0.0
 10
263.9130468768386
 20
118.6391623306375
 30
0.0
  0
SPLINE
  5
DC
330
70
100
AcDbEntity
  8
Layer 1
 62
    18
420
        0
370
    25
100
AcDbSpline
210
0.0
220
0.0
230
1.0
 70
     8
 71
     3
 72
     8
 73
     4
 74
     0
 42
0.0000000001
 43
0.0000000001
 40
0.0
 40
0.0
 40
0.0
 40
0.0
 40
1.0
 40
1.0
 40
1.0
 40
1.0
 10
263.9130468768386
 20
118.6391623306375
 30
0.0
 10
264.0894357656834
 20
118.8155512194823
 30
0.0
 10
264.1952647926209
 20
119.0624999702344
 30
0.0
 10
264.1952647926209
 20
119.3447178860167
 30
0.0
  0
LINE
  5
DD
330
70
100
AcDbEntity
  8
Layer 1
 62
    18
420
        0
370
    25
100
AcDbLine
 10
264.1952863244677
 20
119.3447178860167
 30
0.0
 11
264.1952863244677
 21
119.662226498676
 31
0.0
  0
LINE
  5
DE
330
70
100
AcDbEntity
  8
Layer 1
 62
    18
420
        0
370
    25
100
AcDbLine
 10
264.1952863244677
 20
119.662226498676
 30
0.0
 11
264.1952863244677
 21
126.0475010450804
 31
0.0
  0
SPLINE
  5
DF
330
70
100
AcDbEntity
  8
Layer 1
 62
    18
420
        0
370
    25
100
AcDbSpline
210
0.0
220
0.0
230
1.0
 70
     8
 71
     3
 72
    11
 73
     7
 74
     0
 42
0.0000000001
 43
0.0000000001
 40
0.0
 40
0.0
 40
0.0
 40
0.0
 40
1.0
 40
1.0
 40
1.0
 40
2.0
 40
2.0
 40
2.0
 40
2.0
 10
264.1952863244677
 20
126.0475010450804
 30
0.0
 10
264.1952863244677
 20
126.118055524026
 30
0.0
 10
264.1600171594374
 20
126.1886100029716
 30
0.0
 10
264.1247264625604
 20
126.2238899339252
 30
0.0
 10
264.0894357656834
 20
126.2591698648789
 30
0.0
 10
264.0188974356229
 20
126.2944444128708
 30
0.0
 10
263.9483375737156
 20
126.2944444128708
 30
0.0
  0
SPLINE
  5
E0
330
70
100
AcDbEntity
  8
Layer 1
 62
    18
420
        0
370
    25
100
AcDbSpline
210
0.0
220
0.0
230
1.0
 70
     8
 71
     3
 72
    11
 73
     7
 74
     0
 42
0.0000000001
 43
0.0000000001
 40
0.0
 40
0.0
 40
0.0
 40
0.0
 40
1.0
 40
1.0
 40
1.0
 40
2.0
 40
2.0
 40
2.0
 40
2.0
 10
263.9483375737156
 20
128.4111110790083
 30
0.0
 10
263.348611045274
 20
128.4111110790083
 30
0.0
 10
262.8900042406469
 20
127.9524988914195
 30
0.0
 10
262.8900042406469
 20
127.3527777459396
 30
0.0
 10
262.8900042406469
 20
126.7530566004596
 30
0.0
 10
263.348611045274
 20
126.2944444128708
 30
0.0
 10
263.9483375737156
 20
126.2944444128708
 30
0.0
  0
SPLINE
  5
E1
330
70
100
AcDbEntity
  8
Layer 1
 62
    18
420
        0
370
    25
100
AcDbSpline
210
0.0
220
0.0
230
1.0
 70
     8
 71
     3
 72
    11
 73
     7
 74
     0
 42
0.0000000001
 43
0.0000000001
 40
0.0
 40
0.0
 40
0.0
 40
0.0
 40
1.0
 40
1.0
 40
1.0
 40
2.0
 40
2.0
 40
2.0
 40
2.0
 10
263.9483375737156
 20
128.4111110790083
 30
0.0
 10
264.0188974356229
 20
128.4111110790083
 30
0.0
 10
264.0894572975302
 20
128.446391009962
 30
0.0
 10
264.1247264625604
 20
128.4816655579539
 30
0.0
 10
264.1599956275907
 20
128.5169454889075
 30
0.0
 10
264.1952863244677
 20
128.5874999678531
 30
0.0
 10
264.1952863244677
 20
128.6580544467987
 30
0.0
  0
LINE
  5
E2
330
70
100
AcDbEntity
  8
Layer 1
 62
    18
420
        0
370
    25
100
AcDbLine
 10
264.1952863244677
 20
128.6580544467987
 30
0.0
 11
264.1952863244677
 21
135.3961121538544
 31
0.0
  0
SPLINE
  5
E3
330
70
100
AcDbEntity
  8
Layer 1
 62
    18
420
        0
370
    25
100
AcDbSpline
210
0.0
220
0.0
230
1.0
 70
     8
 71
     3
 72
     8
 73
     4
 74
     0
 42
0.0000000001
 43
0.0000000001
 40
0.0
 40
0.0
 40
0.0
 40
0.0
 40
1.0
 40
1.0
 40
1.0
 40
1.0
 10
264.1952863244677
 20
135.3961121538544
 30
0.0
 10
264.1952863244677
 20
135.6783354525984
 30
0.0
 10
264.0894572975302
 20
135.9252788203888
 30
0.0
 10
263.9130684086854
 20
136.1016677092336
 30
0.0
  0
SPLINE
  5
E4
330
70
100
AcDbEntity
  8
Layer 1
 62
    18
420
        0
370
    25
100
AcDbSpline
210
0.0
220
0.0
230
1.0
 70
     8
 71
     3
 72
     8
 73
     4
 74
     0
 42
0.0000000001
 43
0.0000000001
 40
0.0
 40
0.0
 40
0.0
 40
0.0
 40
1.0
 40
1.0
 40
1.0
 40
1.0
 10
263.9130468768386
 20
136.1016677092336
 30
0.0
 10
263.7366579879938
 20
136.2780565980784
 30
0.0
 10
263.4897092372418
 20
136.3838910079776
 30
0.0
 10
263.2074913214594
 20
136.3838910079776
 30
0.0
  0
LINE
  5
E5
330
70
100
AcDbEntity
  8
Layer 1
 62
    18
420
        0
370
    25
100
AcDbLine
 10
263.2074913214594
 20
136.3838910079776
 30
0.0
 11
147.1436132275099
 21
136.3838910079776
 31
0.0
  0
SPLINE
  5
E6
330
70
100
AcDbEntity
  8
Layer 1
 62
    18
420
        0
370
    25
100
AcDbSpline
210
0.0
220
0.0
230
1.0
 70
     8
 71
     3
 72
     8
 73
     4
 74
     0
 42
0.0000000001
 43
0.0000000001
 40
0.0
 40
0.0
 40
0.0
 40
0.0
 40
1.0
 40
1.0
 40
1.0
 40
1.0
 10
145.7325021167515
 20
136.9836121534575
 30
0.0
 10
146.1205598253948
 20
136.5955544448143
 30
0.0
 10
146.6144465609755
 20
136.3838910079776
 30
0.0
 10
147.1436132275099
 20
136.3838910079776
 30
0.0
  0
SPLINE
  5
E7
330
70
100
AcDbEntity
  8
Layer 1
 62
    18
420
        0
370
    25
100
AcDbSpline
210
0.0
220
0.0
230
1.0
 70
     8
 71
     3
 72
     8
 73
     4
 74
     0
 42
0.0000000001
 43
0.0000000001
 40
0.0
 40
0.0
 40
0.0
 40
0.0
 40
1.0
 40
1.0
 40
1.0
 40
1.0
 10
145.1327755883099
 20
138.3947232642159
 30
0.0
 10
145.1327755883099
 20
137.8655565976815
 30
0.0
 10
145.3444444081083
 20
137.3363899311471
 30
0.0
 10
145.7325021167515
 20
136.9836121534575
 30
0.0
  0
LINE
  5
E8
330
70
100
AcDbEntity
  8
Layer 1
 62
    18
420
        0
370
    25
100
AcDbLine
 10
145.1327755883099
 20
138.3947232642159
 30
0.0
 11
145.1327755883099
 21
145.1327755883099
 31
0.0
  0
SPLINE
  5
E9
330
70
100
AcDbEntity
  8
Layer 1
 62
    18
420
        0
370
    25
100
AcDbSpline
210
0.0
220
0.0
230
1.0
 70
     8
 71
     3
 72
     8
 73
     4
 74
     0
 42
0.0000000001
 43
0.0000000001
 40
0.0
 40
0.0
 40
0.0
 40
0.0
 40
1.0
 40
1.0
 40
1.0
 40
1.0
 10
145.1327755883099
 20
145.1327755883099
 30
0.0
 10
145.1327755883099
 20
145.273884546201
 30
0.0
 10
145.0269465613724
 20
145.3797189561003
 30
0.0
 10
144.8858268375578
 20
145.3797189561003
 30
0.0
  0
SPLINE
  5
EA
330
70
100
AcDbEntity
  8
Layer 1
 62
    18
420
        0
370
    25
100
AcDbSpline
210
0.0
220
0.0
230
1.0
 70
     8
 71
     3
 72
    11
 73
     7
 74
     0
 42
0.0000000001
 43
0.0000000001
 40
0.0
 40
0.0
 40
0.0
 40
0.0
 40
1.0
 40
1.0
 40
1.0
 40
2.0
 40
2.0
 40
2.0
 40
2.0
 10
144.8858376034812
 20
147.4611110742458
 30
0.0
 10
144.3213910059932
 20
147.4611110742458
 30
0.0
 10
143.8275042704125
 20
147.002498886657
 30
0.0
 10
143.8275042704125
 20
146.4027777411771
 30
0.0
 10
143.8275042704125
 20
145.8030565956971
 30
0.0
 10
144.2861110750396
 20
145.3444444081083
 30
0.0
 10
144.8858376034812
 20
145.3444444081083
 30
0.0
  0
SPLINE
  5
EB
330
70
100
AcDbEntity
  8
Layer 1
 62
    18
420
        0
370
    25
100
AcDbSpline
210
0.0
220
0.0
230
1.0
 70
     8
 71
     3
 72
     8
 73
     4
 74
     0
 42
0.0000000001
 43
0.0000000001
 40
0.0
 40
0.0
 40
0.0
 40
0.0
 40
1.0
 40
1.0
 40
1.0
 40
1.0
 10
144.8858376034812
 20
147.4611110742458
 30
0.0
 10
145.0269465613724
 20
147.4611110742458
 30
0.0
 10
145.1327863542333
 20
147.566945484145
 30
0.0
 10
145.1327863542333
 20
147.7080544420362
 30
0.0
  0
LINE
  5
EC
330
70
100
AcDbEntity
  8
Layer 1
 62
    18
420
        0
370
    25
100
AcDbLine
 10
145.1327755883099
 20
147.7433343729898
 30
0.0
 11
145.1327755883099
 21
154.4461121490919
 31
0.0
  0
SPLINE
  5
ED
330
70
100
AcDbEntity
  8
Layer 1
 62
    18
420
        0
370
    25
100
AcDbSpline
210
0.0
220
0.0
230
1.0
 70
     8
 71
     3
 72
     8
 73
     4
 74
     0
 42
0.0000000001
 43
0.0000000001
 40
0.0
 40
0.0
 40
0.0
 40
0.0
 40
1.0
 40
1.0
 40
1.0
 40
1.0
 10
145.1327755883099
 20
154.4461121490919
 30
0.0
 10
145.1327755883099
 20
154.7283354478359
 30
0.0
 10
145.0269465613724
 20
154.9752788156263
 30
0.0
 10
144.8505576725276
 20
155.1516677044711
 30
0.0
  0
ENDSEC
  0
SECTION
  2
OBJECTS
  0
DICTIONARY
  5
C
330
0
100
AcDbDictionary
281
     1
  3
ACAD_COLOR
350
63
  3
ACAD_DETAILVIEWSTYLE
350
6A
  3
ACAD_GROUP
350
D
  3
ACAD_LAYOUT
350
62
  3
ACAD_MATERIAL
350
10
  3
ACAD_MLEADERSTYLE
350
66
  3
ACAD_MLINESTYLE
350
5F
  3
ACAD_PLOTSETTINGS
350
61
  3
ACAD_PLOTSTYLENAME
350
E
  3
ACAD_SCALELIST
350
42
  3
ACAD_SECTIONVIEWSTYLE
350
68
  3
ACAD_TABLESTYLE
350
64
  3
ACAD_VISUALSTYLE
350
29
  3
ACDB_RECOMPOSE_DATA
350
F6
  3
AcDbVariableDictionary
350
EE
  0
DICTIONARY
  5
63
102
{ACAD_REACTORS
330
C
102
}
330
C
100
AcDbDictionary
281
     1
  0
DICTIONARY
  5
6A
102
{ACAD_REACTORS
330
C
102
}
330
C
100
AcDbDictionary
281
     1
  3
Imperial24
350
6B
  0
DICTIONARY
  5
D
102
{ACAD_REACTORS
330
C
102
}
330
C
100
AcDbDictionary
281
     1
  0
DICTIONARY
  5
62
102
{ACAD_REACTORS
330
C
102
}
330
C
100
AcDbDictionary
281
     1
  3
Layout1
350
6F
  3
Layout2
350
77
  3
Model
350
73
  0
DICTIONARY
  5
10
102
{ACAD_REACTORS
330
C
102
}
330
C
100
AcDbDictionary
281
     1
  3
ByBlock
350
19
  3
ByLayer
350
11
  3
Global
350
21
  0
DICTIONARY
  5
66
102
{ACAD_REACTORS
330
C
102
}
330
C
100
AcDbDictionary
281
     1
  3
Standard
350
67
  0
DICTIONARY
  5
5F
102
{ACAD_REACTORS
330
C
102
}
330
C
100
AcDbDictionary
281
     1
  3
Standard
350
60
  0
DICTIONARY
  5
61
102
{ACAD_REACTORS
330
C
102
}
330
C
100
AcDbDictionary
281
     1
  0
ACDBDICTIONARYWDFLT
  5
E
102
{ACAD_REACTORS
330
C
102
}
330
C
100
AcDbDictionary
281
     1
  3
Normal
350
F
100
AcDbDictionaryWithDefault
340
F
  0
DICTIONARY
  5
42
102
{ACAD_REACTORS
330
C
102
}
330
C
100
AcDbDictionary
281
     1
  3
A0
350
43
  3
A1
350
44
  3
A2
350
45
  3
A3
350
46
  3
A4
350
47
  3
A5
350
48
  3
A6
350
49
  3
A7
350
4A
  3
A8
350
4B
  3
A9
350
4C
  3
B0
350
4D
  3
B1
350
4E
  3
B2
350
4F
  3
B3
350
50
  3
B4
350
51
  3
B5
350
52
  3
B6
350
53
  0
DICTIONARY
  5
68
102
{ACAD_REACTORS
330
C
102
}
330
C
100
AcDbDictionary
281
     1
  3
Imperial24
350
69
  0
DICTIONARY
  5
64
102
{ACAD_REACTORS
330
C
102
}
330
C
100
AcDbDictionary
281
     1
  3
Standard
350
65
  0
DICTIONARY
  5
29
102
{ACAD_REACTORS
330
C
102
}
330
C
100
AcDbDictionary
281
     1
  3
2dWireframe
350
2F
  3
Basic
350
2E
  3
Brighten
350
35
  3
ColorChange
350
39
  3
Conceptual
350
32
  3
Dim
350
34
  3
EdgeColorOff
350
41
  3
Facepattern
350
38
  3
Flat
350
2A
  3
FlatWithEdges
350
2B
  3
Gouraud
350
2C
  3
GouraudWithEdges
350
2D
  3
Hidden
350
31
  3
JitterOff
350
3F
  3
Linepattern
350
37
  3
OverhangOff
350
40
  3
Realistic
350
33
  3
Shaded
350
3E
  3
Shaded with edges
350
3D
  3
Shades of Gray
350
3A
  3
Sketchy
350
3B
  3
Thicken
350
36
  3
Wireframe
350
30
  3
X-Ray
350
3C
  0
XRECORD
  5
F6
102
{ACAD_REACTORS
330
C
102
}
330
C
100
AcDbXrecord
280
     1
 90
        1
330
65
  0
DICTIONARY
  5
EE
102
{ACAD_REACTORS
330
C
102
}
330
C
100
AcDbDictionary
281
     1
  3
CANNOSCALE
350
F3
  3
CMLEADERSTYLE
350
F0
  3
CTABLESTYLE
350
EF
  3
CVIEWDETAILSTYLE
350
F1
  3
CVIEWSECTIONSTYLE
350
F2
  0
ACDBDETAILVIEWSTYLE
  5
6B
102
{ACAD_REACTORS
330
6A
102
}
330
6A
100
AcDbModelDocViewStyle
 70
     0
  3
Imperial24
290
     1
300
Imperial24
 90
        0
100
AcDbDetailViewStyle
 70
     0
 71
     0
 90
        3
 71
     1
340
55
 62
   256
 40
0.24
340
0
 62
   256
 40
0.24
300

 40
0.36
280
     3
 71
     2
340
5D
 90
       25
 62
   256
 71
     3
340
55
 62
   256
 40
0.24
 90
        1
 40
0.75
 90
        1
300
%<\AcVar ViewType \f "%tc1">% %<\AcVar ViewDetailId>%\PSCALE %<\AcVar ViewScale \f "%sn">%
 71
     4
340
5D
 90
       25
 62
   256
340
5D
 90
       25
 62
   256
280
     0
  0
LAYOUT
  5
6F
102
{ACAD_REACTORS
330
62
102
}
330
62
100
AcDbPlotSettings
  1

  2

  4

  6

 40
0.0
 41
0.0
 42
0.0
 43
0.0
 44
0.0
 45
0.0
 46
0.0
 47
0.0
 48
0.0
 49
0.0
140
0.0
141
0.0
142
1.0
143
1.0
 70
   688
 72
     0
 73
     0
 74
     5
  7

 75
    16
147
1.0
 76
     0
 77
     2
 78
   300
148
0.0
149
0.0
100
AcDbLayout
  1
Layout1
 70
     1
 71
     1
 10
0.0
 20
0.0
 11
12.0
 21
9.0
 12
0.0
 22
0.0
 32
0.0
 14
0.0
 24
0.0
 34
0.0
 15
0.0
 25
0.0
 35
0.0
146
0.0
 13
0.0
 23
0.0
 33
0.0
 16
1.0
 26
0.0
 36
0.0
 17
0.0
 27
1.0
 37
0.0
 76
     0
330
6C
  0
LAYOUT
  5
77
102
{ACAD_REACTORS
330
62
102
}
330
62
100
AcDbPlotSettings
  1

  2

  4

  6

 40
0.0
 41
0.0
 42
0.0
 43
0.0
 44
0.0
 45
0.0
 46
0.0
 47
0.0
 48
0.0
 49
0.0
140
0.0
141
0.0
142
1.0
143
1.0
 70
   688
 72
     0
 73
     0
 74
     5
  7

 75
    16
147
1.0
 76
     0
 77
     2
 78
   300
148
0.0
149
0.0
100
AcDbLayout
  1
Layout2
 70
     1
 71
     2
 10
0.0
 20
0.0
 11
12.0
 21
9.0
 12
0.0
 22
0.0
 32
0.0
 14
0.0
 24
0.0
 34
0.0
 15
0.0
 25
0.0
 35
0.0
146
0.0
 13
0.0
 23
0.0
 33
0.0
 16
1.0
 26
0.0
 36
0.0
 17
0.0
 27
1.0
 37
0.0
 76
     0
330
74
  0
LAYOUT
  5
73
102
{ACAD_REACTORS
330
62
102
}
330
62
100
AcDbPlotSettings
  1

  2

  4

  6

 40
0.0
 41
0.0
 42
0.0
 43
0.0
 44
0.0
 45
0.0
 46
0.0
 47
0.0
 48
0.0
 49
0.0
140
0.0
141
0.0
142
1.0
143
1.0
 70
  1712
 72
     0
 73
     0
 74
     0
  7

 75
     0
147
1.0
 76
     0
 77
     2
 78
   300
148
0.0
149
0.0
100
AcDbLayout
  1
Model
 70
     1
 71
     0
 10
0.0
 20
0.0
 11
12.0
 21
9.0
 12
0.0
 22
0.0
 32
0.0
 14
0.0
 24
0.0
 34
0.0
 15
0.0
 25
0.0
 35
0.0
146
0.0
 13
0.0
 23
0.0
 33
0.0
 16
1.0
 26
0.0
 36
0.0
 17
0.0
 27
1.0
 37
0.0
 76
     0
330
70
  0
MATERIAL
  5
19
102
{ACAD_XDICTIONARY
360
1A
102
}
102
{ACAD_REACTORS
330
10
102
}
330
10
100
AcDbMaterial
  1
ByBlock
 72
     0
 43
0.0208333333333333
 43
0.0
 43
0.0
 43
0.0
 43
0.0
 43
0.0208333333333333
 43
0.0
 43
0.0
 43
0.0
 43
0.0
 43
1.0
 43
0.0
 43
0.0
 43
0.0
 43
0.0
 43
1.0
 77
     0
 47
0.0208333333333333
 47
0.0
 47
0.0
 47
0.0
 47
0.0
 47
0.0208333333333333
 47
0.0
 47
0.0
 47
0.0
 47
0.0
 47
1.0
 47
0.0
 47
0.0
 47
0.0
 47
0.0
 47
1.0
171
     0
 49
0.0208333333333333
 49
0.0
 49
0.0
 49
0.0
 49
0.0
 49
0.0208333333333333
 49
0.0
 49
0.0
 49
0.0
 49
0.0
 49
1.0
 49
0.0
 49
0.0
 49
0.0
 49
0.0
 49
1.0
175
     0
142
0.0208333333333333
142
0.0
142
0.0
142
0.0
142
0.0
142
0.0208333333333333
142
0.0
142
0.0
142
0.0
142
0.0
142
1.0
142
0.0
142
0.0
142
0.0
142
0.0
142
1.0
179
     0
144
0.0208333333333333
144
0.0
144
0.0
144
0.0
144
0.0
144
0.0208333333333333
144
0.0
144
0.0
144
0.0
144
0.0
144
1.0
144
0.0
144
0.0
144
0.0
144
0.0
144
1.0
147
0.0208333333333333
147
0.0
147
0.0
147
0.0
147
0.0
147
0.0208333333333333
147
0.0
147
0.0
147
0.0
147
0.0
147
1.0
147
0.0
147
0.0
147
0.0
147
0.0
147
1.0
  0
MATERIAL
  5
11
102
{ACAD_XDICTIONARY
360
12
102
}
102
{ACAD_REACTORS
330
10
102
}
330
10
100
AcDbMaterial
  1
ByLayer
 72
     0
 43
0.0208333333333333
 43
0.0
 43
0.0
 43
0.0
 43
0.0
 43
0.0208333333333333
 43
0.0
 43
0.0
 43
0.0
 43
0.0
 43
1.0
 43
0.0
 43
0.0
 43
0.0
 43
0.0
 43
1.0
 77
     0
 47
0.0208333333333333
 47
0.0
 47
0.0
 47
0.0
 47
0.0
 47
0.0208333333333333
 47
0.0
 47
0.0
 47
0.0
 47
0.0
 47
1.0
 47
0.0
 47
0.0
 47
0.0
 47
0.0
 47
1.0
171
     0
 49
0.0208333333333333
 49
0.0
 49
0.0
 49
0.0
 49
0.0
 49
0.0208333333333333
 49
0.0
 49
0.0
 49
0.0
 49
0.0
 49
1.0
 49
0.0
 49
0.0
 49
0.0
 49
0.0
 49
1.0
175
     0
142
0.0208333333333333
142
0.0
142
0.0
142
0.0
142
0.0
142
0.0208333333333333
142
0.0
142
0.0
142
0.0
142
0.0
142
1.0
142
0.0
142
0.0
142
0.0
142
0.0
142
1.0
179
     0
144
0.0208333333333333
144
0.0
144
0.0
144
0.0
144
0.0
144
0.0208333333333333
144
0.0
144
0.0
144
0.0
144
0.0
144
1.0
144
0.0
144
0.0
144
0.0
144
0.0
144
1.0
147
0.0208333333333333
147
0.0
147
0.0
147
0.0
147
0.0
147
0.0208333333333333
147
0.0
147
0.0
147
0.0
147
0.0
147
1.0
147
0.0
147
0.0
147
0.0
147
0.0
147
1.0
  0
MATERIAL
  5
21
102
{ACAD_XDICTIONARY
360
22
102
}
102
{ACAD_REACTORS
330
10
102
}
330
10
100
AcDbMaterial
  1
Global
 72
     0
 43
0.0208333333333333
 43
0.0
 43
0.0
 43
0.0
 43
0.0
 43
0.0208333333333333
 43
0.0
 43
0.0
 43
0.0
 43
0.0
 43
1.0
 43
0.0
 43
0.0
 43
0.0
 43
0.0
 43
1.0
 77
     0
 47
0.0208333333333333
 47
0.0
 47
0.0
 47
0.0
 47
0.0
 47
0.0208333333333333
 47
0.0
 47
0.0
 47
0.0
 47
0.0
 47
1.0
 47
0.0
 47
0.0
 47
0.0
 47
0.0
 47
1.0
171
     0
 49
0.0208333333333333
 49
0.0
 49
0.0
 49
0.0
 49
0.0
 49
0.0208333333333333
 49
0.0
 49
0.0
 49
0.0
 49
0.0
 49
1.0
 49
0.0
 49
0.0
 49
0.0
 49
0.0
 49
1.0
175
     0
142
0.0208333333333333
142
0.0
142
0.0
142
0.0
142
0.0
142
0.0208333333333333
142
0.0
142
0.0
142
0.0
142
0.0
142
1.0
142
0.0
142
0.0
142
0.0
142
0.0
142
1.0
179
     0
144
0.0208333333333333
144
0.0
144
0.0
144
0.0
144
0.0
144
0.0208333333333333
144
0.0
144
0.0
144
0.0
144
0.0
144
1.0
144
0.0
144
0.0
144
0.0
144
0.0
144
1.0
147
0.0208333333333333
147
0.0
147
0.0
147
0.0
147
0.0
147
0.0208333333333333
147
0.0
147
0.0
147
0.0
147
0.0
147
1.0
147
0.0
147
0.0
147
0.0
147
0.0
147
1.0
  0
MLEADERSTYLE
  5
67
102
{ACAD_REACTORS
330
66
102
}
330
66
100
AcDbMLeaderStyle
179
     2
170
     2
171
     1
172
     0
 90
        2
 40
0.0
 41
0.0
173
     1
 91
-1056964608
340
5B
 92
       -2
290
     1
 42
0.09
291
     1
 43
0.36
  3
Standard
 44
0.18
300

342
55
174
     1
178
     6
175
     1
176
     0
 93
-1056964608
 45
0.18
292
     0
297
     0
 46
0.18
 94
-1056964608
 47
1.0
 49
1.0
140
1.0
293
     1
141
0.0
294
     1
177
     0
142
1.0
295
     1
296
     0
143
0.125
271
     0
272
     9
273
     9
298
     1
  0
MLINESTYLE
  5
60
102
{ACAD_REACTORS
330
5F
102
}
330
5F
100
AcDbMlineStyle
  2
STANDARD
 70
     0
  3

 62
   256
 51
90.0
 52
90.0
 71
     2
 49
0.5
 62
   256
  6
BYLAYER
 49
-0.5
 62
   256
  6
BYLAYER
  0
ACDBPLACEHOLDER
  5
F
102
{ACAD_REACTORS
330
E
102
}
330
E
  0
SCALE
  5
43
102
{ACAD_REACTORS
330
42
102
}
330
42
100
AcDbScale
 70
     0
300
1:1
140
1.0
141
1.0
290
     1
  0
SCALE
  5
44
102
{ACAD_REACTORS
330
42
102
}
330
42
100
AcDbScale
 70
     0
300
1/128" = 1'-0"
140
0.0078125
141
12.0
290
     0
  0
SCALE
  5
45
102
{ACAD_REACTORS
330
42
102
}
330
42
100
AcDbScale
 70
     0
300
1/64" = 1'-0"
140
0.015625
141
12.0
290
     0
  0
SCALE
  5
46
102
{ACAD_REACTORS
330
42
102
}
330
42
100
AcDbScale
 70
     0
300
1/32" = 1'-0"
140
0.03125
141
12.0
290
     0
  0
SCALE
  5
47
102
{ACAD_REACTORS
330
42
102
}
330
42
100
AcDbScale
 70
     0
300
1/16" = 1'-0"
140
0.0625
141
12.0
290
     0
  0
SCALE
  5
48
102
{ACAD_REACTORS
330
42
102
}
330
42
100
AcDbScale
 70
     0
300
3/32" = 1'-0"
140
0.09375
141
12.0
290
     0
  0
SCALE
  5
49
102
{ACAD_REACTORS
330
42
102
}
330
42
100
AcDbScale
 70
     0
300
1/8" = 1'-0"
140
0.125
141
12.0
290
     0
  0
SCALE
  5
4A
102
{ACAD_REACTORS
330
42
102
}
330
42
100
AcDbScale
 70
     0
300
3/16" = 1'-0"
140
0.1875
141
12.0
290
     0
  0
SCALE
  5
4B
102
{ACAD_REACTORS
330
42
102
}
330
42
100
AcDbScale
 70
     0
300
1/4" = 1'-0"
140
0.25
141
12.0
290
     0
  0
SCALE
  5
4C
102
{ACAD_REACTORS
330
42
102
}
330
42
100
AcDbScale
 70
     0
300
3/8" = 1'-0"
140
0.375
141
12.0
290
     0
  0
SCALE
  5
4D
102
{ACAD_REACTORS
330
42
102
}
330
42
100
AcDbScale
 70
     0
300
1/2" = 1'-0"
140
0.5
141
12.0
290
     0
  0
SCALE
  5
4E
102
{ACAD_REACTORS
330
42
102
}
330
42
100
AcDbScale
 70
     0
300
3/4" = 1'-0"
140
0.75
141
12.0
290
     0
  0
SCALE
  5
4F
102
{ACAD_REACTORS
330
42
102
}
330
42
100
AcDbScale
 70
     0
300
1" = 1'-0"
140
1.0
141
12.0
290
     0
  0
SCALE
  5
50
102
{ACAD_REACTORS
330
42
102
}
330
42
100
AcDbScale
 70
     0
300
1-1/2" = 1'-0"
140
1.5
141
12.0
290
     0
  0
SCALE
  5
51
102
{ACAD_REACTORS
330
42
102
}
330
42
100
AcDbScale
 70
     0
300
3" = 1'-0"
140
3.0
141
12.0
290
     0
  0
SCALE
  5
52
102
{ACAD_REACTORS
330
42
102
}
330
42
100
AcDbScale
 70
     0
300
6" = 1'-0"
140
6.0
141
12.0
290
     0
  0
SCALE
  5
53
102
{ACAD_REACTORS
330
42
102
}
330
42
100
AcDbScale
 70
     0
300
1'-0" = 1'-0"
140
12.0
141
12.0
290
     0
  0
ACDBSECTIONVIEWSTYLE
  5
69
102
{ACAD_REACTORS
330
68
102
}
330
68
100
AcDbModelDocViewStyle
 70
     0
  3
Imperial24
290
     1
300
Imperial24
 90
        0
100
AcDbSectionViewStyle
 70
     0
 71
     0
 90
       78
 71
     1
340
55
 62
   256
 40
0.24
340
0
340
0
 62
   256
 40
0.24
300
I, O, Q, S, X, Z
 40
0.48
 90
        3
 40
0.18
 90
        1
 71
     2
340
5D
 90
       25
 62
   256
340
5D
 90
       50
 62
   256
 40
0.24
 40
0.0
 40
0.24
 71
     3
340
55
 62
   256
 40
0.24
 90
        1
 40
0.75
 90
        1
300
%<\AcVar ViewType \f "%tc1">% %<\AcVar ViewSectionStartId>%-%<\AcVar ViewSectionEndId>%\PSCALE %<\AcVar ViewScale \f "%sn">%
 71
     4
 62
   256
 62
   257
300
ANSI31
 40
1.0
 90
        0
290
     0
290
     0
 90
        6
 40
0.0
 40
1.570796326794896
 40
0.2617993877991494
 40
1.308996938995747
 40
-0.2617993877991494
 40
1.832595714594046
  0
TABLESTYLE
  5
65
102
{ACAD_XDICTIONARY
360
F4
102
}
102
{ACAD_REACTORS
330
64
102
}
330
64
100
AcDbTableStyle
280
     0
  3
Standard
 70
     0
 71
     0
 40
0.06
 41
0.06
280
     0
281
     0
  7
Standard
140
0.18
170
     2
 62
     0
 63
     7
283
     0
 90
      512
 91
        0
  1

274
    -2
284
     1
 64
     0
275
    -2
285
     1
 65
     0
276
    -2
286
     1
 66
     0
277
    -2
287
     1
 67
     0
278
    -2
288
     1
 68
     0
279
    -2
289
     1
 69
     0
  7
Standard
140
0.25
170
     5
 62
     0
 63
     7
283
     0
 90
      512
 91
        0
  1

274
    -2
284
     1
 64
     0
275
    -2
285
     1
 65
     0
276
    -2
286
     1
 66
     0
277
    -2
287
     1
 67
     0
278
    -2
288
     1
 68
     0
279
    -2
289
     1
 69
     0
  7
Standard
140
0.18
170
     5
 62
     0
 63
     7
283
     0
 90
      512
 91
        0
  1

274
    -2
284
     1
 64
     0
275
    -2
285
     1
 65
     0
276
    -2
286
     1
 66
     0
277
    -2
287
     1
 67
     0
278
    -2
288
     1
 68
     0
279
    -2
289
     1
 69
     0
  0
VISUALSTYLE
  5
2F
102
{ACAD_REACTORS
330
29
102
}
330
29
100
AcDbVisualStyle
  2
2dWireframe
 70
     4
177
     3
291
     0
 70
    58
 90
        0
176
     1
 90
        2
176
     1
 90
        0
176
     1
 90
        0
176
     1
 40
0.6
176
     1
 40
30.0
176
     1
 62
     7
420
 16777215
176
     1
 90
        1
176
     1
 90
        4
176
     1
 62
     7
176
     1
 62
   257
176
     1
 90
        1
176
     1
 90
        1
176
     1
 40
1.0
176
     1
 90
        0
176
     1
 62
   257
176
     1
 40
1.0
176
     1
 90
        1
176
     1
 90
        6
176
     1
 90
        2
176
     1
 62
     7
176
     1
 90
        5
176
     1
 90
        0
176
     1
 90
        0
176
     1
290
     0
176
     1
 90
        1
176
     1
 40
0.0
176
     1
 90
        0
176
     1
290
     1
176
     1
290
     1
176
     1
290
     0
176
     1
290
     0
176
     1
290
     0
176
     1
290
     0
176
     1
290
     0
176
     1
290
     0
176
     1
290
     0
176
     1
 90
       50
176
     1
 40
0.0
176
     1
 40
1.0
176
     1
 90
        0
176
     1
 62
    18
420
        0
176
     1
 90
       50
176
     1
 90
        3
176
     1
 62
     5
420
      255
176
     1
290
     0
176
     1
 90
       50
176
     1
 90
       50
176
     1
 90
       50
176
     1
290
     0
176
     1
 90
       50
176
     1
 62
   256
176
     0
 40
1.0
176
     0
 90
        2
176
     1
  1
strokes_ogs.tif
176
     1
290
     0
176
     1
 40
1.0
176
     1
 40
1.0
176
     1
  0
VISUALSTYLE
  5
2E
102
{ACAD_REACTORS
330
29
102
}
330
29
100
AcDbVisualStyle
  2
Basic
 70
     7
177
     3
291
     1
 70
    58
 90
        1
176
     1
 90
        0
176
     1
 90
        1
176
     1
 90
        0
176
     1
 40
0.6
176
     1
 40
30.0
176
     1
 62
     7
420
 16777215
176
     1
 90
        0
176
     1
 90
        4
176
     1
 62
     7
176
     1
 62
   257
176
     1
 90
        1
176
     1
 90
        1
176
     1
 40
1.0
176
     1
 90
        8
176
     1
 62
     7
176
     1
 40
1.0
176
     1
 90
        1
176
     1
 90
        6
176
     1
 90
        2
176
     1
 62
     7
176
     1
 90
        5
176
     1
 90
        0
176
     1
 90
        0
176
     1
290
     0
176
     1
 90
        1
176
     1
 40
0.0
176
     1
 90
        0
176
     1
290
     0
176
     1
290
     1
176
     1
290
     1
176
     1
290
     0
176
     1
290
     0
176
     1
290
     0
176
     1
290
     0
176
     1
290
     0
176
     1
290
     0
176
     1
 90
       50
176
     1
 40
0.0
176
     1
 40
1.0
176
     1
 90
        0
176
     1
 62
    18
420
        0
176
     1
 90
       50
176
     1
 90
        3
176
     1
 62
     5
420
      255
176
     1
290
     0
176
     1
 90
       50
176
     1
 90
       50
176
     1
 90
       50
176
     1
290
     0
176
     1
 90
       50
176
     1
 62
   256
176
     0
 40
1.0
176
     0
 90
        2
176
     1
  1
strokes_ogs.tif
176
     1
290
     0
176
     1
 40
1.0
176
     1
 40
1.0
176
     1
  0
VISUALSTYLE
  5
35
102
{ACAD_REACTORS
330
29
102
}
330
29
100
AcDbVisualStyle
  2
Brighten
 70
    12
177
     3
291
     1
 70
    58
 90
        2
176
     1
 90
        2
176
     1
 90
        0
176
     1
 90
        0
176
     1
 40
0.6
176
     1
 40
30.0
176
     1
 62
     7
420
 16777215
176
     1
 90
        1
176
     1
 90
        4
176
     1
 62
     7
176
     1
 62
   257
176
     1
 90
        1
176
     1
 90
        1
176
     1
 40
1.0
176
     1
 90
        8
176
     1
 62
     7
176
     1
 40
1.0
176
     1
 90
        1
176
     1
 90
        6
176
     1
 90
        2
176
     1
 62
     7
176
     1
 90
        5
176
     1
 90
        0
176
     1
 90
        0
176
     1
290
     0
176
     1
 90
        1
176
     1
 40
50.0
176
     1
 90
        0
176
     1
290
     0
176
     1
290
     1
176
     1
290
     1
176
     1
290
     0
176
     1
290
     0
176
     1
290
     0
176
     1
290
     0
176
     1
290
     0
176
     1
290
     0
176
     1
 90
       50
176
     1
 40
0.0
176
     1
 40
1.0
176
     1
 90
        0
176
     1
 62
    18
420
        0
176
     1
 90
       50
176
     1
 90
        3
176
     1
 62
     5
420
      255
176
     1
290
     0
176
     1
 90
       50
176
     1
 90
       50
176
     1
 90
       50
176
     1
290
     0
176
     1
 90
       50
176
     1
 62
   256
176
     0
 40
1.0
176
     0
 90
        2
176
     1
  1
strokes_ogs.tif
176
     1
290
     0
176
     1
 40
1.0
176
     1
 40
1.0
176
     1
  0
VISUALSTYLE
  5
39
102
{ACAD_REACTORS
330
29
102
}
330
29
100
AcDbVisualStyle
  2
ColorChange
 70
    16
177
     3
291
     1
 70
    58
 90
        2
176
     1
 90
        2
176
     1
 90
        3
176
     1
 90
        0
176
     1
 40
0.6
176
     1
 40
30.0
176
     1
 62
     8
420
  8421504
176
     1
 90
        1
176
     1
 90
        4
176
     1
 62
     7
176
     1
 62
   257
176
     1
 90
        1
176
     1
 90
        1
176
     1
 40
1.0
176
     1
 90
        8
176
     1
 62
     8
420
  8421504
176
     1
 40
1.0
176
     1
 90
        1
176
     1
 90
        6
176
     1
 90
        2
176
     1
 62
     7
176
     1
 90
        5
176
     1
 90
        0
176
     1
 90
        0
176
     1
290
     0
176
     1
 90
        1
176
     1
 40
0.0
176
     1
 90
        0
176
     1
290
     0
176
     1
290
     1
176
     1
290
     1
176
     1
290
     0
176
     1
290
     0
176
     1
290
     0
176
     1
290
     0
176
     1
290
     0
176
     1
290
     0
176
     1
 90
       50
176
     1
 40
0.0
176
     1
 40
1.0
176
     1
 90
        0
176
     1
 62
    18
420
        0
176
     1
 90
       50
176
     1
 90
        3
176
     1
 62
     5
420
      255
176
     1
290
     0
176
     1
 90
       50
176
     1
 90
       50
176
     1
 90
       50
176
     1
290
     0
176
     1
 90
       50
176
     1
 62
   256
176
     0
 40
1.0
176
     0
 90
        2
176
     1
  1
strokes_ogs.tif
176
     1
290
     0
176
     1
 40
1.0
176
     1
 40
1.0
176
     1
  0
VISUALSTYLE
  5
32
102
{ACAD_REACTORS
330
29
102
}
330
29
100
AcDbVisualStyle
  2
Conceptual
 70
     9
177
     3
291
     0
 70
    58
 90
        3
176
     1
 90
        2
176
     1
 90
        0
176
     1
 90
        0
176
     1
 40
0.6
176
     1
 40
30.0
176
     1
 62
     7
420
 16777215
176
     1
 90
        2
176
     1
 90
        2
176
     1
 62
     7
176
     1
 62
   257
176
     1
 90
        1
176
     1
 90
        1
176
     1
 40
179.0
176
     1
 90
        8
176
     1
 62
     7
176
     1
 40
1.0
176
     1
 90
        1
176
     1
 90
        6
176
     1
 90
        2
176
     1
 62
     7
176
     1
 90
        3
176
     1
 90
        0
176
     1
 90
        0
176
     1
290
     0
176
     1
 90
        1
176
     1
 40
0.0
176
     1
 90
        0
176
     1
290
     0
176
     1
290
     1
176
     1
290
     1
176
     1
290
     0
176
     1
290
     0
176
     1
290
     0
176
     1
290
     0
176
     1
290
     0
176
     1
290
     0
176
     1
 90
       50
176
     1
 40
0.0
176
     1
 40
1.0
176
     1
 90
        0
176
     1
 62
    18
420
        0
176
     1
 90
       50
176
     1
 90
        3
176
     1
 62
     5
420
      255
176
     1
290
     0
176
     1
 90
       50
176
     1
 90
       50
176
     1
 90
       50
176
     1
290
     0
176
     1
 90
       50
176
     1
 62
   256
176
     0
 40
1.0
176
     0
 90
        2
176
     1
  1
strokes_ogs.tif
176
     1
290
     0
176
     1
 40
1.0
176
     1
 40
1.0
176
     1
  0
VISUALSTYLE
  5
34
102
{ACAD_REACTORS
330
29
102
}
330
29
100
AcDbVisualStyle
  2
Dim
 70
    11
177
     3
291
     1
 70
    58
 90
        2
176
     1
 90
        2
176
     1
 90
        0
176
     1
 90
        0
176
     1
 40
0.6
176
     1
 40
30.0
176
     1
 62
     7
420
 16777215
176
     1
 90
        1
176
     1
 90
        4
176
     1
 62
     7
176
     1
 62
   257
176
     1
 90
        1
176
     1
 90
        1
176
     1
 40
1.0
176
     1
 90
        8
176
     1
 62
     7
176
     1
 40
1.0
176
     1
 90
        1
176
     1
 90
        6
176
     1
 90
        2
176
     1
 62
     7
176
     1
 90
        5
176
     1
 90
        0
176
     1
 90
        0
176
     1
290
     0
176
     1
 90
        1
176
     1
 40
-50.0
176
     1
 90
        0
176
     1
290
     0
176
     1
290
     1
176
     1
290
     1
176
     1
290
     0
176
     1
290
     0
176
     1
290
     0
176
     1
290
     0
176
     1
290
     0
176
     1
290
     0
176
     1
 90
       50
176
     1
 40
0.0
176
     1
 40
1.0
176
     1
 90
        0
176
     1
 62
    18
420
        0
176
     1
 90
       50
176
     1
 90
        3
176
     1
 62
     5
420
      255
176
     1
290
     0
176
     1
 90
       50
176
     1
 90
       50
176
     1
 90
       50
176
     1
290
     0
176
     1
 90
       50
176
     1
 62
   256
176
     0
 40
1.0
176
     0
 90
        2
176
     1
  1
strokes_ogs.tif
176
     1
290
     0
176
     1
 40
1.0
176
     1
 40
1.0
176
     1
  0
VISUALSTYLE
  5
41
102
{ACAD_REACTORS
330
29
102
}
330
29
100
AcDbVisualStyle
  2
EdgeColorOff
 70
    22
177
     3
291
     1
 70
    58
 90
        2
176
     0
 90
        2
176
     0
 90
        0
176
     0
 90
        0
176
     0
 40
0.6
176
     0
 40
30.0
176
     0
 62
     7
420
 16777215
176
     0
 90
        1
176
     0
 90
        4
176
     0
 62
     7
176
     0
 62
   257
176
     0
 90
        1
176
     0
 90
        1
176
     0
 40
1.0
176
     0
 90
        8
176
     2
 62
     7
176
     0
 40
1.0
176
     0
 90
        1
176
     0
 90
        6
176
     0
 90
        2
176
     0
 62
     7
176
     0
 90
        5
176
     0
 90
        0
176
     0
 90
        0
176
     0
290
     0
176
     0
 90
        1
176
     0
 40
0.0
176
     0
 90
        0
176
     0
290
     0
176
     0
290
     1
176
     0
290
     1
176
     0
290
     0
176
     0
290
     0
176
     0
290
     0
176
     0
290
     0
176
     0
290
     0
176
     0
290
     0
176
     0
 90
       50
176
     0
 40
0.0
176
     0
 40
1.0
176
     0
 90
        0
176
     0
 62
    18
420
        0
176
     0
 90
       50
176
     0
 90
        3
176
     0
 62
     5
420
      255
176
     0
290
     0
176
     0
 90
       50
176
     0
 90
       50
176
     0
 90
       50
176
     0
290
     0
176
     0
 90
       50
176
     0
 62
   256
176
     0
 40
1.0
176
     0
 90
        2
176
     0
  1
strokes_ogs.tif
176
     0
290
     0
176
     0
 40
1.0
176
     0
 40
1.0
176
     0
  0
VISUALSTYLE
  5
38
102
{ACAD_REACTORS
330
29
102
}
330
29
100
AcDbVisualStyle
  2
Facepattern
 70
    15
177
     3
291
     1
 70
    58
 90
        2
176
     1
 90
        2
176
     1
 90
        0
176
     1
 90
        0
176
     1
 40
0.6
176
     1
 40
30.0
176
     1
 62
     7
420
 16777215
176
     1
 90
        1
176
     1
 90
        4
176
     1
 62
     7
176
     1
 62
   257
176
     1
 90
        1
176
     1
 90
        1
176
     1
 40
1.0
176
     1
 90
        8
176
     1
 62
     7
176
     1
 40
1.0
176
     1
 90
        1
176
     1
 90
        6
176
     1
 90
        2
176
     1
 62
     7
176
     1
 90
        5
176
     1
 90
        0
176
     1
 90
        0
176
     1
290
     0
176
     1
 90
        1
176
     1
 40
0.0
176
     1
 90
        0
176
     1
290
     0
176
     1
290
     1
176
     1
290
     1
176
     1
290
     0
176
     1
290
     0
176
     1
290
     0
176
     1
290
     0
176
     1
290
     0
176
     1
290
     0
176
     1
 90
       50
176
     1
 40
0.0
176
     1
 40
1.0
176
     1
 90
        0
176
     1
 62
    18
420
        0
176
     1
 90
       50
176
     1
 90
        3
176
     1
 62
     5
420
      255
176
     1
290
     0
176
     1
 90
       50
176
     1
 90
       50
176
     1
 90
       50
176
     1
290
     0
176
     1
 90
       50
176
     1
 62
   256
176
     0
 40
1.0
176
     0
 90
        2
176
     1
  1
strokes_ogs.tif
176
     1
290
     0
176
     1
 40
1.0
176
     1
 40
1.0
176
     1
  0
VISUALSTYLE
  5
2A
102
{ACAD_REACTORS
330
29
102
}
330
29
100
AcDbVisualStyle
  2
Flat
 70
     0
177
     3
291
     1
 70
    58
 90
        2
176
     1
 90
        1
176
     1
 90
        1
176
     1
 90
        2
176
     1
 40
0.6
176
     1
 40
30.0
176
     1
 62
     7
420
 16777215
176
     1
 90
        0
176
     1
 90
        0
176
     1
 62
     7
176
     1
 62
   257
176
     1
 90
        1
176
     1
 90
        1
176
     1
 40
1.0
176
     1
 90
        8
176
     1
 62
     7
176
     1
 40
1.0
176
     1
 90
        1
176
     1
 90
        6
176
     1
 90
        2
176
     1
 62
     7
176
     1
 90
        5
176
     1
 90
        0
176
     1
 90
        0
176
     1
290
     0
176
     1
 90
       13
176
     1
 40
0.0
176
     1
 90
        0
176
     1
290
     0
176
     1
290
     1
176
     1
290
     1
176
     1
290
     0
176
     1
290
     0
176
     1
290
     0
176
     1
290
     0
176
     1
290
     0
176
     1
290
     0
176
     1
 90
       50
176
     1
 40
0.0
176
     1
 40
1.0
176
     1
 90
        0
176
     1
 62
    18
420
        0
176
     1
 90
       50
176
     1
 90
        3
176
     1
 62
     5
420
      255
176
     1
290
     0
176
     1
 90
       50
176
     1
 90
       50
176
     1
 90
       50
176
     1
290
     0
176
     1
 90
       50
176
     1
 62
   256
176
     0
 40
1.0
176
     0
 90
        2
176
     1
  1
strokes_ogs.tif
176
     1
290
     0
176
     1
 40
1.0
176
     1
 40
1.0
176
     1
  0
VISUALSTYLE
  5
2B
102
{ACAD_REACTORS
330
29
102
}
330
29
100
AcDbVisualStyle
  2
FlatWithEdges
 70
     1
177
     3
291
     1
 70
    58
 90
        2
176
     1
 90
        1
176
     1
 90
        1
176
     1
 90
        2
176
     1
 40
0.6
176
     1
 40
30.0
176
     1
 62
     7
420
 16777215
176
     1
 90
        1
176
     1
 90
        0
176
     1
 62
     7
176
     1
 62
   257
176
     1
 90
        1
176
     1
 90
        1
176
     1
 40
1.0
176
     1
 90
        0
176
     1
 62
   257
176
     1
 40
1.0
176
     1
 90
        1
176
     1
 90
        6
176
     1
 90
        2
176
     1
 62
     7
176
     1
 90
        5
176
     1
 90
        0
176
     1
 90
        0
176
     1
290
     0
176
     1
 90
       13
176
     1
 40
0.0
176
     1
 90
        0
176
     1
290
     0
176
     1
290
     1
176
     1
290
     1
176
     1
290
     0
176
     1
290
     0
176
     1
290
     0
176
     1
290
     0
176
     1
290
     0
176
     1
290
     0
176
     1
 90
       50
176
     1
 40
0.0
176
     1
 40
1.0
176
     1
 90
        0
176
     1
 62
    18
420
        0
176
     1
 90
       50
176
     1
 90
        3
176
     1
 62
     5
420
      255
176
     1
290
     0
176
     1
 90
       50
176
     1
 90
       50
176
     1
 90
       50
176
     1
290
     0
176
     1
 90
       50
176
     1
 62
   256
176
     0
 40
1.0
176
     0
 90
        2
176
     1
  1
strokes_ogs.tif
176
     1
290
     0
176
     1
 40
1.0
176
     1
 40
1.0
176
     1
  0
VISUALSTYLE
  5
2C
102
{ACAD_REACTORS
330
29
102
}
330
29
100
AcDbVisualStyle
  2
Gouraud
 70
     2
177
     3
291
     1
 70
    58
 90
        2
176
     1
 90
        2
176
     1
 90
        1
176
     1
 90
        2
176
     1
 40
0.6
176
     1
 40
30.0
176
     1
 62
     7
420
 16777215
176
     1
 90
        0
176
     1
 90
        0
176
     1
 62
     7
176
     1
 62
   257
176
     1
 90
        1
176
     1
 90
        1
176
     1
 40
1.0
176
     1
 90
        0
176
     1
 62
     7
176
     1
 40
1.0
176
     1
 90
        1
176
     1
 90
        6
176
     1
 90
        2
176
     1
 62
     7
176
     1
 90
        5
176
     1
 90
        0
176
     1
 90
        0
176
     1
290
     0
176
     1
 90
       13
176
     1
 40
0.0
176
     1
 90
        0
176
     1
290
     0
176
     1
290
     1
176
     1
290
     1
176
     1
290
     0
176
     1
290
     0
176
     1
290
     0
176
     1
290
     0
176
     1
290
     0
176
     1
290
     0
176
     1
 90
       50
176
     1
 40
0.0
176
     1
 40
1.0
176
     1
 90
        0
176
     1
 62
    18
420
        0
176
     1
 90
       50
176
     1
 90
        3
176
     1
 62
     5
420
      255
176
     1
290
     0
176
     1
 90
       50
176
     1
 90
       50
176
     1
 90
       50
176
     1
290
     0
176
     1
 90
       50
176
     1
 62
   256
176
     0
 40
1.0
176
     0
 90
        2
176
     1
  1
strokes_ogs.tif
176
     1
290
     0
176
     1
 40
1.0
176
     1
 40
1.0
176
     1
  0
VISUALSTYLE
  5
2D
102
{ACAD_REACTORS
330
29
102
}
330
29
100
AcDbVisualStyle
  2
GouraudWithEdges
 70
     3
177
     3
291
     1
 70
    58
 90
        2
176
     1
 90
        2
176
     1
 90
        1
176
     1
 90
        2
176
     1
 40
0.6
176
     1
 40
30.0
176
     1
 62
     7
420
 16777215
176
     1
 90
        1
176
     1
 90
        0
176
     1
 62
     7
176
     1
 62
   257
176
     1
 90
        1
176
     1
 90
        1
176
     1
 40
1.0
176
     1
 90
        0
176
     1
 62
   257
176
     1
 40
1.0
176
     1
 90
        1
176
     1
 90
        6
176
     1
 90
        2
176
     1
 62
     7
176
     1
 90
        5
176
     1
 90
        0
176
     1
 90
        0
176
     1
290
     0
176
     1
 90
       13
176
     1
 40
0.0
176
     1
 90
        0
176
     1
290
     0
176
     1
290
     1
176
     1
290
     1
176
     1
290
     0
176
     1
290
     0
176
     1
290
     0
176
     1
290
     0
176
     1
290
     0
176
     1
290
     0
176
     1
 90
       50
176
     1
 40
0.0
176
     1
 40
1.0
176
     1
 90
        0
176
     1
 62
    18
420
        0
176
     1
 90
       50
176
     1
 90
        3
176
     1
 62
     5
420
      255
176
     1
290
     0
176
     1
 90
       50
176
     1
 90
       50
176
     1
 90
       50
176
     1
290
     0
176
     1
 90
       50
176
     1
 62
   256
176
     0
 40
1.0
176
     0
 90
        2
176
     1
  1
strokes_ogs.tif
176
     1
290
     0
176
     1
 40
1.0
176
     1
 40
1.0
176
     1
  0
VISUALSTYLE
  5
31
102
{ACAD_REACTORS
330
29
102
}
330
29
100
AcDbVisualStyle
  2
Hidden
 70
     6
177
     3
291
     0
 70
    58
 90
        1
176
     1
 90
        2
176
     1
 90
        2
176
     1
 90
        0
176
     1
 40
0.6
176
     1
 40
30.0
176
     1
 62
     7
420
 16777215
176
     1
 90
        2
176
     1
 90
        2
176
     1
 62
     7
176
     1
 62
   257
176
     1
 90
        2
176
     1
 90
        1
176
     1
 40
40.0
176
     1
 90
        0
176
     1
 62
   257
176
     1
 40
1.0
176
     1
 90
        1
176
     1
 90
        6
176
     1
 90
        2
176
     1
 62
     7
176
     1
 90
        3
176
     1
 90
        0
176
     1
 90
        0
176
     1
290
     0
176
     1
 90
        1
176
     1
 40
0.0
176
     1
 90
        0
176
     1
290
     0
176
     1
290
     1
176
     1
290
     1
176
     1
290
     0
176
     1
290
     0
176
     1
290
     0
176
     1
290
     0
176
     1
290
     0
176
     1
290
     0
176
     1
 90
       50
176
     1
 40
0.0
176
     1
 40
1.0
176
     1
 90
        0
176
     1
 62
    18
420
        0
176
     1
 90
       50
176
     1
 90
        3
176
     1
 62
     5
420
      255
176
     1
290
     0
176
     1
 90
       50
176
     1
 90
       50
176
     1
 90
       50
176
     1
290
     0
176
     1
 90
       50
176
     1
 62
   256
176
     0
 40
1.0
176
     0
 90
        2
176
     1
  1
strokes_ogs.tif
176
     1
290
     0
176
     1
 40
1.0
176
     1
 40
1.0
176
     1
  0
VISUALSTYLE
  5
3F
102
{ACAD_REACTORS
330
29
102
}
330
29
100
AcDbVisualStyle
  2
JitterOff
 70
    20
177
     3
291
     1
 70
    58
 90
        2
176
     0
 90
        2
176
     0
 90
        0
176
     0
 90
        0
176
     0
 40
0.6
176
     0
 40
30.0
176
     0
 62
     7
420
 16777215
176
     0
 90
        1
176
     0
 90
        4
176
     0
 62
     7
176
     0
 62
   257
176
     0
 90
        1
176
     0
 90
        1
176
     0
 40
1.0
176
     0
 90
       10
176
     2
 62
     7
176
     0
 40
1.0
176
     0
 90
        1
176
     0
 90
        6
176
     0
 90
        2
176
     0
 62
     7
176
     0
 90
        5
176
     0
 90
        0
176
     0
 90
        0
176
     0
290
     0
176
     0
 90
        1
176
     0
 40
0.0
176
     0
 90
        0
176
     0
290
     0
176
     0
290
     1
176
     0
290
     1
176
     0
290
     0
176
     0
290
     0
176
     0
290
     0
176
     0
290
     0
176
     0
290
     0
176
     0
290
     0
176
     0
 90
       50
176
     0
 40
0.0
176
     0
 40
1.0
176
     0
 90
        0
176
     0
 62
    18
420
        0
176
     0
 90
       50
176
     0
 90
        3
176
     0
 62
     5
420
      255
176
     0
290
     0
176
     0
 90
       50
176
     0
 90
       50
176
     0
 90
       50
176
     0
290
     0
176
     0
 90
       50
176
     0
 62
   256
176
     0
 40
1.0
176
     0
 90
        2
176
     0
  1
strokes_ogs.tif
176
     0
290
     0
176
     0
 40
1.0
176
     0
 40
1.0
176
     0
  0
VISUALSTYLE
  5
37
102
{ACAD_REACTORS
330
29
102
}
330
29
100
AcDbVisualStyle
  2
Linepattern
 70
    14
177
     3
291
     1
 70
    58
 90
        2
176
     1
 90
        2
176
     1
 90
        0
176
     1
 90
        0
176
     1
 40
0.6
176
     1
 40
30.0
176
     1
 62
     7
420
 16777215
176
     1
 90
        1
176
     1
 90
        4
176
     1
 62
     7
176
     1
 62
   257
176
     1
 90
        7
176
     1
 90
        7
176
     1
 40
1.0
176
     1
 90
        8
176
     1
 62
     7
176
     1
 40
1.0
176
     1
 90
        1
176
     1
 90
        6
176
     1
 90
        2
176
     1
 62
     7
176
     1
 90
        5
176
     1
 90
        0
176
     1
 90
        0
176
     1
290
     0
176
     1
 90
        1
176
     1
 40
0.0
176
     1
 90
        0
176
     1
290
     0
176
     1
290
     1
176
     1
290
     1
176
     1
290
     0
176
     1
290
     0
176
     1
290
     0
176
     1
290
     0
176
     1
290
     0
176
     1
290
     0
176
     1
 90
       50
176
     1
 40
0.0
176
     1
 40
1.0
176
     1
 90
        0
176
     1
 62
    18
420
        0
176
     1
 90
       50
176
     1
 90
        3
176
     1
 62
     5
420
      255
176
     1
290
     0
176
     1
 90
       50
176
     1
 90
       50
176
     1
 90
       50
176
     1
290
     0
176
     1
 90
       50
176
     1
 62
   256
176
     0
 40
1.0
176
     0
 90
        2
176
     1
  1
strokes_ogs.tif
176
     1
290
     0
176
     1
 40
1.0
176
     1
 40
1.0
176
     1
  0
VISUALSTYLE
  5
40
102
{ACAD_REACTORS
330
29
102
}
330
29
100
AcDbVisualStyle
  2
OverhangOff
 70
    21
177
     3
291
     1
 70
    58
 90
        2
176
     0
 90
        2
176
     0
 90
        0
176
     0
 90
        0
176
     0
 40
0.6
176
     0
 40
30.0
176
     0
 62
     7
420
 16777215
176
     0
 90
        1
176
     0
 90
        4
176
     0
 62
     7
176
     0
 62
   257
176
     0
 90
        1
176
     0
 90
        1
176
     0
 40
1.0
176
     0
 90
        9
176
     2
 62
     7
176
     0
 40
1.0
176
     0
 90
        1
176
     0
 90
        6
176
     0
 90
        2
176
     0
 62
     7
176
     0
 90
        5
176
     0
 90
        0
176
     0
 90
        0
176
     0
290
     0
176
     0
 90
        1
176
     0
 40
0.0
176
     0
 90
        0
176
     0
290
     0
176
     0
290
     1
176
     0
290
     1
176
     0
290
     0
176
     0
290
     0
176
     0
290
     0
176
     0
290
     0
176
     0
290
     0
176
     0
290
     0
176
     0
 90
       50
176
     0
 40
0.0
176
     0
 40
1.0
176
     0
 90
        0
176
     0
 62
    18
420
        0
176
     0
 90
       50
176
     0
 90
        3
176
     0
 62
     5
420
      255
176
     0
290
     0
176
     0
 90
       50
176
     0
 90
       50
176
     0
 90
       50
176
     0
290
     0
176
     0
 90
       50
176
     0
 62
   256
176
     0
 40
1.0
176
     0
 90
        2
176
     0
  1
strokes_ogs.tif
176
     0
290
     0
176
     0
 40
1.0
176
     0
 40
1.0
176
     0
  0
VISUALSTYLE
  5
33
102
{ACAD_REACTORS
330
29
102
}
330
29
100
AcDbVisualStyle
  2
Realistic
 70
     8
177
     3
291
     0
 70
    58
 90
        2
176
     1
 90
        3
176
     1
 90
        0
176
     1
 90
        2
176
     1
 40
0.6
176
     1
 40
30.0
176
     1
 62
     7
420
 16777215
176
     1
 90
        0
176
     1
 90
        0
176
     1
 62
     7
176
     1
 62
   257
176
     1
 90
        1
176
     1
 90
        1
176
     1
 40
1.0
176
     1
 90
        8
176
     1
 62
   257
176
     1
 40
1.0
176
     1
 90
        1
176
     1
 90
        6
176
     1
 90
        2
176
     1
 62
     7
176
     1
 90
        3
176
     1
 90
        0
176
     1
 90
        0
176
     1
290
     0
176
     1
 90
       13
176
     1
 40
0.0
176
     1
 90
        0
176
     1
290
     0
176
     1
290
     1
176
     1
290
     1
176
     1
290
     0
176
     1
290
     0
176
     1
290
     0
176
     1
290
     0
176
     1
290
     0
176
     1
290
     0
176
     1
 90
       50
176
     1
 40
0.0
176
     1
 40
1.0
176
     1
 90
        0
176
     1
 62
    18
420
        0
176
     1
 90
       50
176
     1
 90
        3
176
     1
 62
     5
420
      255
176
     1
290
     0
176
     1
 90
       50
176
     1
 90
       50
176
     1
 90
       50
176
     1
290
     0
176
     1
 90
       50
176
     1
 62
   256
176
     0
 40
1.0
176
     0
 90
        2
176
     1
  1
strokes_ogs.tif
176
     1
290
     0
176
     1
 40
1.0
176
     1
 40
1.0
176
     1
  0
VISUALSTYLE
  5
3E
102
{ACAD_REACTORS
330
29
102
}
330
29
100
AcDbVisualStyle
  2
Shaded
 70
    27
177
     3
291
     0
 70
    58
 90
        2
176
     1
 90
        2
176
     1
 90
        1
176
     1
 90
        2
176
     1
 40
0.6
176
     1
 40
30.0
176
     1
 62
     7
420
 16777215
176
     1
 90
        0
176
     1
 90
        4
176
     1
 62
     7
176
     1
 62
   257
176
     1
 90
        1
176
     1
 90
        1
176
     1
 40
1.0
176
     1
 90
        8
176
     1
 62
   257
176
     1
 40
1.0
176
     1
 90
        1
176
     1
 90
        6
176
     1
 90
        2
176
     1
 62
     8
420
  7895160
176
     1
 90
        3
176
     1
 90
        0
176
     1
 90
        0
176
     1
290
     0
176
     1
 90
        5
176
     1
 40
0.0
176
     1
 90
        0
176
     1
290
     0
176
     1
290
     1
176
     1
290
     1
176
     1
290
     0
176
     1
290
     0
176
     1
290
     0
176
     1
290
     0
176
     1
290
     0
176
     1
290
     0
176
     1
 90
       50
176
     1
 40
0.0
176
     1
 40
1.0
176
     1
 90
        0
176
     1
 62
    18
420
        0
176
     1
 90
       50
176
     1
 90
        3
176
     1
 62
     5
420
      255
176
     1
290
     0
176
     1
 90
       50
176
     1
 90
       50
176
     1
 90
       50
176
     1
290
     0
176
     1
 90
       50
176
     1
 62
   256
176
     0
 40
1.0
176
     0
 90
        2
176
     1
  1
strokes_ogs.tif
176
     1
290
     0
176
     1
 40
1.0
176
     1
 40
1.0
176
     1
  0
VISUALSTYLE
  5
3D
102
{ACAD_REACTORS
330
29
102
}
330
29
100
AcDbVisualStyle
  2
Shaded with edges
 70
    26
177
     3
291
     0
 70
    58
 90
        2
176
     1
 90
        2
176
     1
 90
        1
176
     1
 90
        2
176
     1
 40
0.6
176
     1
 40
30.0
176
     1
 62
     7
420
 16777215
176
     1
 90
        1
176
     1
 90
        2
176
     1
 62
     7
176
     1
 62
   257
176
     1
 90
        2
176
     1
 90
        1
176
     1
 40
1.0
176
     1
 90
        8
176
     1
 62
   257
176
     1
 40
1.0
176
     1
 90
        1
176
     1
 90
        6
176
     1
 90
        2
176
     1
 62
     7
176
     1
 90
        3
176
     1
 90
        0
176
     1
 90
        0
176
     1
290
     0
176
     1
 90
        5
176
     1
 40
0.0
176
     1
 90
        0
176
     1
290
     0
176
     1
290
     1
176
     1
290
     1
176
     1
290
     0
176
     1
290
     0
176
     1
290
     0
176
     1
290
     0
176
     1
290
     0
176
     1
290
     0
176
     1
 90
       50
176
     1
 40
0.0
176
     1
 40
1.0
176
     1
 90
        0
176
     1
 62
    18
420
        0
176
     1
 90
       50
176
     1
 90
        3
176
     1
 62
     5
420
      255
176
     1
290
     0
176
     1
 90
       50
176
     1
 90
       50
176
     1
 90
       50
176
     1
290
     0
176
     1
 90
       50
176
     1
 62
   256
176
     0
 40
1.0
176
     0
 90
        2
176
     1
  1
strokes_ogs.tif
176
     1
290
     0
176
     1
 40
1.0
176
     1
 40
1.0
176
     1
  0
VISUALSTYLE
  5
3A
102
{ACAD_REACTORS
330
29
102
}
330
29
100
AcDbVisualStyle
  2
Shades of Gray
 70
    23
177
     3
291
     0
 70
    58
 90
        2
176
     1
 90
        2
176
     1
 90
        3
176
     1
 90
        0
176
     1
 40
0.6
176
     1
 40
30.0
176
     1
 62
     7
420
 16777215
176
     1
 90
        2
176
     1
 90
        2
176
     1
 62
     7
176
     1
 62
     7
176
     1
 90
        1
176
     1
 90
        1
176
     1
 40
40.0
176
     1
 90
        8
176
     1
 62
     7
176
     1
 40
1.0
176
     1
 90
        1
176
     1
 90
        6
176
     1
 90
        2
176
     1
 62
     7
176
     1
 90
        3
176
     1
 90
        0
176
     1
 90
        0
176
     1
290
     0
176
     1
 90
        1
176
     1
 40
0.0
176
     1
 90
        0
176
     1
290
     0
176
     1
290
     1
176
     1
290
     1
176
     1
290
     0
176
     1
290
     0
176
     1
290
     0
176
     1
290
     0
176
     1
290
     0
176
     1
290
     0
176
     1
 90
       50
176
     1
 40
0.0
176
     1
 40
1.0
176
     1
 90
        0
176
     1
 62
    18
420
        0
176
     1
 90
       50
176
     1
 90
        3
176
     1
 62
     5
420
      255
176
     1
290
     0
176
     1
 90
       50
176
     1
 90
       50
176
     1
 90
       50
176
     1
290
     0
176
     1
 90
       50
176
     1
 62
   256
176
     0
 40
1.0
176
     0
 90
        2
176
     1
  1
strokes_ogs.tif
176
     1
290
     0
176
     1
 40
1.0
176
     1
 40
1.0
176
     1
  0
VISUALSTYLE
  5
3B
102
{ACAD_REACTORS
330
29
102
}
330
29
100
AcDbVisualStyle
  2
Sketchy
 70
    24
177
     3
291
     0
 70
    58
 90
        1
176
     1
 90
        2
176
     1
 90
        2
176
     1
 90
        0
176
     1
 40
0.6
176
     1
 40
30.0
176
     1
 62
     7
420
 16777215
176
     1
 90
        2
176
     1
 90
        2
176
     1
 62
     7
176
     1
 62
     7
176
     1
 90
        1
176
     1
 90
        1
176
     1
 40
40.0
176
     1
 90
       11
176
     1
 62
     7
176
     1
 40
1.0
176
     1
 90
        1
176
     1
 90
        6
176
     1
 90
        2
176
     1
 62
     7
176
     1
 90
        6
176
     1
 90
        0
176
     1
 90
        0
176
     1
290
     0
176
     1
 90
        1
176
     1
 40
0.0
176
     1
 90
        0
176
     1
290
     0
176
     1
290
     1
176
     1
290
     1
176
     1
290
     0
176
     1
290
     0
176
     1
290
     0
176
     1
290
     0
176
     1
290
     0
176
     1
290
     0
176
     1
 90
       50
176
     1
 40
0.0
176
     1
 40
1.0
176
     1
 90
        0
176
     1
 62
    18
420
        0
176
     1
 90
       50
176
     1
 90
        3
176
     1
 62
     5
420
      255
176
     1
290
     0
176
     1
 90
       50
176
     1
 90
       50
176
     1
 90
       50
176
     1
290
     0
176
     1
 90
       50
176
     1
 62
   256
176
     0
 40
1.0
176
     0
 90
        2
176
     1
  1
strokes_ogs.tif
176
     1
290
     0
176
     1
 40
1.0
176
     1
 40
1.0
176
     1
  0
VISUALSTYLE
  5
36
102
{ACAD_REACTORS
330
29
102
}
330
29
100
AcDbVisualStyle
  2
Thicken
 70
    13
177
     3
291
     1
 70
    58
 90
        2
176
     1
 90
        2
176
     1
 90
        0
176
     1
 90
        0
176
     1
 40
0.6
176
     1
 40
30.0
176
     1
 62
     7
420
 16777215
176
     1
 90
        1
176
     1
 90
        4
176
     1
 62
     7
176
     1
 62
   257
176
     1
 90
        1
176
     1
 90
        1
176
     1
 40
1.0
176
     1
 90
       12
176
     1
 62
     7
176
     1
 40
1.0
176
     1
 90
        1
176
     1
 90
        6
176
     1
 90
        2
176
     1
 62
     7
176
     1
 90
        5
176
     1
 90
        0
176
     1
 90
        0
176
     1
290
     0
176
     1
 90
        1
176
     1
 40
0.0
176
     1
 90
        0
176
     1
290
     0
176
     1
290
     1
176
     1
290
     1
176
     1
290
     0
176
     1
290
     0
176
     1
290
     0
176
     1
290
     0
176
     1
290
     0
176
     1
290
     0
176
     1
 90
       50
176
     1
 40
0.0
176
     1
 40
1.0
176
     1
 90
        0
176
     1
 62
    18
420
        0
176
     1
 90
       50
176
     1
 90
        3
176
     1
 62
     5
420
      255
176
     1
290
     0
176
     1
 90
       50
176
     1
 90
       50
176
     1
 90
       50
176
     1
290
     0
176
     1
 90
       50
176
     1
 62
   256
176
     0
 40
1.0
176
     0
 90
        2
176
     1
  1
strokes_ogs.tif
176
     1
290
     0
176
     1
 40
1.0
176
     1
 40
1.0
176
     1
  0
VISUALSTYLE
  5
30
102
{ACAD_REACTORS
330
29
102
}
330
29
100
AcDbVisualStyle
  2
Wireframe
 70
     5
177
     3
291
     0
 70
    58
 90
        0
176
     1
 90
        2
176
     1
 90
        0
176
     1
 90
        0
176
     1
 40
0.6
176
     1
 40
30.0
176
     1
 62
     7
420
 16777215
176
     1
 90
        1
176
     1
 90
        4
176
     1
 62
     7
176
     1
 62
   257
176
     1
 90
        1
176
     1
 90
        1
176
     1
 40
1.0
176
     1
 90
        0
176
     1
 62
   257
176
     1
 40
1.0
176
     1
 90
        1
176
     1
 90
        6
176
     1
 90
        2
176
     1
 62
     7
176
     1
 90
        3
176
     1
 90
        0
176
     1
 90
        0
176
     1
290
     0
176
     1
 90
        1
176
     1
 40
0.0
176
     1
 90
        0
176
     1
290
     0
176
     1
290
     1
176
     1
290
     1
176
     1
290
     0
176
     1
290
     0
176
     1
290
     0
176
     1
290
     0
176
     1
290
     0
176
     1
290
     0
176
     1
 90
       50
176
     1
 40
0.0
176
     1
 40
1.0
176
     1
 90
        0
176
     1
 62
    18
420
        0
176
     1
 90
       50
176
     1
 90
        3
176
     1
 62
     5
420
      255
176
     1
290
     0
176
     1
 90
       50
176
     1
 90
       50
176
     1
 90
       50
176
     1
290
     0
176
     1
 90
       50
176
     1
 62
   256
176
     0
 40
1.0
176
     0
 90
        2
176
     1
  1
strokes_ogs.tif
176
     1
290
     0
176
     1
 40
1.0
176
     1
 40
1.0
176
     1
  0
VISUALSTYLE
  5
3C
102
{ACAD_REACTORS
330
29
102
}
330
29
100
AcDbVisualStyle
  2
X-Ray
 70
    25
177
     3
291
     0
 70
    58
 90
        2
176
     1
 90
        2
176
     1
 90
        1
176
     1
 90
        1
176
     1
 40
0.5
176
     1
 40
30.0
176
     1
 62
     7
420
 16777215
176
     1
 90
        1
176
     1
 90
        0
176
     1
 62
     7
176
     1
 62
   257
176
     1
 90
        1
176
     1
 90
        1
176
     1
 40
1.0
176
     1
 90
        8
176
     1
 62
     7
176
     1
 40
1.0
176
     1
 90
        1
176
     1
 90
        6
176
     1
 90
        2
176
     1
 62
     7
176
     1
 90
        3
176
     1
 90
        0
176
     1
 90
        0
176
     1
290
     0
176
     1
 90
       13
176
     1
 40
0.0
176
     1
 90
        0
176
     1
290
     0
176
     1
290
     1
176
     1
290
     1
176
     1
290
     0
176
     1
290
     0
176
     1
290
     0
176
     1
290
     0
176
     1
290
     0
176
     1
290
     0
176
     1
 90
       50
176
     1
 40
0.0
176
     1
 40
1.0
176
     1
 90
        0
176
     1
 62
    18
420
        0
176
     1
 90
       50
176
     1
 90
        3
176
     1
 62
     5
420
      255
176
     1
290
     0
176
     1
 90
       50
176
     1
 90
       50
176
     1
 90
       50
176
     1
290
     0
176
     1
 90
       50
176
     1
 62
   256
176
     0
 40
1.0
176
     0
 90
        2
176
     1
  1
strokes_ogs.tif
176
     1
290
     0
176
     1
 40
1.0
176
     1
 40
1.0
176
     1
  0
DICTIONARYVAR
  5
F3
102
{ACAD_REACTORS
330
EE
102
}
330
EE
100
DictionaryVariables
280
     0
  1
1:1
  0
DICTIONARYVAR
  5
F0
102
{ACAD_REACTORS
330
EE
102
}
330
EE
100
DictionaryVariables
280
     0
  1
STANDARD
  0
DICTIONARYVAR
  5
EF
102
{ACAD_REACTORS
330
EE
102
}
330
EE
100
DictionaryVariables
280
     0
  1
STANDARD
  0
DICTIONARYVAR
  5
F1
102
{ACAD_REACTORS
330
EE
102
}
330
EE
100
DictionaryVariables
280
     0
  1
Imperial24
  0
DICTIONARYVAR
  5
F2
102
{ACAD_REACTORS
330
EE
102
}
330
EE
100
DictionaryVariables
280
     0
  1
Imperial24
  0
DICTIONARY
  5
1A
330
19
100
AcDbDictionary
280
     1
281
     1
  3
BUMPTILE
360
1C
  3
DIFFUSETILE
360
1B
  3
OPACITYTILE
360
1F
  3
REFLECTIONTILE
360
1E
  3
REFRACTIONTILE
360
20
  3
SPECULARTILE
360
1D
  0
DICTIONARY
  5
12
330
11
100
AcDbDictionary
280
     1
281
     1
  3
BUMPTILE
360
14
  3
DIFFUSETILE
360
13
  3
OPACITYTILE
360
17
  3
REFLECTIONTILE
360
16
  3
REFRACTIONTILE
360
18
  3
SPECULARTILE
360
15
  0
DICTIONARY
  5
22
330
21
100
AcDbDictionary
280
     1
281
     1
  3
BUMPTILE
360
24
  3
DIFFUSETILE
360
23
  3
OPACITYTILE
360
27
  3
REFLECTIONTILE
360
26
  3
REFRACTIONTILE
360
28
  3
SPECULARTILE
360
25
  0
DICTIONARY
  5
F4
330
65
100
AcDbDictionary
280
     1
281
     1
  3
ACAD_ROUNDTRIP_2008_TABLESTYLE_CELLSTYLEMAP
360
F5
  0
XRECORD
  5
1C
102
{ACAD_REACTORS
330
1A
102
}
330
1A
100
AcDbXrecord
280
     1
270
     1
271
     1
  0
XRECORD
  5
1B
102
{ACAD_REACTORS
330
1A
102
}
330
1A
100
AcDbXrecord
280
     1
270
     1
271
     1
  0
XRECORD
  5
1F
102
{ACAD_REACTORS
330
1A
102
}
330
1A
100
AcDbXrecord
280
     1
270
     1
271
     1
  0
XRECORD
  5
1E
102
{ACAD_REACTORS
330
1A
102
}
330
1A
100
AcDbXrecord
280
     1
270
     1
271
     1
  0
XRECORD
  5
20
102
{ACAD_REACTORS
330
1A
102
}
330
1A
100
AcDbXrecord
280
     1
270
     1
271
     1
  0
XRECORD
  5
1D
102
{ACAD_REACTORS
330
1A
102
}
330
1A
100
AcDbXrecord
280
     1
270
     1
271
     1
  0
XRECORD
  5
14
102
{ACAD_REACTORS
330
12
102
}
330
12
100
AcDbXrecord
280
     1
270
     1
271
     1
  0
XRECORD
  5
13
102
{ACAD_REACTORS
330
12
102
}
330
12
100
AcDbXrecord
280
     1
270
     1
271
     1
  0
XRECORD
  5
17
102
{ACAD_REACTORS
330
12
102
}
330
12
100
AcDbXrecord
280
     1
270
     1
271
     1
  0
XRECORD
  5
16
102
{ACAD_REACTORS
330
12
102
}
330
12
100
AcDbXrecord
280
     1
270
     1
271
     1
  0
XRECORD
  5
18
102
{ACAD_REACTORS
330
12
102
}
330
12
100
AcDbXrecord
280
     1
270
     1
271
     1
  0
XRECORD
  5
15
102
{ACAD_REACTORS
330
12
102
}
330
12
100
AcDbXrecord
280
     1
270
     1
271
     1
  0
XRECORD
  5
24
102
{ACAD_REACTORS
330
22
102
}
330
22
100
AcDbXrecord
280
     1
270
     1
271
     1
  0
XRECORD
  5
23
102
{ACAD_REACTORS
330
22
102
}
330
22
100
AcDbXrecord
280
     1
270
     1
271
     1
  0
XRECORD
  5
27
102
{ACAD_REACTORS
330
22
102
}
330
22
100
AcDbXrecord
280
     1
270
     1
271
     1
  0
XRECORD
  5
26
102
{ACAD_REACTORS
330
22
102
}
330
22
100
AcDbXrecord
280
     1
270
     1
271
     1
  0
XRECORD
  5
28
102
{ACAD_REACTORS
330
22
102
}
330
22
100
AcDbXrecord
280
     1
270
     1
271
     1
  0
XRECORD
  5
25
102
{ACAD_REACTORS
330
22
102
}
330
22
100
AcDbXrecord
280
     1
270
     1
271
     1
  0
CELLSTYLEMAP
  5
F5
102
{ACAD_REACTORS
330
F4
102
}
330
F4
100
AcDbCellStyleMap
 90
        3
300
CELLSTYLE
  1
TABLEFORMAT_BEGIN
 90
        5
170
     1
 91
        0
 92
    32768
 62
   257
 93
        1
300
CONTENTFORMAT
  1
CONTENTFORMAT_BEGIN
 90
        0
 91
        0
 92
      512
 93
        0
300

 40
0.0
140
1.0
 94
        5
 62
     0
340
55
144
0.25
309
CONTENTFORMAT_END
171
     0
 94
        0
309
TABLEFORMAT_END
  1
CELLSTYLE_BEGIN
 90
        1
 91
        1
300
_TITLE
309
CELLSTYLE_END
300
CELLSTYLE
  1
TABLEFORMAT_BEGIN
 90
        5
170
     1
 91
        0
 92
        0
 62
   257
 93
        1
300
CONTENTFORMAT
  1
CONTENTFORMAT_BEGIN
 90
        0
 91
        0
 92
      512
 93
        0
300

 40
0.0
140
1.0
 94
        5
 62
     0
340
55
144
0.18
309
CONTENTFORMAT_END
171
     0
 94
        0
309
TABLEFORMAT_END
  1
CELLSTYLE_BEGIN
 90
        2
 91
        1
300
_HEADER
309
CELLSTYLE_END
300
CELLSTYLE
  1
TABLEFORMAT_BEGIN
 90
        5
170
     1
 91
        0
 92
        0
 62
   257
 93
        1
300
CONTENTFORMAT
  1
CONTENTFORMAT_BEGIN
 90
        0
 91
        0
 92
      512
 93
        0
300

 40
0.0
140
1.0
 94
        2
 62
     0
340
55
144
0.18
309
CONTENTFORMAT_END
171
     0
 94
        0
309
TABLEFORMAT_END
  1
CELLSTYLE_BEGIN
 90
        3
 91
        2
300
_DATA
309
CELLSTYLE_END
  0
ENDSEC
  0
EOF
