M48
; DRILL file {KiCad (6.0.5)} date Sat Jan  7 12:48:11 2023
; FORMAT={-:-/ absolute / inch / decimal}
; #@! TF.CreationDate,2023-01-07T12:48:11-05:00
; #@! TF.GenerationSoftware,Kicad,Pcbnew,(6.0.5)
; #@! TF.FileFunction,NonPlated,1,2,NPTH
FMAT,2
INCH
; #@! TA.AperFunction,NonPlated,NPTH,ComponentDrill
T1C0.0256
; #@! TA.AperFunction,NonPlated,NPTH,ComponentDrill
T2C0.0689
; #@! TA.AperFunction,NonPlated,NPTH,ComponentDrill
T3C0.1570
%
G90
G05
T1
X2.0425Y-1.6152
X2.27Y-1.6152
T2
X1.2063Y-2.6125
X1.2063Y-3.3625
X1.3Y-4.8625
X1.3938Y-4.1125
X1.5813Y-1.8625
X1.6062Y-2.6125
X1.6062Y-3.3625
X1.7Y-4.8625
X1.7937Y-4.1125
X1.9563Y-2.6125
X1.9563Y-3.3625
X1.9812Y-1.8625
X2.2375Y-4.8625
X2.3312Y-1.8625
X2.3312Y-4.1125
X2.3562Y-2.6125
X2.3562Y-3.3625
X2.6375Y-4.8625
X2.7062Y-2.6125
X2.7062Y-3.3625
X2.7312Y-1.8625
X2.7312Y-4.1125
X3.0812Y-1.8625
X3.0812Y-4.1125
X3.1062Y-2.6125
X3.1062Y-3.3625
X3.175Y-4.8625
X3.4562Y-2.6125
X3.4562Y-3.3625
X3.4812Y-1.8625
X3.4812Y-4.1125
X3.575Y-4.8625
X3.8312Y-1.8625
X3.8312Y-4.1125
X3.8562Y-2.6125
X3.8562Y-3.3625
X4.0187Y-4.8625
X4.2062Y-2.6125
X4.2062Y-3.3625
X4.2313Y-1.8625
X4.2313Y-4.1125
X4.4188Y-4.8625
X4.5812Y-1.8625
X4.5812Y-4.1125
X4.6063Y-2.6125
X4.6063Y-3.3625
X4.9562Y-2.6125
X4.9562Y-3.3625
X4.9562Y-4.8625
X4.9813Y-1.8625
X4.9813Y-4.1125
X5.3312Y-1.8625
X5.3563Y-2.6125
X5.3563Y-3.3625
X5.3563Y-4.8625
X5.6125Y-4.1125
X5.7313Y-1.8625
X6.0125Y-4.1125
X6.175Y-4.8625
X6.2687Y-2.6125
X6.2687Y-3.3625
X6.575Y-4.8625
X6.6437Y-4.1125
X6.6688Y-2.6125
X6.6688Y-3.3625
X7.0187Y-2.6125
X7.0187Y-3.3625
X7.0438Y-4.1125
X7.2062Y-4.8625
X7.3937Y-4.1125
X7.4188Y-2.6125
X7.4188Y-3.3625
X7.6063Y-4.8625
X7.7687Y-2.6125
X7.7687Y-3.3625
X7.7938Y-4.1125
X8.05Y-4.8625
X8.1437Y-4.1125
X8.1687Y-2.6125
X8.1687Y-3.3625
X8.45Y-4.8625
X8.5187Y-2.6125
X8.5187Y-3.3625
X8.5437Y-4.1125
X8.8937Y-4.1125
X8.9187Y-2.6125
X8.9187Y-3.3625
X8.9875Y-4.8625
X9.2687Y-2.6125
X9.2687Y-3.3625
X9.2937Y-4.1125
X9.3875Y-4.8625
X9.6687Y-2.6125
X9.6687Y-3.3625
X9.8312Y-4.1125
X9.925Y-4.8625
X10.0187Y-2.6125
X10.0187Y-3.3625
X10.2312Y-4.1125
X10.325Y-4.8625
X10.4187Y-2.6125
X10.4187Y-3.3625
T3
X1.4062Y-2.6125
X1.4062Y-3.3625
X1.5Y-4.8625
X1.5938Y-4.1125
X1.7812Y-1.8625
X2.1562Y-2.6125
X2.1562Y-3.3625
X2.4375Y-4.8625
X2.5312Y-1.8625
X2.5312Y-4.1125
X2.9062Y-2.6125
X2.9062Y-3.3625
X3.2812Y-1.8625
X3.2812Y-4.1125
X3.375Y-4.8625
X3.6562Y-2.6125
X3.6562Y-3.3625
X4.0312Y-1.8625
X4.0312Y-4.1125
X4.2188Y-4.8625
X4.4062Y-2.6125
X4.4062Y-3.3625
X4.7812Y-1.8625
X4.7812Y-4.1125
X5.1562Y-2.6125
X5.1562Y-3.3625
X5.1562Y-4.8625
X5.5312Y-1.8625
X5.8125Y-4.1125
X6.375Y-4.8625
X6.4688Y-2.6125
X6.4688Y-3.3625
X6.8438Y-4.1125
X7.2188Y-2.6125
X7.2188Y-3.3625
X7.4062Y-4.8625
X7.5938Y-4.1125
X7.9688Y-2.6125
X7.9688Y-3.3625
X8.25Y-4.8625
X8.3438Y-4.1125
X8.7188Y-2.6125
X8.7188Y-3.3625
X9.0938Y-4.1125
X9.1875Y-4.8625
X9.4688Y-2.6125
X9.4688Y-3.3625
X10.0312Y-4.1125
X10.125Y-4.8625
X10.2188Y-2.6125
X10.2188Y-3.3625
T0
M30
